999
FreeCAD v0.19 24291 (Git)
  0
SECTION
  2
HEADER
  9
$ACADVER
  1
AC1014
  9
$ACADMAINTVER
 70
     9
  9
$DWGCODEPAGE
  3
ANSI_1252
  9
$TEXTSTYLE
  7
STANDARD
  9
$DIMSTYLE
  2
STANDARD
  9
$DIMTXSTY
  7
STANDARD
  9
$CMLSTYLE
  2
STANDARD
  9
$PEXTMAX
 10
50
 20
50
 30
50
  9
$PEXTMIN
 10
0
 20
0
 30
0
  9
$HANDSEED
  5
FFFF
  0
ENDSEC
  0
SECTION
  2
CLASSES
  0
CLASS
  1
ACDBDICTIONARYWDFLT
  2
AcDbDictionaryWithDefault
  3
ObjectDBX Classes
 90
        0
280
     0
281
     0
  0
CLASS
  1
XRECORD
  2
AcDbXrecord
  3
ObjectDBX Classes
 90
        0
280
     0
281
     0
  0
CLASS
  1
LWPOLYLINE
  2
AcDbPolyline
  3
ObjectDBX Classes
 90
        0
280
     0
281
     1
  0
ENDSEC
  0
SECTION
  2
TABLES
  0
TABLE
  2
VPORT
  5
20
330
0
100
AcDbSymbolTable
 70
     1
  0
VPORT
  5
21
330
20
100
AcDbSymbolTableRecord
100
AcDbViewportTableRecord
  2
*ACTIVE
 70
     0
  0
ENDTAB
  0
TABLE
  2
LTYPE
  5
22
330
0
100
AcDbSymbolTable
 70
     1
  0
LTYPE
  5
23
330
21
100
AcDbSymbolTableRecord
100
AcDbLinetypeTableRecord
  2
BYBLOCK
 70
     0
  3

 72
    65
 73
     0
 40
0.0
  0
LTYPE
  5
24
330
21
100
AcDbSymbolTableRecord
100
AcDbLinetypeTableRecord
  2
BYLAYER
 70
     0
  3

 72
    65
 73
     0
 40
0.0
  0
LTYPE
  5
25
330
21
100
AcDbSymbolTableRecord
100
AcDbLinetypeTableRecord
  2
CONTINUOUS
 70
     0
  3
Solid line
 72
    65
 73
     0
 40
0.0
  0
ENDTAB
  0
TABLE
  2
LAYER
  5
BAB
330
0
100
AcDbSymbolTable
 70
19
  0
LAYER
  5
BAC
330
BAB
100
AcDbSymbolTableRecord
100
AcDbLayerTableRecord
  2
0
 70
   0
 62
   7
  6
CONTINUOUS
  0
LAYER
  5
BAD
330
BAB
100
AcDbSymbolTableRecord
100
AcDbLayerTableRecord
  2
ProjItem
 70
    0
 62
    7
  6
CONTINUOUS
  0
LAYER
  5
BAE
330
BAB
100
AcDbSymbolTableRecord
100
AcDbLayerTableRecord
  2
ProjItem001
 70
    0
 62
    7
  6
CONTINUOUS
  0
LAYER
  5
BAF
330
BAB
100
AcDbSymbolTableRecord
100
AcDbLayerTableRecord
  2
ProjItem002
 70
    0
 62
    7
  6
CONTINUOUS
  0
LAYER
  5
BB0
330
BAB
100
AcDbSymbolTableRecord
100
AcDbLayerTableRecord
  2
View
 70
    0
 62
    7
  6
CONTINUOUS
  0
LAYER
  5
BB1
330
BAB
100
AcDbSymbolTableRecord
100
AcDbLayerTableRecord
  2
Dimension
 70
    0
 62
    7
  6
CONTINUOUS
  0
LAYER
  5
BB2
330
BAB
100
AcDbSymbolTableRecord
100
AcDbLayerTableRecord
  2
Dimension001
 70
    0
 62
    7
  6
CONTINUOUS
  0
LAYER
  5
BB3
330
BAB
100
AcDbSymbolTableRecord
100
AcDbLayerTableRecord
  2
Dimension002
 70
    0
 62
    7
  6
CONTINUOUS
  0
LAYER
  5
BB4
330
BAB
100
AcDbSymbolTableRecord
100
AcDbLayerTableRecord
  2
Dimension003
 70
    0
 62
    7
  6
CONTINUOUS
  0
LAYER
  5
BB5
330
BAB
100
AcDbSymbolTableRecord
100
AcDbLayerTableRecord
  2
Dimension004
 70
    0
 62
    7
  6
CONTINUOUS
  0
LAYER
  5
BB6
330
BAB
100
AcDbSymbolTableRecord
100
AcDbLayerTableRecord
  2
Dimension005
 70
    0
 62
    7
  6
CONTINUOUS
  0
LAYER
  5
BB7
330
BAB
100
AcDbSymbolTableRecord
100
AcDbLayerTableRecord
  2
Dimension007
 70
    0
 62
    7
  6
CONTINUOUS
  0
LAYER
  5
BB8
330
BAB
100
AcDbSymbolTableRecord
100
AcDbLayerTableRecord
  2
Dimension008
 70
    0
 62
    7
  6
CONTINUOUS
  0
LAYER
  5
BB9
330
BAB
100
AcDbSymbolTableRecord
100
AcDbLayerTableRecord
  2
Dimension009
 70
    0
 62
    7
  6
CONTINUOUS
  0
LAYER
  5
BBA
330
BAB
100
AcDbSymbolTableRecord
100
AcDbLayerTableRecord
  2
Dimension010
 70
    0
 62
    7
  6
CONTINUOUS
  0
LAYER
  5
BBB
330
BAB
100
AcDbSymbolTableRecord
100
AcDbLayerTableRecord
  2
Dimension011
 70
    0
 62
    7
  6
CONTINUOUS
  0
LAYER
  5
BBC
330
BAB
100
AcDbSymbolTableRecord
100
AcDbLayerTableRecord
  2
Dimension012
 70
    0
 62
    7
  6
CONTINUOUS
  0
LAYER
  5
BBD
330
BAB
100
AcDbSymbolTableRecord
100
AcDbLayerTableRecord
  2
Dimension013
 70
    0
 62
    7
  6
CONTINUOUS
  0
LAYER
  5
BBE
330
BAB
100
AcDbSymbolTableRecord
100
AcDbLayerTableRecord
  2
Dimension014
 70
    0
 62
    7
  6
CONTINUOUS
  0
ENDTAB
  0
TABLE
  2
STYLE
  5
70
330
0
100
AcDbSymbolTable
 70
     2
  0
STYLE
  5
71
330
70
100
AcDbSymbolTableRecord
100
AcDbTextStyleTableRecord
  2
STANDARD
 70
     0
 40
0.0
 41
1.0
 50
0.0
 71
     0
 42
2.5
  3
arial.ttf
  4

  0
STYLE
  5
72
330
70
100
AcDbSymbolTableRecord
100
AcDbTextStyleTableRecord
  2
ANNOTATIVE
 70
     0
 40
0.0
 41
1.0
 50
0.0
 71
     0
 42
2.5
  3
arial.ttf
  4

  0
ENDTAB
  0
TABLE
  2
VIEW
  5
73
330
0
100
AcDbSymbolTable
 70
     0
  0
ENDTAB
  0
TABLE
  2
UCS
  5
74
330
0
100
AcDbSymbolTable
 70
     0
  0
ENDTAB
  0
TABLE
  2
APPID
  5
75
330
0
100
AcDbSymbolTable
 70
     2
  0
APPID
  5
76
330
75
100
AcDbSymbolTableRecord
100
AcDbRegAppTableRecord
  2
ACAD
 70
     0
  0
APPID
  5
77
330
75
100
AcDbSymbolTableRecord
100
AcDbRegAppTableRecord
  2
ACADANNOTATIVE
 70
     0
  0
ENDTAB
  0
TABLE
  2
DIMSTYLE
  5
78
330
0
100
AcDbSymbolTable
 70
     2
  0
DIMSTYLE
105
79
330
78
100
AcDbSymbolTableRecord
100
AcDbDimStyleTableRecord
  2
STANDARD
 70
     0
  3

  4

  5

  6

  7

 40
0.0
 41
2.5
 42
0.625
 43
3.75
 44
1.25
 45
0.0
 46
0.0
 47
0.0
 48
0.0
140
2.5
141
2.5
142
0.0
143
0.03937007874016
144
1.0
145
0.0
146
1.0
147
0.625
 71
     0
 72
     0
 73
     0
 74
     0
 75
     0
 76
     0
 77
     1
 78
     8
170
     0
171
     3
172
     1
173
     0
174
     0
175
     0
176
     0
177
     0
178
     0
270
     2
271
     2
272
     2
273
     2
274
     3
340
71
275
     0
280
     0
281
     0
282
     0
283
     0
284
     8
285
     0
286
     0
287
     3
288
     0
  0
ENDTAB
  0
TABLE
  2
BLOCK_RECORD
  5
A01
330
0
100
AcDbSymbolTable
  70
5
  0
BLOCK_RECORD
  5
A02
330
A01
100
AcDbSymbolTableRecord
100
AcDbBlockTableRecord
  2
*MODEL_SPACE
  0
BLOCK_RECORD
  5
A03
330
A01
100
AcDbSymbolTableRecord
100
AcDbBlockTableRecord
  2
*PAPER_SPACE
  0
BLOCK_RECORD
  5
B2A
330
A01
100
AcDbSymbolTableRecord
100
AcDbBlockTableRecord
  2
*Dimension
  0
BLOCK_RECORD
  5
B34
330
A01
100
AcDbSymbolTableRecord
100
AcDbBlockTableRecord
  2
*Dimension001
  0
BLOCK_RECORD
  5
B3E
330
A01
100
AcDbSymbolTableRecord
100
AcDbBlockTableRecord
  2
*Dimension002
  0
BLOCK_RECORD
  5
B48
330
A01
100
AcDbSymbolTableRecord
100
AcDbBlockTableRecord
  2
*Dimension003
  0
BLOCK_RECORD
  5
B52
330
A01
100
AcDbSymbolTableRecord
100
AcDbBlockTableRecord
  2
*Dimension004
  0
BLOCK_RECORD
  5
B5C
330
A01
100
AcDbSymbolTableRecord
100
AcDbBlockTableRecord
  2
*Dimension005
  0
BLOCK_RECORD
  5
B64
330
A01
100
AcDbSymbolTableRecord
100
AcDbBlockTableRecord
  2
*Dimension007
  0
BLOCK_RECORD
  5
B6E
330
A01
100
AcDbSymbolTableRecord
100
AcDbBlockTableRecord
  2
*Dimension008
  0
BLOCK_RECORD
  5
B76
330
A01
100
AcDbSymbolTableRecord
100
AcDbBlockTableRecord
  2
*Dimension009
  0
BLOCK_RECORD
  5
B7E
330
A01
100
AcDbSymbolTableRecord
100
AcDbBlockTableRecord
  2
*Dimension010
  0
BLOCK_RECORD
  5
B88
330
A01
100
AcDbSymbolTableRecord
100
AcDbBlockTableRecord
  2
*Dimension011
  0
BLOCK_RECORD
  5
B90
330
A01
100
AcDbSymbolTableRecord
100
AcDbBlockTableRecord
  2
*Dimension012
  0
BLOCK_RECORD
  5
B9A
330
A01
100
AcDbSymbolTableRecord
100
AcDbBlockTableRecord
  2
*Dimension013
  0
BLOCK_RECORD
  5
BA4
330
A01
100
AcDbSymbolTableRecord
100
AcDbBlockTableRecord
  2
*Dimension014
  0
ENDTAB
  0
ENDSEC
  0
SECTION
  2
BLOCKS
  0
BLOCK
  5
A04
330
A02
100
AcDbEntity
  8
0
100
AcDbBlockBegin
  2
*MODEL_SPACE
 70
   0
 10
0
 20
0
 30
0
  3
*MODEL_SPACE
  1
 
  0
ENDBLK
  5
A05
330
A02
100
AcDbEntity
  8
0
100
AcDbBlockEnd
  0
BLOCK
  5
A06
330
A03
100
AcDbEntity
 67
1
  8
0
100
AcDbBlockBegin
  2
*PAPER_SPACE
 70
   0
 10
0
 20
0
 30
0
  3
*PAPER_SPACE
  1
 
  0
ENDBLK
  5
A07
330
A03
100
AcDbEntity
 67
    1
  8
0
100
AcDbBlockEnd
  0
BLOCK
  5
B2B
330
B2A
100
AcDbEntity
  8
Dimension
100
AcDbBlockBegin
  2
*Dimension
 70
   1
 10
0
 20
0
 30
0
  3
*Dimension
  1
 
  0
LINE
  5
B2C
330
B2A
100
AcDbEntity
  8
Dimension
100
AcDbLine
 10
22.6919
 20
146.576
 30
0
 11
22.6919
 21
140.829
 31
0
  0
LINE
  5
B2D
330
B2A
100
AcDbEntity
  8
Dimension
100
AcDbLine
 10
122.692
 20
146.576
 30
0
 11
122.692
 21
140.829
 31
0
  0
LINE
  5
B2E
330
B2A
100
AcDbEntity
  8
Dimension
100
AcDbLine
 10
122.692
 20
140.829
 30
0
 11
22.6919
 21
140.829
 31
0
  0
TEXT
  5
B2F
330
B2A
100
AcDbEntity
  8
Dimension
100
AcDbText
 10
73.2981
 20
135.829
 30
0
 40
3.5
  1
 mm
  7
STANDARD
 72
1
 11
73.2981
 21
140.829
 31
0
100
AcDbText
  0
SOLID
  5
B30
330
B2A
100
AcDbEntity
  8
0
 62
     0
100
AcDbTrace
 10
127.692
 20
140.412
 30
0
 11
127.692
 21
141.245
 31
0
 12
122.692
 22
140.829
 32
0
 13
122.692
 23
140.829
 33
0
  0
SOLID
  5
B31
330
B2A
100
AcDbEntity
  8
0
 62
     0
100
AcDbTrace
 10
17.6919
 20
140.412
 30
0
 11
17.6919
 21
141.245
 31
0
 12
22.6919
 22
140.829
 32
0
 13
22.6919
 23
140.829
 33
0
  0
ENDBLK
  5
B32
330
B2A
100
AcDbEntity
  8
Dimension
100
AcDbBlockEnd
  0
BLOCK
  5
B35
330
B34
100
AcDbEntity
  8
Dimension001
100
AcDbBlockBegin
  2
*Dimension001
 70
   1
 10
0
 20
0
 30
0
  3
*Dimension001
  1
 
  0
LINE
  5
B36
330
B34
100
AcDbEntity
  8
Dimension001
100
AcDbLine
 10
89.1919
 20
166.576
 30
0
 11
89.1919
 21
139.026
 31
0
  0
LINE
  5
B37
330
B34
100
AcDbEntity
  8
Dimension001
100
AcDbLine
 10
56.1919
 20
166.576
 30
0
 11
56.1919
 21
139.026
 31
0
  0
LINE
  5
B38
330
B34
100
AcDbEntity
  8
Dimension001
100
AcDbLine
 10
56.1919
 20
139.026
 30
0
 11
89.1919
 21
139.026
 31
0
  0
TEXT
  5
B39
330
B34
100
AcDbEntity
  8
Dimension001
100
AcDbText
 10
72.7511
 20
144.026
 30
0
 40
3.5
  1
 mm
  7
STANDARD
 72
1
 11
72.7511
 21
139.026
 31
0
100
AcDbText
  0
SOLID
  5
B3A
330
B34
100
AcDbEntity
  8
0
 62
     0
100
AcDbTrace
 10
51.1919
 20
138.609
 30
0
 11
51.1919
 21
139.443
 31
0
 12
56.1919
 22
139.026
 32
0
 13
56.1919
 23
139.026
 33
0
  0
SOLID
  5
B3B
330
B34
100
AcDbEntity
  8
0
 62
     0
100
AcDbTrace
 10
94.1919
 20
138.609
 30
0
 11
94.1919
 21
139.443
 31
0
 12
89.1919
 22
139.026
 32
0
 13
89.1919
 23
139.026
 33
0
  0
ENDBLK
  5
B3C
330
B34
100
AcDbEntity
  8
Dimension001
100
AcDbBlockEnd
  0
BLOCK
  5
B3F
330
B3E
100
AcDbEntity
  8
Dimension002
100
AcDbBlockBegin
  2
*Dimension002
 70
   1
 10
0
 20
0
 30
0
  3
*Dimension002
  1
 
  0
LINE
  5
B40
330
B3E
100
AcDbEntity
  8
Dimension002
100
AcDbLine
 10
85.1919
 20
190.576
 30
0
 11
85.1919
 21
193.854
 31
0
  0
LINE
  5
B41
330
B3E
100
AcDbEntity
  8
Dimension002
100
AcDbLine
 10
60.1919
 20
190.576
 30
0
 11
60.1919
 21
193.854
 31
0
  0
LINE
  5
B42
330
B3E
100
AcDbEntity
  8
Dimension002
100
AcDbLine
 10
60.1919
 20
193.854
 30
0
 11
85.1919
 21
193.854
 31
0
  0
TEXT
  5
B43
330
B3E
100
AcDbEntity
  8
Dimension002
100
AcDbText
 10
72.6919
 20
198.854
 30
0
 40
3.5
  1
 mm
  7
STANDARD
 72
1
 11
72.6919
 21
193.854
 31
0
100
AcDbText
  0
SOLID
  5
B44
330
B3E
100
AcDbEntity
  8
0
 62
     0
100
AcDbTrace
 10
65.1919
 20
193.437
 30
0
 11
65.1919
 21
194.271
 31
0
 12
60.1919
 22
193.854
 32
0
 13
60.1919
 23
193.854
 33
0
  0
SOLID
  5
B45
330
B3E
100
AcDbEntity
  8
0
 62
     0
100
AcDbTrace
 10
80.1919
 20
193.437
 30
0
 11
80.1919
 21
194.271
 31
0
 12
85.1919
 22
193.854
 32
0
 13
85.1919
 23
193.854
 33
0
  0
ENDBLK
  5
B46
330
B3E
100
AcDbEntity
  8
Dimension002
100
AcDbBlockEnd
  0
BLOCK
  5
B49
330
B48
100
AcDbEntity
  8
Dimension003
100
AcDbBlockBegin
  2
*Dimension003
 70
   1
 10
0
 20
0
 30
0
  3
*Dimension003
  1
 
  0
LINE
  5
B4A
330
B48
100
AcDbEntity
  8
Dimension003
100
AcDbLine
 10
216.441
 20
166.576
 30
0
 11
268.522
 21
166.576
 31
0
  0
LINE
  5
B4B
330
B48
100
AcDbEntity
  8
Dimension003
100
AcDbLine
 10
216.441
 20
190.576
 30
0
 11
268.522
 21
190.576
 31
0
  0
LINE
  5
B4C
330
B48
100
AcDbEntity
  8
Dimension003
100
AcDbLine
 10
268.522
 20
190.576
 30
0
 11
268.522
 21
166.576
 31
0
  0
TEXT
  5
B4D
330
B48
100
AcDbEntity
  8
Dimension003
100
AcDbText
 10
263.522
 20
177.848
 30
0
 40
3.5
  1
 mm
  7
STANDARD
 72
1
 11
268.522
 21
177.848
 31
0
100
AcDbText
  0
SOLID
  5
B4E
330
B48
100
AcDbEntity
  8
0
 62
     0
100
AcDbTrace
 10
268.939
 20
195.576
 30
0
 11
268.106
 21
195.576
 31
0
 12
268.522
 22
190.576
 32
0
 13
268.522
 23
190.576
 33
0
  0
SOLID
  5
B4F
330
B48
100
AcDbEntity
  8
0
 62
     0
100
AcDbTrace
 10
268.939
 20
161.576
 30
0
 11
268.106
 21
161.576
 31
0
 12
268.522
 22
166.576
 32
0
 13
268.522
 23
166.576
 33
0
  0
ENDBLK
  5
B50
330
B48
100
AcDbEntity
  8
Dimension003
100
AcDbBlockEnd
  0
BLOCK
  5
B53
330
B52
100
AcDbEntity
  8
Dimension004
100
AcDbBlockBegin
  2
*Dimension004
 70
   1
 10
0
 20
0
 30
0
  3
*Dimension004
  1
 
  0
LINE
  5
B54
330
B52
100
AcDbEntity
  8
Dimension004
100
AcDbLine
 10
252.191
 20
146.576
 30
0
 11
266.835
 21
146.576
 31
0
  0
LINE
  5
B55
330
B52
100
AcDbEntity
  8
Dimension004
100
AcDbLine
 10
228.441
 20
166.576
 30
0
 11
266.835
 21
166.576
 31
0
  0
LINE
  5
B56
330
B52
100
AcDbEntity
  8
Dimension004
100
AcDbLine
 10
266.835
 20
166.576
 30
0
 11
266.835
 21
146.576
 31
0
  0
TEXT
  5
B57
330
B52
100
AcDbEntity
  8
Dimension004
100
AcDbText
 10
263.614
 20
155.605
 30
0
 40
3.5
  1
 mm
  7
STANDARD
 72
1
 11
266.835
 21
151.781
 31
0
100
AcDbText
  0
SOLID
  5
B58
330
B52
100
AcDbEntity
  8
0
 62
     0
100
AcDbTrace
 10
267.251
 20
171.576
 30
0
 11
266.418
 21
171.576
 31
0
 12
266.835
 22
166.576
 32
0
 13
266.835
 23
166.576
 33
0
  0
SOLID
  5
B59
330
B52
100
AcDbEntity
  8
0
 62
     0
100
AcDbTrace
 10
267.251
 20
141.576
 30
0
 11
266.418
 21
141.576
 31
0
 12
266.835
 22
146.576
 32
0
 13
266.835
 23
146.576
 33
0
  0
ENDBLK
  5
B5A
330
B52
100
AcDbEntity
  8
Dimension004
100
AcDbBlockEnd
  0
BLOCK
  5
B5D
330
B5C
100
AcDbEntity
  8
Dimension005
100
AcDbBlockBegin
  2
*Dimension005
 70
   1
 10
0
 20
0
 30
0
  3
*Dimension005
  1
 
  0
LINE
  5
B5E
330
B5C
100
AcDbEntity
  8
Dimension005
100
AcDbLine
 10
98.6919
 20
68.0774
 30
0
 11
46.6919
 21
68.0774
 31
0
  0
TEXT
  5
B5F
330
B5C
100
AcDbEntity
  8
Dimension005
100
AcDbText
 10
32.8913
 20
70.5043
 30
0
 40
3.5
  1
⌀ mm
  7
STANDARD
 72
1
 11
32.8913
 21
70.5043
 31
0
100
AcDbText
  0
SOLID
  5
B60
330
B5C
100
AcDbEntity
  8
0
 62
     0
100
AcDbTrace
 10
93.6919
 20
67.6607
 30
0
 11
93.6919
 21
68.4941
 31
0
 12
98.6919
 22
68.0774
 32
0
 13
98.6919
 23
68.0774
 33
0
  0
SOLID
  5
B61
330
B5C
100
AcDbEntity
  8
0
 62
     0
100
AcDbTrace
 10
51.6919
 20
67.6607
 30
0
 11
51.6919
 21
68.4941
 31
0
 12
46.6919
 22
68.0774
 32
0
 13
46.6919
 23
68.0774
 33
0
  0
ENDBLK
  5
B62
330
B5C
100
AcDbEntity
  8
Dimension005
100
AcDbBlockEnd
  0
BLOCK
  5
B65
330
B64
100
AcDbEntity
  8
Dimension007
100
AcDbBlockBegin
  2
*Dimension007
 70
   1
 10
0
 20
0
 30
0
  3
*Dimension007
  1
 
  0
LINE
  5
B66
330
B64
100
AcDbEntity
  8
Dimension007
100
AcDbLine
 10
98.6919
 20
68.0774
 30
0
 11
141.06
 21
68.0774
 31
0
  0
LINE
  5
B67
330
B64
100
AcDbEntity
  8
Dimension007
100
AcDbLine
 10
89.1919
 20
80.0774
 30
0
 11
141.06
 21
80.0774
 31
0
  0
LINE
  5
B68
330
B64
100
AcDbEntity
  8
Dimension007
100
AcDbLine
 10
141.06
 20
80.0774
 30
0
 11
141.06
 21
68.0774
 31
0
  0
TEXT
  5
B69
330
B64
100
AcDbEntity
  8
Dimension007
100
AcDbText
 10
137.14
 20
75.7762
 30
0
 40
3.5
  1
 mm
  7
STANDARD
 72
1
 11
141.06
 21
72.6727
 31
0
100
AcDbText
  0
SOLID
  5
B6A
330
B64
100
AcDbEntity
  8
0
 62
     0
100
AcDbTrace
 10
141.477
 20
85.0774
 30
0
 11
140.644
 21
85.0774
 31
0
 12
141.06
 22
80.0774
 32
0
 13
141.06
 23
80.0774
 33
0
  0
SOLID
  5
B6B
330
B64
100
AcDbEntity
  8
0
 62
     0
100
AcDbTrace
 10
141.477
 20
63.0774
 30
0
 11
140.644
 21
63.0774
 31
0
 12
141.06
 22
68.0774
 32
0
 13
141.06
 23
68.0774
 33
0
  0
ENDBLK
  5
B6C
330
B64
100
AcDbEntity
  8
Dimension007
100
AcDbBlockEnd
  0
BLOCK
  5
B6F
330
B6E
100
AcDbEntity
  8
Dimension008
100
AcDbBlockBegin
  2
*Dimension008
 70
   1
 10
0
 20
0
 30
0
  3
*Dimension008
  1
 
  0
LINE
  5
B70
330
B6E
100
AcDbEntity
  8
Dimension008
100
AcDbLine
 10
103.126
 20
58.1889
 30
0
 11
72.6919
 21
68.0774
 31
0
  0
TEXT
  5
B71
330
B6E
100
AcDbEntity
  8
Dimension008
100
AcDbText
 10
34.5901
 20
84.0947
 30
0
 40
3.5
  1
⌀ mm
  7
STANDARD
 72
1
 11
34.5901
 21
84.0947
 31
0
100
AcDbText
  0
SOLID
  5
B72
330
B6E
100
AcDbEntity
  8
0
 62
     0
100
AcDbTrace
 10
98.2417
 20
59.3377
 30
0
 11
98.4992
 21
60.1302
 31
0
 12
103.126
 22
58.1889
 32
0
 13
103.126
 23
58.1889
 33
0
  0
SOLID
  5
B73
330
B6E
100
AcDbEntity
  8
0
 62
     0
100
AcDbTrace
 10
77.3184
 20
66.1361
 30
0
 11
77.576
 21
66.9286
 31
0
 12
72.6919
 22
68.0774
 32
0
 13
72.6919
 23
68.0774
 33
0
  0
ENDBLK
  5
B74
330
B6E
100
AcDbEntity
  8
Dimension008
100
AcDbBlockEnd
  0
BLOCK
  5
B77
330
B76
100
AcDbEntity
  8
Dimension009
100
AcDbBlockBegin
  2
*Dimension009
 70
   1
 10
0
 20
0
 30
0
  3
*Dimension009
  1
 
  0
LINE
  5
B78
330
B76
100
AcDbEntity
  8
Dimension009
100
AcDbLine
 10
57.2411
 20
115.63
 30
0
 11
72.6919
 21
68.0774
 31
0
  0
TEXT
  5
B79
330
B76
100
AcDbEntity
  8
Dimension009
100
AcDbText
 10
128.267
 20
109.82
 30
0
 40
3.5
  1
⌀ mm
  7
STANDARD
 72
1
 11
128.267
 21
109.82
 31
0
100
AcDbText
  0
SOLID
  5
B7A
330
B76
100
AcDbEntity
  8
0
 62
     0
100
AcDbTrace
 10
59.1824
 20
111.004
 30
0
 11
58.3899
 21
110.746
 31
0
 12
57.2411
 22
115.63
 32
0
 13
57.2411
 23
115.63
 33
0
  0
SOLID
  5
B7B
330
B76
100
AcDbEntity
  8
0
 62
     0
100
AcDbTrace
 10
71.5431
 20
72.9615
 30
0
 11
70.7506
 21
72.7039
 31
0
 12
72.6919
 22
68.0774
 32
0
 13
72.6919
 23
68.0774
 33
0
  0
ENDBLK
  5
B7C
330
B76
100
AcDbEntity
  8
Dimension009
100
AcDbBlockEnd
  0
BLOCK
  5
B7F
330
B7E
100
AcDbEntity
  8
Dimension010
100
AcDbBlockBegin
  2
*Dimension010
 70
   1
 10
0
 20
0
 30
0
  3
*Dimension010
  1
 
  0
LINE
  5
B80
330
B7E
100
AcDbEntity
  8
Dimension010
100
AcDbLine
 10
77.6919
 20
117.827
 30
0
 11
77.6919
 21
126.082
 31
0
  0
LINE
  5
B81
330
B7E
100
AcDbEntity
  8
Dimension010
100
AcDbLine
 10
67.6919
 20
117.827
 30
0
 11
67.6919
 21
126.082
 31
0
  0
LINE
  5
B82
330
B7E
100
AcDbEntity
  8
Dimension010
100
AcDbLine
 10
67.6919
 20
126.082
 30
0
 11
77.6919
 21
126.082
 31
0
  0
TEXT
  5
B83
330
B7E
100
AcDbEntity
  8
Dimension010
100
AcDbText
 10
73.2484
 20
131.082
 30
0
 40
3.5
  1
 mm
  7
STANDARD
 72
1
 11
73.2484
 21
126.082
 31
0
100
AcDbText
  0
SOLID
  5
B84
330
B7E
100
AcDbEntity
  8
0
 62
     0
100
AcDbTrace
 10
62.6919
 20
126.499
 30
0
 11
62.6919
 21
125.665
 31
0
 12
67.6919
 22
126.082
 32
0
 13
67.6919
 23
126.082
 33
0
  0
SOLID
  5
B85
330
B7E
100
AcDbEntity
  8
0
 62
     0
100
AcDbTrace
 10
82.6919
 20
126.499
 30
0
 11
82.6919
 21
125.665
 31
0
 12
77.6919
 22
126.082
 32
0
 13
77.6919
 23
126.082
 33
0
  0
ENDBLK
  5
B86
330
B7E
100
AcDbEntity
  8
Dimension010
100
AcDbBlockEnd
  0
BLOCK
  5
B89
330
B88
100
AcDbEntity
  8
Dimension011
100
AcDbBlockBegin
  2
*Dimension011
 70
   1
 10
0
 20
0
 30
0
  3
*Dimension011
  1
 
  0
ARC
  5
B8A
330
B88
100
AcDbEntity
  8
0
100
AcDbCircle
 10
67.6919
 20
83.4658
 30
0
 40
47.6456
100
AcDbArc
 50
90
 51
126
  0
TEXT
  5
B8B
330
B88
100
AcDbEntity
  8
Dimension011
100
AcDbText
 10
35.4644
 20
112.319
 30
0
 40
3.5
  1
 °
  7
STANDARD
 72
1
 11
35.4644
 21
112.319
 31
0
100
AcDbText
  0
SOLID
  5
B8C
330
B88
100
AcDbEntity
  8
0
 62
     0
100
AcDbTrace
 10
44.0561
 20
124.478
 30
0
 11
43.5877
 21
125.167
 31
0
 12
39.6865
 22
122.012
 32
0
 13
39.6865
 23
122.012
 33
0
  0
SOLID
  5
B8D
330
B88
100
AcDbEntity
  8
0
 62
     0
100
AcDbTrace
 10
62.6813
 20
131.371
 30
0
 11
62.7075
 21
130.538
 31
0
 12
67.6919
 22
131.111
 32
0
 13
67.6919
 23
131.111
 33
0
  0
ENDBLK
  5
B8E
330
B88
100
AcDbEntity
  8
Dimension011
100
AcDbBlockEnd
  0
BLOCK
  5
B91
330
B90
100
AcDbEntity
  8
Dimension012
100
AcDbBlockBegin
  2
*Dimension012
 70
   1
 10
0
 20
0
 30
0
  3
*Dimension012
  1
 
  0
LINE
  5
B92
330
B90
100
AcDbEntity
  8
Dimension012
100
AcDbLine
 10
188.441
 20
190.576
 30
0
 11
188.441
 21
203.469
 31
0
  0
LINE
  5
B93
330
B90
100
AcDbEntity
  8
Dimension012
100
AcDbLine
 10
190.441
 20
190.576
 30
0
 11
190.441
 21
203.469
 31
0
  0
LINE
  5
B94
330
B90
100
AcDbEntity
  8
Dimension012
100
AcDbLine
 10
190.441
 20
203.469
 30
0
 11
188.441
 21
203.469
 31
0
  0
TEXT
  5
B95
330
B90
100
AcDbEntity
  8
Dimension012
100
AcDbText
 10
158.975
 20
198.469
 30
0
 40
3.5
  1
 mm
  7
STANDARD
 72
1
 11
158.975
 21
203.469
 31
0
100
AcDbText
  0
SOLID
  5
B96
330
B90
100
AcDbEntity
  8
0
 62
     0
100
AcDbTrace
 10
195.441
 20
203.886
 30
0
 11
195.441
 21
203.052
 31
0
 12
190.441
 22
203.469
 32
0
 13
190.441
 23
203.469
 33
0
  0
SOLID
  5
B97
330
B90
100
AcDbEntity
  8
0
 62
     0
100
AcDbTrace
 10
183.441
 20
203.886
 30
0
 11
183.441
 21
203.052
 31
0
 12
188.441
 22
203.469
 32
0
 13
188.441
 23
203.469
 33
0
  0
ENDBLK
  5
B98
330
B90
100
AcDbEntity
  8
Dimension012
100
AcDbBlockEnd
  0
BLOCK
  5
B9B
330
B9A
100
AcDbEntity
  8
Dimension013
100
AcDbBlockBegin
  2
*Dimension013
 70
   1
 10
0
 20
0
 30
0
  3
*Dimension013
  1
 
  0
LINE
  5
B9C
330
B9A
100
AcDbEntity
  8
Dimension013
100
AcDbLine
 10
216.441
 20
190.576
 30
0
 11
216.441
 21
194.307
 31
0
  0
LINE
  5
B9D
330
B9A
100
AcDbEntity
  8
Dimension013
100
AcDbLine
 10
188.441
 20
190.576
 30
0
 11
188.441
 21
194.307
 31
0
  0
LINE
  5
B9E
330
B9A
100
AcDbEntity
  8
Dimension013
100
AcDbLine
 10
188.441
 20
194.307
 30
0
 11
216.441
 21
194.307
 31
0
  0
TEXT
  5
B9F
330
B9A
100
AcDbEntity
  8
Dimension013
100
AcDbText
 10
230.473
 20
199.307
 30
0
 40
3.5
  1
 mm
  7
STANDARD
 72
1
 11
230.473
 21
194.307
 31
0
100
AcDbText
  0
SOLID
  5
BA0
330
B9A
100
AcDbEntity
  8
0
 62
     0
100
AcDbTrace
 10
183.441
 20
194.724
 30
0
 11
183.441
 21
193.891
 31
0
 12
188.441
 22
194.307
 32
0
 13
188.441
 23
194.307
 33
0
  0
SOLID
  5
BA1
330
B9A
100
AcDbEntity
  8
0
 62
     0
100
AcDbTrace
 10
221.441
 20
194.724
 30
0
 11
221.441
 21
193.891
 31
0
 12
216.441
 22
194.307
 32
0
 13
216.441
 23
194.307
 33
0
  0
ENDBLK
  5
BA2
330
B9A
100
AcDbEntity
  8
Dimension013
100
AcDbBlockEnd
  0
BLOCK
  5
BA5
330
BA4
100
AcDbEntity
  8
Dimension014
100
AcDbBlockBegin
  2
*Dimension014
 70
   1
 10
0
 20
0
 30
0
  3
*Dimension014
  1
 
  0
LINE
  5
BA6
330
BA4
100
AcDbEntity
  8
Dimension014
100
AcDbLine
 10
83.6919
 20
184.576
 30
0
 11
79.6919
 21
184.576
 31
0
  0
TEXT
  5
BA7
330
BA4
100
AcDbEntity
  8
Dimension014
100
AcDbText
 10
102.769
 20
192.849
 30
0
 40
3.5
  1
14x ⌀ mm
  7
STANDARD
 72
1
 11
102.769
 21
192.849
 31
0
100
AcDbText
  0
SOLID
  5
BA8
330
BA4
100
AcDbEntity
  8
0
 62
     0
100
AcDbTrace
 10
78.6919
 20
184.159
 30
0
 11
78.6919
 21
184.993
 31
0
 12
83.6919
 22
184.576
 32
0
 13
83.6919
 23
184.576
 33
0
  0
SOLID
  5
BA9
330
BA4
100
AcDbEntity
  8
0
 62
     0
100
AcDbTrace
 10
84.6919
 20
184.159
 30
0
 11
84.6919
 21
184.993
 31
0
 12
79.6919
 22
184.576
 32
0
 13
79.6919
 23
184.576
 33
0
  0
ENDBLK
  5
BAA
330
BA4
100
AcDbEntity
  8
Dimension014
100
AcDbBlockEnd
  0
ENDSEC
  0
SECTION
  2
ENTITIES
  0
SPLINE
  5
A08
330
A02
100
AcDbEntity
  8
ProjItem
100
AcDbSpline
210
0
220
0
230
1
 70
8
 71
2
 72
30
 73
27
 74
0
 40
4.81256
 40
4.81256
 40
4.81256
 40
4.84313
 40
4.84313
 40
4.90427
 40
4.90427
 40
4.93484
 40
4.93484
 40
4.96541
 40
4.96541
 40
4.99598
 40
4.99598
 40
5.02655
 40
5.02655
 40
5.05712
 40
5.05712
 40
5.08769
 40
5.08769
 40
5.11826
 40
5.11826
 40
5.14883
 40
5.14883
 40
5.1794
 40
5.1794
 40
5.20997
 40
5.20997
 40
5.24054
 40
5.24054
 40
5.24054
 10
77.6919
 20
146.576
 30
0
 10
78.4511
 20
146.576
 30
0
 10
79.2102
 20
146.576
 30
0
 10
80.7245
 20
146.576
 30
0
 10
82.2271
 20
146.576
 30
0
 10
82.975
 20
146.576
 30
0
 10
83.7228
 20
146.576
 30
0
 10
84.4656
 20
146.576
 30
0
 10
85.2083
 20
146.576
 30
0
 10
85.9452
 20
146.576
 30
0
 10
86.6821
 20
146.576
 30
0
 10
87.4124
 20
146.576
 30
0
 10
88.1428
 20
146.576
 30
0
 10
88.8659
 20
146.576
 30
0
 10
89.589
 20
146.576
 30
0
 10
90.3043
 20
146.576
 30
0
 10
91.0195
 20
146.576
 30
0
 10
91.7262
 20
146.576
 30
0
 10
92.4328
 20
146.576
 30
0
 10
93.1303
 20
146.576
 30
0
 10
93.8277
 20
146.576
 30
0
 10
94.5153
 20
146.576
 30
0
 10
95.2029
 20
146.576
 30
0
 10
95.8799
 20
146.576
 30
0
 10
96.557
 20
146.576
 30
0
 10
97.2229
 20
146.576
 30
0
 10
97.8888
 20
146.576
 30
0
  0
SPLINE
  5
A09
330
A02
100
AcDbEntity
  8
ProjItem
100
AcDbSpline
210
0
220
0
230
1
 70
8
 71
1
 72
17
 73
15
 74
0
 40
2.54329
 40
2.54329
 40
2.57542
 40
2.60756
 40
2.6397
 40
2.67184
 40
2.70398
 40
2.73612
 40
2.76825
 40
2.80039
 40
2.83253
 40
2.86467
 40
2.89681
 40
2.92895
 40
2.96108
 40
2.99322
 40
2.99322
 10
77.6919
 20
161.576
 30
0
 10
77.6919
 20
160.716
 30
0
 10
77.6919
 20
159.827
 30
0
 10
77.6919
 20
158.909
 30
0
 10
77.6919
 20
157.96
 30
0
 10
77.6919
 20
156.98
 30
0
 10
77.6919
 20
155.968
 30
0
 10
77.6919
 20
154.923
 30
0
 10
77.6919
 20
153.843
 30
0
 10
77.6919
 20
152.728
 30
0
 10
77.6919
 20
151.576
 30
0
 10
77.6919
 20
150.386
 30
0
 10
77.6919
 20
149.157
 30
0
 10
77.6919
 20
147.887
 30
0
 10
77.6919
 20
146.576
 30
0
  0
SPLINE
  5
A0A
330
A02
100
AcDbEntity
  8
ProjItem
100
AcDbSpline
210
0
220
0
230
1
 70
8
 71
1
 72
17
 73
15
 74
0
 40
-2.99322
 40
-2.99322
 40
-2.96108
 40
-2.92895
 40
-2.89681
 40
-2.86467
 40
-2.83253
 40
-2.80039
 40
-2.76825
 40
-2.73612
 40
-2.70398
 40
-2.67184
 40
-2.6397
 40
-2.60756
 40
-2.57542
 40
-2.54329
 40
-2.54329
 10
97.8888
 20
146.576
 30
0
 10
96.9592
 20
147.887
 30
0
 10
96.0589
 20
149.157
 30
0
 10
95.1868
 20
150.386
 30
0
 10
94.3422
 20
151.576
 30
0
 10
93.5242
 20
152.728
 30
0
 10
92.7318
 20
153.843
 30
0
 10
91.9643
 20
154.923
 30
0
 10
91.2209
 20
155.968
 30
0
 10
90.5008
 20
156.98
 30
0
 10
89.8033
 20
157.96
 30
0
 10
89.1277
 20
158.909
 30
0
 10
88.4732
 20
159.827
 30
0
 10
87.8391
 20
160.716
 30
0
 10
87.2249
 20
161.576
 30
0
  0
SPLINE
  5
A0B
330
A02
100
AcDbEntity
  8
ProjItem
100
AcDbSpline
210
0
220
0
230
1
 70
8
 71
1
 72
17
 73
15
 74
0
 40
-2.99322
 40
-2.99322
 40
-2.96108
 40
-2.92895
 40
-2.89681
 40
-2.86467
 40
-2.83253
 40
-2.80039
 40
-2.76825
 40
-2.73612
 40
-2.70398
 40
-2.67184
 40
-2.6397
 40
-2.60756
 40
-2.57542
 40
-2.54329
 40
-2.54329
 10
118.461
 20
146.576
 30
0
 10
116.957
 20
147.887
 30
0
 10
115.5
 20
149.157
 30
0
 10
114.089
 20
150.386
 30
0
 10
112.723
 20
151.576
 30
0
 10
111.399
 20
152.728
 30
0
 10
110.117
 20
153.843
 30
0
 10
108.875
 20
154.923
 30
0
 10
107.672
 20
155.968
 30
0
 10
106.507
 20
156.98
 30
0
 10
105.379
 20
157.96
 30
0
 10
104.286
 20
158.909
 30
0
 10
103.226
 20
159.827
 30
0
 10
102.201
 20
160.716
 30
0
 10
101.207
 20
161.576
 30
0
  0
SPLINE
  5
A0C
330
A02
100
AcDbEntity
  8
ProjItem
100
AcDbSpline
210
0
220
0
230
1
 70
8
 71
1
 72
17
 73
15
 74
0
 40
5.44087
 40
5.44087
 40
5.47145
 40
5.50202
 40
5.53259
 40
5.56316
 40
5.59373
 40
5.6243
 40
5.65487
 40
5.68544
 40
5.71601
 40
5.74658
 40
5.77715
 40
5.80772
 40
5.83829
 40
5.86886
 40
5.86886
 10
105.979
 20
146.576
 30
0
 10
107.104
 20
146.576
 30
0
 10
108.196
 20
146.576
 30
0
 10
109.256
 20
146.576
 30
0
 10
110.281
 20
146.576
 30
0
 10
111.271
 20
146.576
 30
0
 10
112.226
 20
146.576
 30
0
 10
113.143
 20
146.576
 30
0
 10
114.022
 20
146.576
 30
0
 10
114.863
 20
146.576
 30
0
 10
115.664
 20
146.576
 30
0
 10
116.426
 20
146.576
 30
0
 10
117.146
 20
146.576
 30
0
 10
117.825
 20
146.576
 30
0
 10
118.461
 20
146.576
 30
0
  0
SPLINE
  5
A0D
330
A02
100
AcDbEntity
  8
ProjItem
100
AcDbSpline
210
0
220
0
230
1
 70
8
 71
1
 72
17
 73
15
 74
0
 40
2.54329
 40
2.54329
 40
2.57542
 40
2.60756
 40
2.6397
 40
2.67184
 40
2.70398
 40
2.73612
 40
2.76825
 40
2.80039
 40
2.83253
 40
2.86467
 40
2.89681
 40
2.92895
 40
2.96108
 40
2.99322
 40
2.99322
 10
95.3151
 20
161.576
 30
0
 10
95.9293
 20
160.716
 30
0
 10
96.5633
 20
159.827
 30
0
 10
97.2178
 20
158.909
 30
0
 10
97.8935
 20
157.96
 30
0
 10
98.591
 20
156.98
 30
0
 10
99.3111
 20
155.968
 30
0
 10
100.054
 20
154.923
 30
0
 10
100.822
 20
153.843
 30
0
 10
101.614
 20
152.728
 30
0
 10
102.432
 20
151.576
 30
0
 10
103.277
 20
150.386
 30
0
 10
104.149
 20
149.157
 30
0
 10
105.049
 20
147.887
 30
0
 10
105.979
 20
146.576
 30
0
  0
SPLINE
  5
A0E
330
A02
100
AcDbEntity
  8
ProjItem
100
AcDbSpline
210
0
220
0
230
1
 70
8
 71
2
 72
30
 73
27
 74
0
 40
5.18381
 40
5.18381
 40
5.18381
 40
5.20623
 40
5.20623
 40
5.25105
 40
5.25105
 40
5.27347
 40
5.27347
 40
5.29588
 40
5.29588
 40
5.31829
 40
5.31829
 40
5.34071
 40
5.34071
 40
5.36312
 40
5.36312
 40
5.38553
 40
5.38553
 40
5.40795
 40
5.40795
 40
5.43036
 40
5.43036
 40
5.45277
 40
5.45277
 40
5.47519
 40
5.47519
 40
5.4976
 40
5.4976
 40
5.4976
 10
87.2249
 20
161.576
 30
0
 10
87.5426
 20
161.576
 30
0
 10
87.8602
 20
161.576
 30
0
 10
88.4901
 20
161.576
 30
0
 10
89.1076
 20
161.576
 30
0
 10
89.4134
 20
161.576
 30
0
 10
89.7191
 20
161.576
 30
0
 10
90.0206
 20
161.576
 30
0
 10
90.3221
 20
161.576
 30
0
 10
90.6191
 20
161.576
 30
0
 10
90.9161
 20
161.576
 30
0
 10
91.2086
 20
161.576
 30
0
 10
91.5011
 20
161.576
 30
0
 10
91.7888
 20
161.576
 30
0
 10
92.0765
 20
161.576
 30
0
 10
92.3594
 20
161.576
 30
0
 10
92.6423
 20
161.576
 30
0
 10
92.9201
 20
161.576
 30
0
 10
93.198
 20
161.576
 30
0
 10
93.4707
 20
161.576
 30
0
 10
93.7434
 20
161.576
 30
0
 10
94.0108
 20
161.576
 30
0
 10
94.2782
 20
161.576
 30
0
 10
94.5402
 20
161.576
 30
0
 10
94.8022
 20
161.576
 30
0
 10
95.0587
 20
161.576
 30
0
 10
95.3151
 20
161.576
 30
0
  0
SPLINE
  5
A0F
330
A02
100
AcDbEntity
  8
ProjItem
100
AcDbSpline
210
0
220
0
230
1
 70
8
 71
3
 72
8
 73
4
 74
0
 40
4.5555
 40
4.5555
 40
4.5555
 40
4.5555
 40
4.86928
 40
4.86928
 40
4.86928
 40
4.86928
 10
67.6919
 20
161.576
 30
0
 10
70.9984
 20
161.576
 30
0
 10
74.3855
 20
161.576
 30
0
 10
77.6919
 20
161.576
 30
0
  0
SPLINE
  5
A10
330
A02
100
AcDbEntity
  8
ProjItem
100
AcDbSpline
210
0
220
0
230
1
 70
8
 71
1
 72
17
 73
15
 74
0
 40
-2.99322
 40
-2.99322
 40
-2.96108
 40
-2.92895
 40
-2.89681
 40
-2.86467
 40
-2.83253
 40
-2.80039
 40
-2.76825
 40
-2.73612
 40
-2.70398
 40
-2.67184
 40
-2.6397
 40
-2.60756
 40
-2.57542
 40
-2.54329
 40
-2.54329
 10
67.6919
 20
146.576
 30
0
 10
67.6919
 20
147.887
 30
0
 10
67.6919
 20
149.157
 30
0
 10
67.6919
 20
150.386
 30
0
 10
67.6919
 20
151.576
 30
0
 10
67.6919
 20
152.728
 30
0
 10
67.6919
 20
153.843
 30
0
 10
67.6919
 20
154.923
 30
0
 10
67.6919
 20
155.968
 30
0
 10
67.6919
 20
156.98
 30
0
 10
67.6919
 20
157.96
 30
0
 10
67.6919
 20
158.909
 30
0
 10
67.6919
 20
159.827
 30
0
 10
67.6919
 20
160.716
 30
0
 10
67.6919
 20
161.576
 30
0
  0
SPLINE
  5
A11
330
A02
100
AcDbEntity
  8
ProjItem
100
AcDbSpline
210
0
220
0
230
1
 70
8
 71
2
 72
30
 73
27
 74
0
 40
4.18424
 40
4.18424
 40
4.18424
 40
4.21481
 40
4.21481
 40
4.24538
 40
4.24538
 40
4.27595
 40
4.27595
 40
4.30652
 40
4.30652
 40
4.33709
 40
4.33709
 40
4.36766
 40
4.36766
 40
4.39823
 40
4.39823
 40
4.4288
 40
4.4288
 40
4.45937
 40
4.45937
 40
4.48994
 40
4.48994
 40
4.52051
 40
4.52051
 40
4.55108
 40
4.55108
 40
4.61222
 40
4.61222
 40
4.61222
 10
47.4951
 20
146.576
 30
0
 10
48.161
 20
146.576
 30
0
 10
48.8269
 20
146.576
 30
0
 10
49.5039
 20
146.576
 30
0
 10
50.181
 20
146.576
 30
0
 10
50.8685
 20
146.576
 30
0
 10
51.5561
 20
146.576
 30
0
 10
52.2536
 20
146.576
 30
0
 10
52.951
 20
146.576
 30
0
 10
53.6577
 20
146.576
 30
0
 10
54.3643
 20
146.576
 30
0
 10
55.0796
 20
146.576
 30
0
 10
55.7948
 20
146.576
 30
0
 10
56.5179
 20
146.576
 30
0
 10
57.2411
 20
146.576
 30
0
 10
57.9714
 20
146.576
 30
0
 10
58.7018
 20
146.576
 30
0
 10
59.4387
 20
146.576
 30
0
 10
60.1755
 20
146.576
 30
0
 10
60.9183
 20
146.576
 30
0
 10
61.661
 20
146.576
 30
0
 10
62.4089
 20
146.576
 30
0
 10
63.1568
 20
146.576
 30
0
 10
63.9091
 20
146.576
 30
0
 10
64.6615
 20
146.576
 30
0
 10
66.1719
 20
146.576
 30
0
 10
67.6919
 20
146.576
 30
0
  0
SPLINE
  5
A12
330
A02
100
AcDbEntity
  8
ProjItem
100
AcDbSpline
210
0
220
0
230
1
 70
8
 71
1
 72
17
 73
15
 74
0
 40
2.54329
 40
2.54329
 40
2.57542
 40
2.60756
 40
2.6397
 40
2.67184
 40
2.70398
 40
2.73612
 40
2.76825
 40
2.80039
 40
2.83253
 40
2.86467
 40
2.89681
 40
2.92895
 40
2.96108
 40
2.99322
 40
2.99322
 10
58.1589
 20
161.576
 30
0
 10
57.5447
 20
160.716
 30
0
 10
56.9107
 20
159.827
 30
0
 10
56.2562
 20
158.909
 30
0
 10
55.5805
 20
157.96
 30
0
 10
54.883
 20
156.98
 30
0
 10
54.1629
 20
155.968
 30
0
 10
53.4195
 20
154.923
 30
0
 10
52.652
 20
153.843
 30
0
 10
51.8597
 20
152.728
 30
0
 10
51.0416
 20
151.576
 30
0
 10
50.197
 20
150.386
 30
0
 10
49.325
 20
149.157
 30
0
 10
48.4246
 20
147.887
 30
0
 10
47.4951
 20
146.576
 30
0
  0
SPLINE
  5
A13
330
A02
100
AcDbEntity
  8
ProjItem
100
AcDbSpline
210
0
220
0
230
1
 70
8
 71
2
 72
30
 73
27
 74
0
 40
3.92718
 40
3.92718
 40
3.92718
 40
3.94959
 40
3.94959
 40
3.972
 40
3.972
 40
3.99442
 40
3.99442
 40
4.01683
 40
4.01683
 40
4.03924
 40
4.03924
 40
4.06166
 40
4.06166
 40
4.08407
 40
4.08407
 40
4.10648
 40
4.10648
 40
4.1289
 40
4.1289
 40
4.15131
 40
4.15131
 40
4.17372
 40
4.17372
 40
4.19614
 40
4.19614
 40
4.24096
 40
4.24096
 40
4.24096
 10
50.0687
 20
161.576
 30
0
 10
50.3252
 20
161.576
 30
0
 10
50.5816
 20
161.576
 30
0
 10
50.8436
 20
161.576
 30
0
 10
51.1056
 20
161.576
 30
0
 10
51.373
 20
161.576
 30
0
 10
51.6405
 20
161.576
 30
0
 10
51.9132
 20
161.576
 30
0
 10
52.1859
 20
161.576
 30
0
 10
52.4637
 20
161.576
 30
0
 10
52.7416
 20
161.576
 30
0
 10
53.0245
 20
161.576
 30
0
 10
53.3073
 20
161.576
 30
0
 10
53.5951
 20
161.576
 30
0
 10
53.8828
 20
161.576
 30
0
 10
54.1753
 20
161.576
 30
0
 10
54.4677
 20
161.576
 30
0
 10
54.7648
 20
161.576
 30
0
 10
55.0618
 20
161.576
 30
0
 10
55.3633
 20
161.576
 30
0
 10
55.6647
 20
161.576
 30
0
 10
55.9705
 20
161.576
 30
0
 10
56.2762
 20
161.576
 30
0
 10
56.5861
 20
161.576
 30
0
 10
56.8959
 20
161.576
 30
0
 10
57.5215
 20
161.576
 30
0
 10
58.1589
 20
161.576
 30
0
  0
SPLINE
  5
A14
330
A02
100
AcDbEntity
  8
ProjItem
100
AcDbSpline
210
0
220
0
230
1
 70
8
 71
1
 72
17
 73
15
 74
0
 40
-2.99322
 40
-2.99322
 40
-2.96108
 40
-2.92895
 40
-2.89681
 40
-2.86467
 40
-2.83253
 40
-2.80039
 40
-2.76825
 40
-2.73612
 40
-2.70398
 40
-2.67184
 40
-2.6397
 40
-2.60756
 40
-2.57542
 40
-2.54329
 40
-2.54329
 10
39.4049
 20
146.576
 30
0
 10
40.3345
 20
147.887
 30
0
 10
41.2348
 20
149.157
 30
0
 10
42.1068
 20
150.386
 30
0
 10
42.9514
 20
151.576
 30
0
 10
43.7695
 20
152.728
 30
0
 10
44.5619
 20
153.843
 30
0
 10
45.3294
 20
154.923
 30
0
 10
46.0728
 20
155.968
 30
0
 10
46.7929
 20
156.98
 30
0
 10
47.4904
 20
157.96
 30
0
 10
48.166
 20
158.909
 30
0
 10
48.8205
 20
159.827
 30
0
 10
49.4545
 20
160.716
 30
0
 10
50.0687
 20
161.576
 30
0
  0
SPLINE
  5
A15
330
A02
100
AcDbEntity
  8
ProjItem
100
AcDbSpline
210
0
220
0
230
1
 70
8
 71
1
 72
17
 73
15
 74
0
 40
3.55592
 40
3.55592
 40
3.58649
 40
3.61706
 40
3.64763
 40
3.6782
 40
3.70877
 40
3.73934
 40
3.76991
 40
3.80048
 40
3.83105
 40
3.86162
 40
3.89219
 40
3.92276
 40
3.95333
 40
3.9839
 40
3.9839
 10
26.9225
 20
146.576
 30
0
 10
27.5592
 20
146.576
 30
0
 10
28.238
 20
146.576
 30
0
 10
28.9583
 20
146.576
 30
0
 10
29.7195
 20
146.576
 30
0
 10
30.5209
 20
146.576
 30
0
 10
31.3617
 20
146.576
 30
0
 10
32.2411
 20
146.576
 30
0
 10
33.1583
 20
146.576
 30
0
 10
34.1124
 20
146.576
 30
0
 10
35.1026
 20
146.576
 30
0
 10
36.1279
 20
146.576
 30
0
 10
37.1874
 20
146.576
 30
0
 10
38.2801
 20
146.576
 30
0
 10
39.4049
 20
146.576
 30
0
  0
SPLINE
  5
A16
330
A02
100
AcDbEntity
  8
ProjItem
100
AcDbSpline
210
0
220
0
230
1
 70
8
 71
1
 72
17
 73
15
 74
0
 40
2.54329
 40
2.54329
 40
2.57542
 40
2.60756
 40
2.6397
 40
2.67184
 40
2.70398
 40
2.73612
 40
2.76825
 40
2.80039
 40
2.83253
 40
2.86467
 40
2.89681
 40
2.92895
 40
2.96108
 40
2.99322
 40
2.99322
 10
44.177
 20
161.576
 30
0
 10
43.1832
 20
160.716
 30
0
 10
42.1573
 20
159.827
 30
0
 10
41.0983
 20
158.909
 30
0
 10
40.0051
 20
157.96
 30
0
 10
38.8765
 20
156.98
 30
0
 10
37.7114
 20
155.968
 30
0
 10
36.5085
 20
154.923
 30
0
 10
35.2667
 20
153.843
 30
0
 10
33.9846
 20
152.728
 30
0
 10
32.661
 20
151.576
 30
0
 10
31.2944
 20
150.386
 30
0
 10
29.8834
 20
149.157
 30
0
 10
28.4266
 20
147.887
 30
0
 10
26.9225
 20
146.576
 30
0
  0
SPLINE
  5
A17
330
A02
100
AcDbEntity
  8
ProjItem
100
AcDbSpline
210
0
220
0
230
1
 70
8
 71
1
 72
17
 73
15
 74
0
 40
3.29886
 40
3.29886
 40
3.32127
 40
3.34369
 40
3.3661
 40
3.38851
 40
3.41093
 40
3.43334
 40
3.45575
 40
3.47817
 40
3.50058
 40
3.52299
 40
3.5454
 40
3.56782
 40
3.59023
 40
3.61264
 40
3.61264
 10
41.0868
 20
161.576
 30
0
 10
41.2071
 20
161.576
 30
0
 10
41.3432
 20
161.576
 30
0
 10
41.495
 20
161.576
 30
0
 10
41.6625
 20
161.576
 30
0
 10
41.8456
 20
161.576
 30
0
 10
42.0441
 20
161.576
 30
0
 10
42.2581
 20
161.576
 30
0
 10
42.4874
 20
161.576
 30
0
 10
42.7318
 20
161.576
 30
0
 10
42.9913
 20
161.576
 30
0
 10
43.2657
 20
161.576
 30
0
 10
43.5549
 20
161.576
 30
0
 10
43.8587
 20
161.576
 30
0
 10
44.177
 20
161.576
 30
0
  0
SPLINE
  5
A18
330
A02
100
AcDbEntity
  8
ProjItem
100
AcDbSpline
210
0
220
0
230
1
 70
8
 71
1
 72
17
 73
15
 74
0
 40
-2.99322
 40
-2.99322
 40
-2.96108
 40
-2.92895
 40
-2.89681
 40
-2.86467
 40
-2.83253
 40
-2.80039
 40
-2.76825
 40
-2.73612
 40
-2.70398
 40
-2.67184
 40
-2.6397
 40
-2.60756
 40
-2.57542
 40
-2.54329
 40
-2.54329
 10
23.8324
 20
146.576
 30
0
 10
25.3365
 20
147.887
 30
0
 10
26.7932
 20
149.157
 30
0
 10
28.2042
 20
150.386
 30
0
 10
29.5708
 20
151.576
 30
0
 10
30.8945
 20
152.728
 30
0
 10
32.1766
 20
153.843
 30
0
 10
33.4184
 20
154.923
 30
0
 10
34.6212
 20
155.968
 30
0
 10
35.7863
 20
156.98
 30
0
 10
36.9149
 20
157.96
 30
0
 10
38.0082
 20
158.909
 30
0
 10
39.0672
 20
159.827
 30
0
 10
40.093
 20
160.716
 30
0
 10
41.0868
 20
161.576
 30
0
  0
SPLINE
  5
A19
330
A02
100
AcDbEntity
  8
ProjItem
100
AcDbSpline
210
0
220
0
230
1
 70
8
 71
1
 72
17
 73
15
 74
0
 40
3.14159
 40
3.14159
 40
3.15688
 40
3.17216
 40
3.18745
 40
3.20273
 40
3.21802
 40
3.2333
 40
3.24859
 40
3.26387
 40
3.27916
 40
3.29444
 40
3.30973
 40
3.32501
 40
3.3403
 40
3.35558
 40
3.35558
 10
22.6919
 20
146.576
 30
0
 10
22.6978
 20
146.576
 30
0
 10
22.7153
 20
146.576
 30
0
 10
22.7445
 20
146.576
 30
0
 10
22.7853
 20
146.576
 30
0
 10
22.8379
 20
146.576
 30
0
 10
22.902
 20
146.576
 30
0
 10
22.9779
 20
146.576
 30
0
 10
23.0653
 20
146.576
 30
0
 10
23.1643
 20
146.576
 30
0
 10
23.2749
 20
146.576
 30
0
 10
23.397
 20
146.576
 30
0
 10
23.5307
 20
146.576
 30
0
 10
23.6758
 20
146.576
 30
0
 10
23.8324
 20
146.576
 30
0
  0
LINE
  5
A1A
330
A02
100
AcDbEntity
  8
ProjItem
100
AcDbLine
 10
122.692
 20
146.576
 30
0
 11
98.6919
 21
166.576
 31
0
  0
SPLINE
  5
A1B
330
A02
100
AcDbEntity
  8
ProjItem
100
AcDbSpline
210
0
220
0
230
1
 70
8
 71
1
 72
17
 73
15
 74
0
 40
3.14159
 40
3.14159
 40
3.36599
 40
3.59039
 40
3.81479
 40
4.03919
 40
4.26359
 40
4.48799
 40
4.71239
 40
4.93679
 40
5.16119
 40
5.38559
 40
5.60999
 40
5.83439
 40
6.05879
 40
6.28319
 40
6.28319
 10
46.6919
 20
166.576
 30
0
 10
47.3438
 20
166.576
 30
0
 10
49.2667
 20
166.576
 30
0
 10
52.3643
 20
166.576
 30
0
 10
56.4812
 20
166.576
 30
0
 10
61.4109
 20
166.576
 30
0
 10
66.9064
 20
166.576
 30
0
 10
72.6919
 20
166.576
 30
0
 10
78.4775
 20
166.576
 30
0
 10
83.9729
 20
166.576
 30
0
 10
88.9027
 20
166.576
 30
0
 10
93.0195
 20
166.576
 30
0
 10
96.1171
 20
166.576
 30
0
 10
98.04
 20
166.576
 30
0
 10
98.6919
 20
166.576
 30
0
  0
SPLINE
  5
A1C
330
A02
100
AcDbEntity
  8
ProjItem
100
AcDbSpline
210
0
220
0
230
1
 70
8
 71
1
 72
17
 73
15
 74
0
 40
6.06919
 40
6.06919
 40
6.08448
 40
6.09976
 40
6.11505
 40
6.13033
 40
6.14562
 40
6.1609
 40
6.17619
 40
6.19147
 40
6.20676
 40
6.22204
 40
6.23733
 40
6.25262
 40
6.2679
 40
6.28319
 40
6.28319
 10
121.551
 20
146.576
 30
0
 10
121.708
 20
146.576
 30
0
 10
121.853
 20
146.576
 30
0
 10
121.987
 20
146.576
 30
0
 10
122.109
 20
146.576
 30
0
 10
122.22
 20
146.576
 30
0
 10
122.319
 20
146.576
 30
0
 10
122.406
 20
146.576
 30
0
 10
122.482
 20
146.576
 30
0
 10
122.546
 20
146.576
 30
0
 10
122.598
 20
146.576
 30
0
 10
122.639
 20
146.576
 30
0
 10
122.669
 20
146.576
 30
0
 10
122.686
 20
146.576
 30
0
 10
122.692
 20
146.576
 30
0
  0
SPLINE
  5
A1D
330
A02
100
AcDbEntity
  8
ProjItem
100
AcDbSpline
210
0
220
0
230
1
 70
8
 71
1
 72
17
 73
15
 74
0
 40
2.54329
 40
2.54329
 40
2.57542
 40
2.60756
 40
2.6397
 40
2.67184
 40
2.70398
 40
2.73612
 40
2.76825
 40
2.80039
 40
2.83253
 40
2.86467
 40
2.89681
 40
2.92895
 40
2.96108
 40
2.99322
 40
2.99322
 10
104.297
 20
161.576
 30
0
 10
105.291
 20
160.716
 30
0
 10
106.317
 20
159.827
 30
0
 10
107.376
 20
158.909
 30
0
 10
108.469
 20
157.96
 30
0
 10
109.597
 20
156.98
 30
0
 10
110.763
 20
155.968
 30
0
 10
111.965
 20
154.923
 30
0
 10
113.207
 20
153.843
 30
0
 10
114.489
 20
152.728
 30
0
 10
115.813
 20
151.576
 30
0
 10
117.18
 20
150.386
 30
0
 10
118.591
 20
149.157
 30
0
 10
120.047
 20
147.887
 30
0
 10
121.551
 20
146.576
 30
0
  0
SPLINE
  5
A1E
330
A02
100
AcDbEntity
  8
ProjItem
100
AcDbSpline
210
0
220
0
230
1
 70
8
 71
1
 72
17
 73
15
 74
0
 40
5.81213
 40
5.81213
 40
5.83455
 40
5.85696
 40
5.87937
 40
5.90179
 40
5.9242
 40
5.94661
 40
5.96903
 40
5.99144
 40
6.01385
 40
6.03627
 40
6.05868
 40
6.08109
 40
6.10351
 40
6.12592
 40
6.12592
 10
101.207
 20
161.576
 30
0
 10
101.525
 20
161.576
 30
0
 10
101.829
 20
161.576
 30
0
 10
102.118
 20
161.576
 30
0
 10
102.393
 20
161.576
 30
0
 10
102.652
 20
161.576
 30
0
 10
102.896
 20
161.576
 30
0
 10
103.126
 20
161.576
 30
0
 10
103.34
 20
161.576
 30
0
 10
103.538
 20
161.576
 30
0
 10
103.721
 20
161.576
 30
0
 10
103.889
 20
161.576
 30
0
 10
104.041
 20
161.576
 30
0
 10
104.177
 20
161.576
 30
0
 10
104.297
 20
161.576
 30
0
  0
LINE
  5
A1F
330
A02
100
AcDbEntity
  8
ProjItem
100
AcDbLine
 10
97.8888
 20
146.576
 30
0
 11
105.979
 21
146.576
 31
0
  0
LINE
  5
A20
330
A02
100
AcDbEntity
  8
ProjItem
100
AcDbLine
 10
47.4951
 20
146.576
 30
0
 11
39.4049
 21
146.576
 31
0
  0
LINE
  5
A21
330
A02
100
AcDbEntity
  8
ProjItem
100
AcDbLine
 10
23.8324
 20
146.576
 30
0
 11
26.9225
 21
146.576
 31
0
  0
LINE
  5
A22
330
A02
100
AcDbEntity
  8
ProjItem
100
AcDbLine
 10
121.551
 20
146.576
 30
0
 11
118.461
 21
146.576
 31
0
  0
LINE
  5
A23
330
A02
100
AcDbEntity
  8
ProjItem
100
AcDbLine
 10
56.1919
 20
166.576
 30
0
 11
56.1919
 21
186.576
 31
0
  0
LINE
  5
A24
330
A02
100
AcDbEntity
  8
ProjItem
100
AcDbLine
 10
89.1919
 20
186.576
 30
0
 11
89.1919
 21
166.576
 31
0
  0
ARC
  5
A25
330
A02
100
AcDbEntity
  8
ProjItem
100
AcDbCircle
 10
60.1919
 20
186.576
 30
0
 40
4
100
AcDbArc
 50
90
 51
180
  0
LINE
  5
A26
330
A02
100
AcDbEntity
  8
ProjItem
100
AcDbLine
 10
60.1919
 20
190.576
 30
0
 11
85.1919
 21
190.576
 31
0
  0
ARC
  5
A27
330
A02
100
AcDbEntity
  8
ProjItem
100
AcDbCircle
 10
85.1919
 20
186.576
 30
0
 40
4
100
AcDbArc
 50
1.62844e-12
 51
90
  0
CIRCLE
  5
A28
330
A02
100
AcDbEntity
  8
ProjItem
100
AcDbCircle
 10
81.6919
 20
178.576
 40
2
  0
CIRCLE
  5
A29
330
A02
100
AcDbEntity
  8
ProjItem
100
AcDbCircle
 10
81.6919
 20
184.576
 40
2
  0
CIRCLE
  5
A2A
330
A02
100
AcDbEntity
  8
ProjItem
100
AcDbCircle
 10
81.6919
 20
172.576
 40
2
  0
CIRCLE
  5
A2B
330
A02
100
AcDbEntity
  8
ProjItem
100
AcDbCircle
 10
63.6919
 20
178.576
 40
2
  0
CIRCLE
  5
A2C
330
A02
100
AcDbEntity
  8
ProjItem
100
AcDbCircle
 10
63.6919
 20
184.576
 40
2
  0
CIRCLE
  5
A2D
330
A02
100
AcDbEntity
  8
ProjItem
100
AcDbCircle
 10
63.6919
 20
172.576
 40
2
  0
LINE
  5
A2E
330
A02
100
AcDbEntity
  8
ProjItem
100
AcDbLine
 10
56.1919
 20
166.576
 30
0
 11
56.1919
 21
186.576
 31
0
  0
LINE
  5
A2F
330
A02
100
AcDbEntity
  8
ProjItem
100
AcDbLine
 10
60.1919
 20
190.576
 30
0
 11
85.1919
 21
190.576
 31
0
  0
LINE
  5
A30
330
A02
100
AcDbEntity
  8
ProjItem
100
AcDbLine
 10
46.6919
 20
166.576
 30
0
 11
22.6919
 21
146.576
 31
0
  0
ARC
  5
A31
330
A02
100
AcDbEntity
  8
ProjItem001
100
AcDbCircle
 10
72.6919
 20
68.0774
 30
0
 40
50
100
AcDbArc
 50
-84.2608
 51
-59.7392
  0
SPLINE
  5
A32
330
A02
100
AcDbEntity
  8
ProjItem001
100
AcDbSpline
210
0
220
0
230
1
 70
8
 71
1
 72
17
 73
15
 74
0
 40
2.54329
 40
2.54329
 40
2.57542
 40
2.60756
 40
2.6397
 40
2.67184
 40
2.70398
 40
2.73612
 40
2.76825
 40
2.80039
 40
2.83253
 40
2.86467
 40
2.89681
 40
2.92895
 40
2.96108
 40
2.99322
 40
2.99322
 10
77.6919
 20
36.4705
 30
0
 10
77.6919
 20
35.4255
 30
0
 10
77.6919
 20
34.3469
 30
0
 10
77.6919
 20
33.2334
 30
0
 10
77.6919
 20
32.0839
 30
0
 10
77.6919
 20
30.8972
 30
0
 10
77.6919
 20
29.6721
 30
0
 10
77.6919
 20
28.4074
 30
0
 10
77.6919
 20
27.1016
 30
0
 10
77.6919
 20
25.7536
 30
0
 10
77.6919
 20
24.3618
 30
0
 10
77.6919
 20
22.9249
 30
0
 10
77.6919
 20
21.4413
 30
0
 10
77.6919
 20
19.9095
 30
0
 10
77.6919
 20
18.328
 30
0
  0
SPLINE
  5
A33
330
A02
100
AcDbEntity
  8
ProjItem001
100
AcDbSpline
210
0
220
0
230
1
 70
8
 71
1
 72
17
 73
15
 74
0
 40
-2.99322
 40
-2.99322
 40
-2.96108
 40
-2.92895
 40
-2.89681
 40
-2.86467
 40
-2.83253
 40
-2.80039
 40
-2.76825
 40
-2.73612
 40
-2.70398
 40
-2.67184
 40
-2.6397
 40
-2.60756
 40
-2.57542
 40
-2.54329
 40
-2.54329
 10
97.8888
 20
24.8904
 30
0
 10
96.9592
 20
26.1699
 30
0
 10
96.0589
 20
27.4091
 30
0
 10
95.1868
 20
28.6093
 30
0
 10
94.3422
 20
29.7718
 30
0
 10
93.5242
 20
30.8978
 30
0
 10
92.7318
 20
31.9884
 30
0
 10
91.9643
 20
33.0447
 30
0
 10
91.2209
 20
34.0679
 30
0
 10
90.5008
 20
35.0591
 30
0
 10
89.8033
 20
36.0191
 30
0
 10
89.1277
 20
36.9491
 30
0
 10
88.4732
 20
37.8499
 30
0
 10
87.8391
 20
38.7226
 30
0
 10
87.2249
 20
39.5679
 30
0
  0
SPLINE
  5
A34
330
A02
100
AcDbEntity
  8
ProjItem001
100
AcDbSpline
210
0
220
0
230
1
 70
8
 71
1
 72
17
 73
15
 74
0
 40
-2.99322
 40
-2.99322
 40
-2.96108
 40
-2.92895
 40
-2.89681
 40
-2.86467
 40
-2.83253
 40
-2.80039
 40
-2.76825
 40
-2.73612
 40
-2.70398
 40
-2.67184
 40
-2.6397
 40
-2.60756
 40
-2.57542
 40
-2.54329
 40
-2.54329
 10
118.461
 20
47.9487
 30
0
 10
116.957
 20
48.4374
 30
0
 10
115.5
 20
48.9108
 30
0
 10
114.089
 20
49.3692
 30
0
 10
112.723
 20
49.8133
 30
0
 10
111.399
 20
50.2433
 30
0
 10
110.117
 20
50.6599
 30
0
 10
108.875
 20
51.0634
 30
0
 10
107.672
 20
51.4542
 30
0
 10
106.507
 20
51.8328
 30
0
 10
105.379
 20
52.1995
 30
0
 10
104.286
 20
52.5547
 30
0
 10
103.226
 20
52.8988
 30
0
 10
102.201
 20
53.2321
 30
0
 10
101.207
 20
53.555
 30
0
  0
ARC
  5
A35
330
A02
100
AcDbEntity
  8
ProjItem001
100
AcDbCircle
 10
72.6919
 20
68.0774
 30
0
 40
50
100
AcDbArc
 50
-48.2608
 51
-23.7392
  0
SPLINE
  5
A36
330
A02
100
AcDbEntity
  8
ProjItem001
100
AcDbSpline
210
0
220
0
230
1
 70
8
 71
1
 72
17
 73
15
 74
0
 40
2.54329
 40
2.54329
 40
2.57542
 40
2.60756
 40
2.6397
 40
2.67184
 40
2.70398
 40
2.73612
 40
2.76825
 40
2.80039
 40
2.83253
 40
2.86467
 40
2.89681
 40
2.92895
 40
2.96108
 40
2.99322
 40
2.99322
 10
95.3151
 20
45.4458
 30
0
 10
95.9293
 20
44.6004
 30
0
 10
96.5633
 20
43.7278
 30
0
 10
97.2178
 20
42.8269
 30
0
 10
97.8935
 20
41.8969
 30
0
 10
98.591
 20
40.9369
 30
0
 10
99.3111
 20
39.9458
 30
0
 10
100.054
 20
38.9226
 30
0
 10
100.822
 20
37.8662
 30
0
 10
101.614
 20
36.7756
 30
0
 10
102.432
 20
35.6497
 30
0
 10
103.277
 20
34.4872
 30
0
 10
104.149
 20
33.2869
 30
0
 10
105.049
 20
32.0477
 30
0
 10
105.979
 20
30.7683
 30
0
  0
ARC
  5
A37
330
A02
100
AcDbEntity
  8
ProjItem001
100
AcDbCircle
 10
72.6919
 20
68.0774
 30
0
 40
32
100
AcDbArc
 50
-62.9893
 51
-45.0107
  0
ARC
  5
A38
330
A02
100
AcDbEntity
  8
ProjItem001
100
AcDbCircle
 10
72.6919
 20
68.0774
 30
0
 40
32
100
AcDbArc
 50
-98.9893
 51
-81.0107
  0
SPLINE
  5
A39
330
A02
100
AcDbEntity
  8
ProjItem001
100
AcDbSpline
210
0
220
0
230
1
 70
8
 71
1
 72
17
 73
15
 74
0
 40
-2.99322
 40
-2.99322
 40
-2.96108
 40
-2.92895
 40
-2.89681
 40
-2.86467
 40
-2.83253
 40
-2.80039
 40
-2.76825
 40
-2.73612
 40
-2.70398
 40
-2.67184
 40
-2.6397
 40
-2.60756
 40
-2.57542
 40
-2.54329
 40
-2.54329
 10
67.6919
 20
18.328
 30
0
 10
67.6919
 20
19.9095
 30
0
 10
67.6919
 20
21.4413
 30
0
 10
67.6919
 20
22.9249
 30
0
 10
67.6919
 20
24.3618
 30
0
 10
67.6919
 20
25.7536
 30
0
 10
67.6919
 20
27.1016
 30
0
 10
67.6919
 20
28.4074
 30
0
 10
67.6919
 20
29.6721
 30
0
 10
67.6919
 20
30.8972
 30
0
 10
67.6919
 20
32.0839
 30
0
 10
67.6919
 20
33.2334
 30
0
 10
67.6919
 20
34.3469
 30
0
 10
67.6919
 20
35.4255
 30
0
 10
67.6919
 20
36.4705
 30
0
  0
ARC
  5
A3A
330
A02
100
AcDbEntity
  8
ProjItem001
100
AcDbCircle
 10
72.6919
 20
68.0774
 30
0
 40
50
100
AcDbArc
 50
-120.261
 51
-95.7392
  0
SPLINE
  5
A3B
330
A02
100
AcDbEntity
  8
ProjItem001
100
AcDbSpline
210
0
220
0
230
1
 70
8
 71
1
 72
17
 73
15
 74
0
 40
2.54329
 40
2.54329
 40
2.57542
 40
2.60756
 40
2.6397
 40
2.67184
 40
2.70398
 40
2.73612
 40
2.76825
 40
2.80039
 40
2.83253
 40
2.86467
 40
2.89681
 40
2.92895
 40
2.96108
 40
2.99322
 40
2.99322
 10
58.1589
 20
39.5679
 30
0
 10
57.5447
 20
38.7226
 30
0
 10
56.9107
 20
37.8499
 30
0
 10
56.2562
 20
36.9491
 30
0
 10
55.5805
 20
36.0191
 30
0
 10
54.883
 20
35.0591
 30
0
 10
54.1629
 20
34.0679
 30
0
 10
53.4195
 20
33.0447
 30
0
 10
52.652
 20
31.9884
 30
0
 10
51.8597
 20
30.8978
 30
0
 10
51.0416
 20
29.7718
 30
0
 10
50.197
 20
28.6093
 30
0
 10
49.325
 20
27.4091
 30
0
 10
48.4246
 20
26.1699
 30
0
 10
47.4951
 20
24.8904
 30
0
  0
ARC
  5
A3C
330
A02
100
AcDbEntity
  8
ProjItem001
100
AcDbCircle
 10
72.6919
 20
68.0774
 30
0
 40
32
100
AcDbArc
 50
-134.989
 51
-117.011
  0
SPLINE
  5
A3D
330
A02
100
AcDbEntity
  8
ProjItem001
100
AcDbSpline
210
0
220
0
230
1
 70
8
 71
1
 72
17
 73
15
 74
0
 40
-2.99322
 40
-2.99322
 40
-2.96108
 40
-2.92895
 40
-2.89681
 40
-2.86467
 40
-2.83253
 40
-2.80039
 40
-2.76825
 40
-2.73612
 40
-2.70398
 40
-2.67184
 40
-2.6397
 40
-2.60756
 40
-2.57542
 40
-2.54329
 40
-2.54329
 10
39.4049
 20
30.7683
 30
0
 10
40.3345
 20
32.0477
 30
0
 10
41.2348
 20
33.2869
 30
0
 10
42.1068
 20
34.4872
 30
0
 10
42.9514
 20
35.6497
 30
0
 10
43.7695
 20
36.7756
 30
0
 10
44.5619
 20
37.8662
 30
0
 10
45.3294
 20
38.9226
 30
0
 10
46.0728
 20
39.9458
 30
0
 10
46.7929
 20
40.9369
 30
0
 10
47.4904
 20
41.8969
 30
0
 10
48.166
 20
42.8269
 30
0
 10
48.8205
 20
43.7278
 30
0
 10
49.4545
 20
44.6004
 30
0
 10
50.0687
 20
45.4458
 30
0
  0
ARC
  5
A3E
330
A02
100
AcDbEntity
  8
ProjItem001
100
AcDbCircle
 10
72.6919
 20
68.0774
 30
0
 40
50
100
AcDbArc
 50
-156.261
 51
-131.739
  0
SPLINE
  5
A3F
330
A02
100
AcDbEntity
  8
ProjItem001
100
AcDbSpline
210
0
220
0
230
1
 70
8
 71
1
 72
17
 73
15
 74
0
 40
2.54329
 40
2.54329
 40
2.57542
 40
2.60756
 40
2.6397
 40
2.67184
 40
2.70398
 40
2.73612
 40
2.76825
 40
2.80039
 40
2.83253
 40
2.86467
 40
2.89681
 40
2.92895
 40
2.96108
 40
2.99322
 40
2.99322
 10
44.177
 20
53.555
 30
0
 10
43.1832
 20
53.2321
 30
0
 10
42.1573
 20
52.8988
 30
0
 10
41.0983
 20
52.5547
 30
0
 10
40.0051
 20
52.1995
 30
0
 10
38.8765
 20
51.8328
 30
0
 10
37.7114
 20
51.4542
 30
0
 10
36.5085
 20
51.0634
 30
0
 10
35.2667
 20
50.6599
 30
0
 10
33.9846
 20
50.2433
 30
0
 10
32.661
 20
49.8133
 30
0
 10
31.2944
 20
49.3692
 30
0
 10
29.8834
 20
48.9108
 30
0
 10
28.4266
 20
48.4374
 30
0
 10
26.9225
 20
47.9487
 30
0
  0
ARC
  5
A40
330
A02
100
AcDbEntity
  8
ProjItem001
100
AcDbCircle
 10
72.6919
 20
68.0774
 30
0
 40
32
100
AcDbArc
 50
-170.989
 51
-153.011
  0
SPLINE
  5
A41
330
A02
100
AcDbEntity
  8
ProjItem001
100
AcDbSpline
210
0
220
0
230
1
 70
8
 71
1
 72
17
 73
15
 74
0
 40
-2.99322
 40
-2.99322
 40
-2.96108
 40
-2.92895
 40
-2.89681
 40
-2.86467
 40
-2.83253
 40
-2.80039
 40
-2.76825
 40
-2.73612
 40
-2.70398
 40
-2.67184
 40
-2.6397
 40
-2.60756
 40
-2.57542
 40
-2.54329
 40
-2.54329
 10
23.8324
 20
57.4593
 30
0
 10
25.3365
 20
57.948
 30
0
 10
26.7932
 20
58.4213
 30
0
 10
28.2042
 20
58.8798
 30
0
 10
29.5708
 20
59.3238
 30
0
 10
30.8945
 20
59.7539
 30
0
 10
32.1766
 20
60.1705
 30
0
 10
33.4184
 20
60.574
 30
0
 10
34.6212
 20
60.9648
 30
0
 10
35.7863
 20
61.3434
 30
0
 10
36.9149
 20
61.7101
 30
0
 10
38.0082
 20
62.0653
 30
0
 10
39.0672
 20
62.4094
 30
0
 10
40.093
 20
62.7427
 30
0
 10
41.0868
 20
63.0656
 30
0
  0
ARC
  5
A42
330
A02
100
AcDbEntity
  8
ProjItem001
100
AcDbCircle
 10
72.6919
 20
68.0774
 30
0
 40
50
100
AcDbArc
 50
167.739
 51
-167.739
  0
SPLINE
  5
A43
330
A02
100
AcDbEntity
  8
ProjItem001
100
AcDbSpline
210
0
220
0
230
1
 70
8
 71
1
 72
17
 73
15
 74
0
 40
2.54329
 40
2.54329
 40
2.57542
 40
2.60756
 40
2.6397
 40
2.67184
 40
2.70398
 40
2.73612
 40
2.76825
 40
2.80039
 40
2.83253
 40
2.86467
 40
2.89681
 40
2.92895
 40
2.96108
 40
2.99322
 40
2.99322
 10
41.0868
 20
73.0892
 30
0
 10
40.093
 20
73.4121
 30
0
 10
39.0672
 20
73.7454
 30
0
 10
38.0082
 20
74.0895
 30
0
 10
36.9149
 20
74.4448
 30
0
 10
35.7863
 20
74.8115
 30
0
 10
34.6212
 20
75.19
 30
0
 10
33.4184
 20
75.5809
 30
0
 10
32.1766
 20
75.9843
 30
0
 10
30.8945
 20
76.4009
 30
0
 10
29.5708
 20
76.831
 30
0
 10
28.2042
 20
77.275
 30
0
 10
26.7932
 20
77.7335
 30
0
 10
25.3365
 20
78.2068
 30
0
 10
23.8324
 20
78.6955
 30
0
  0
ARC
  5
A44
330
A02
100
AcDbEntity
  8
ProjItem001
100
AcDbCircle
 10
72.6919
 20
68.0774
 30
0
 40
32
100
AcDbArc
 50
153.011
 51
170.989
  0
SPLINE
  5
A45
330
A02
100
AcDbEntity
  8
ProjItem001
100
AcDbSpline
210
0
220
0
230
1
 70
8
 71
1
 72
17
 73
15
 74
0
 40
-2.99322
 40
-2.99322
 40
-2.96108
 40
-2.92895
 40
-2.89681
 40
-2.86467
 40
-2.83253
 40
-2.80039
 40
-2.76825
 40
-2.73612
 40
-2.70398
 40
-2.67184
 40
-2.6397
 40
-2.60756
 40
-2.57542
 40
-2.54329
 40
-2.54329
 10
26.9225
 20
88.2061
 30
0
 10
28.4266
 20
87.7174
 30
0
 10
29.8834
 20
87.2441
 30
0
 10
31.2944
 20
86.7856
 30
0
 10
32.661
 20
86.3416
 30
0
 10
33.9846
 20
85.9115
 30
0
 10
35.2667
 20
85.4949
 30
0
 10
36.5085
 20
85.0914
 30
0
 10
37.7114
 20
84.7006
 30
0
 10
38.8765
 20
84.322
 30
0
 10
40.0051
 20
83.9553
 30
0
 10
41.0983
 20
83.6001
 30
0
 10
42.1573
 20
83.256
 30
0
 10
43.1832
 20
82.9227
 30
0
 10
44.177
 20
82.5998
 30
0
  0
ARC
  5
A46
330
A02
100
AcDbEntity
  8
ProjItem001
100
AcDbCircle
 10
72.6919
 20
68.0774
 30
0
 40
50
100
AcDbArc
 50
131.739
 51
156.261
  0
SPLINE
  5
A47
330
A02
100
AcDbEntity
  8
ProjItem001
100
AcDbSpline
210
0
220
0
230
1
 70
8
 71
1
 72
17
 73
15
 74
0
 40
2.54329
 40
2.54329
 40
2.57542
 40
2.60756
 40
2.6397
 40
2.67184
 40
2.70398
 40
2.73612
 40
2.76825
 40
2.80039
 40
2.83253
 40
2.86467
 40
2.89681
 40
2.92895
 40
2.96108
 40
2.99322
 40
2.99322
 10
50.0687
 20
90.7091
 30
0
 10
49.4545
 20
91.5544
 30
0
 10
48.8205
 20
92.4271
 30
0
 10
48.166
 20
93.3279
 30
0
 10
47.4904
 20
94.2579
 30
0
 10
46.7929
 20
95.2179
 30
0
 10
46.0728
 20
96.209
 30
0
 10
45.3294
 20
97.2322
 30
0
 10
44.5619
 20
98.2886
 30
0
 10
43.7695
 20
99.3792
 30
0
 10
42.9514
 20
100.505
 30
0
 10
42.1068
 20
101.668
 30
0
 10
41.2348
 20
102.868
 30
0
 10
40.3345
 20
104.107
 30
0
 10
39.4049
 20
105.387
 30
0
  0
ARC
  5
A48
330
A02
100
AcDbEntity
  8
ProjItem001
100
AcDbCircle
 10
72.6919
 20
68.0774
 30
0
 40
32
100
AcDbArc
 50
117.011
 51
134.989
  0
SPLINE
  5
A49
330
A02
100
AcDbEntity
  8
ProjItem001
100
AcDbSpline
210
0
220
0
230
1
 70
8
 71
1
 72
17
 73
15
 74
0
 40
-2.99322
 40
-2.99322
 40
-2.96108
 40
-2.92895
 40
-2.89681
 40
-2.86467
 40
-2.83253
 40
-2.80039
 40
-2.76825
 40
-2.73612
 40
-2.70398
 40
-2.67184
 40
-2.6397
 40
-2.60756
 40
-2.57542
 40
-2.54329
 40
-2.54329
 10
47.4951
 20
111.264
 30
0
 10
48.4246
 20
109.985
 30
0
 10
49.325
 20
108.746
 30
0
 10
50.197
 20
107.546
 30
0
 10
51.0416
 20
106.383
 30
0
 10
51.8597
 20
105.257
 30
0
 10
52.652
 20
104.166
 30
0
 10
53.4195
 20
103.11
 30
0
 10
54.1629
 20
102.087
 30
0
 10
54.883
 20
101.096
 30
0
 10
55.5805
 20
100.136
 30
0
 10
56.2562
 20
99.2058
 30
0
 10
56.9107
 20
98.3049
 30
0
 10
57.5447
 20
97.4323
 30
0
 10
58.1589
 20
96.5869
 30
0
  0
ARC
  5
A4A
330
A02
100
AcDbEntity
  8
ProjItem001
100
AcDbCircle
 10
72.6919
 20
68.0774
 30
0
 40
50
100
AcDbArc
 50
95.7392
 51
120.261
  0
SPLINE
  5
A4B
330
A02
100
AcDbEntity
  8
ProjItem001
100
AcDbSpline
210
0
220
0
230
1
 70
8
 71
1
 72
17
 73
15
 74
0
 40
2.54329
 40
2.54329
 40
2.57542
 40
2.60756
 40
2.6397
 40
2.67184
 40
2.70398
 40
2.73612
 40
2.76825
 40
2.80039
 40
2.83253
 40
2.86467
 40
2.89681
 40
2.92895
 40
2.96108
 40
2.99322
 40
2.99322
 10
67.6919
 20
99.6844
 30
0
 10
67.6919
 20
100.729
 30
0
 10
67.6919
 20
101.808
 30
0
 10
67.6919
 20
102.921
 30
0
 10
67.6919
 20
104.071
 30
0
 10
67.6919
 20
105.258
 30
0
 10
67.6919
 20
106.483
 30
0
 10
67.6919
 20
107.747
 30
0
 10
67.6919
 20
109.053
 30
0
 10
67.6919
 20
110.401
 30
0
 10
67.6919
 20
111.793
 30
0
 10
67.6919
 20
113.23
 30
0
 10
67.6919
 20
114.714
 30
0
 10
67.6919
 20
116.245
 30
0
 10
67.6919
 20
117.827
 30
0
  0
ARC
  5
A4C
330
A02
100
AcDbEntity
  8
ProjItem001
100
AcDbCircle
 10
72.6919
 20
68.0774
 30
0
 40
32
100
AcDbArc
 50
81.0107
 51
98.9893
  0
SPLINE
  5
A4D
330
A02
100
AcDbEntity
  8
ProjItem001
100
AcDbSpline
210
0
220
0
230
1
 70
8
 71
1
 72
17
 73
15
 74
0
 40
-2.99322
 40
-2.99322
 40
-2.96108
 40
-2.92895
 40
-2.89681
 40
-2.86467
 40
-2.83253
 40
-2.80039
 40
-2.76825
 40
-2.73612
 40
-2.70398
 40
-2.67184
 40
-2.6397
 40
-2.60756
 40
-2.57542
 40
-2.54329
 40
-2.54329
 10
77.6919
 20
117.827
 30
0
 10
77.6919
 20
116.245
 30
0
 10
77.6919
 20
114.714
 30
0
 10
77.6919
 20
113.23
 30
0
 10
77.6919
 20
111.793
 30
0
 10
77.6919
 20
110.401
 30
0
 10
77.6919
 20
109.053
 30
0
 10
77.6919
 20
107.747
 30
0
 10
77.6919
 20
106.483
 30
0
 10
77.6919
 20
105.258
 30
0
 10
77.6919
 20
104.071
 30
0
 10
77.6919
 20
102.921
 30
0
 10
77.6919
 20
101.808
 30
0
 10
77.6919
 20
100.729
 30
0
 10
77.6919
 20
99.6844
 30
0
  0
ARC
  5
A4E
330
A02
100
AcDbEntity
  8
ProjItem001
100
AcDbCircle
 10
72.6919
 20
68.0774
 30
0
 40
50
100
AcDbArc
 50
59.7392
 51
84.2608
  0
SPLINE
  5
A4F
330
A02
100
AcDbEntity
  8
ProjItem001
100
AcDbSpline
210
0
220
0
230
1
 70
8
 71
1
 72
17
 73
15
 74
0
 40
2.54329
 40
2.54329
 40
2.57542
 40
2.60756
 40
2.6397
 40
2.67184
 40
2.70398
 40
2.73612
 40
2.76825
 40
2.80039
 40
2.83253
 40
2.86467
 40
2.89681
 40
2.92895
 40
2.96108
 40
2.99322
 40
2.99322
 10
87.2249
 20
96.5869
 30
0
 10
87.8391
 20
97.4323
 30
0
 10
88.4732
 20
98.3049
 30
0
 10
89.1277
 20
99.2058
 30
0
 10
89.8033
 20
100.136
 30
0
 10
90.5008
 20
101.096
 30
0
 10
91.2209
 20
102.087
 30
0
 10
91.9643
 20
103.11
 30
0
 10
92.7318
 20
104.166
 30
0
 10
93.5242
 20
105.257
 30
0
 10
94.3422
 20
106.383
 30
0
 10
95.1868
 20
107.546
 30
0
 10
96.0589
 20
108.746
 30
0
 10
96.9592
 20
109.985
 30
0
 10
97.8888
 20
111.264
 30
0
  0
ARC
  5
A50
330
A02
100
AcDbEntity
  8
ProjItem001
100
AcDbCircle
 10
72.6919
 20
68.0774
 30
0
 40
32
100
AcDbArc
 50
45.0107
 51
62.9893
  0
SPLINE
  5
A51
330
A02
100
AcDbEntity
  8
ProjItem001
100
AcDbSpline
210
0
220
0
230
1
 70
8
 71
1
 72
17
 73
15
 74
0
 40
-2.99322
 40
-2.99322
 40
-2.96108
 40
-2.92895
 40
-2.89681
 40
-2.86467
 40
-2.83253
 40
-2.80039
 40
-2.76825
 40
-2.73612
 40
-2.70398
 40
-2.67184
 40
-2.6397
 40
-2.60756
 40
-2.57542
 40
-2.54329
 40
-2.54329
 10
105.979
 20
105.387
 30
0
 10
105.049
 20
104.107
 30
0
 10
104.149
 20
102.868
 30
0
 10
103.277
 20
101.668
 30
0
 10
102.432
 20
100.505
 30
0
 10
101.614
 20
99.3792
 30
0
 10
100.822
 20
98.2886
 30
0
 10
100.054
 20
97.2322
 30
0
 10
99.3111
 20
96.209
 30
0
 10
98.591
 20
95.2179
 30
0
 10
97.8935
 20
94.2579
 30
0
 10
97.2178
 20
93.3279
 30
0
 10
96.5633
 20
92.4271
 30
0
 10
95.9293
 20
91.5544
 30
0
 10
95.3151
 20
90.7091
 30
0
  0
ARC
  5
A52
330
A02
100
AcDbEntity
  8
ProjItem001
100
AcDbCircle
 10
72.6919
 20
68.0774
 30
0
 40
50
100
AcDbArc
 50
23.7392
 51
48.2608
  0
SPLINE
  5
A53
330
A02
100
AcDbEntity
  8
ProjItem001
100
AcDbSpline
210
0
220
0
230
1
 70
8
 71
1
 72
17
 73
15
 74
0
 40
2.54329
 40
2.54329
 40
2.57542
 40
2.60756
 40
2.6397
 40
2.67184
 40
2.70398
 40
2.73612
 40
2.76825
 40
2.80039
 40
2.83253
 40
2.86467
 40
2.89681
 40
2.92895
 40
2.96108
 40
2.99322
 40
2.99322
 10
101.207
 20
82.5998
 30
0
 10
102.201
 20
82.9227
 30
0
 10
103.226
 20
83.256
 30
0
 10
104.286
 20
83.6001
 30
0
 10
105.379
 20
83.9553
 30
0
 10
106.507
 20
84.322
 30
0
 10
107.672
 20
84.7006
 30
0
 10
108.875
 20
85.0914
 30
0
 10
110.117
 20
85.4949
 30
0
 10
111.399
 20
85.9115
 30
0
 10
112.723
 20
86.3416
 30
0
 10
114.089
 20
86.7856
 30
0
 10
115.5
 20
87.2441
 30
0
 10
116.957
 20
87.7174
 30
0
 10
118.461
 20
88.2061
 30
0
  0
ARC
  5
A54
330
A02
100
AcDbEntity
  8
ProjItem001
100
AcDbCircle
 10
72.6919
 20
68.0774
 30
0
 40
32
100
AcDbArc
 50
9.0107
 51
26.9893
  0
SPLINE
  5
A55
330
A02
100
AcDbEntity
  8
ProjItem001
100
AcDbSpline
210
0
220
0
230
1
 70
8
 71
1
 72
17
 73
15
 74
0
 40
-2.99322
 40
-2.99322
 40
-2.96108
 40
-2.92895
 40
-2.89681
 40
-2.86467
 40
-2.83253
 40
-2.80039
 40
-2.76825
 40
-2.73612
 40
-2.70398
 40
-2.67184
 40
-2.6397
 40
-2.60756
 40
-2.57542
 40
-2.54329
 40
-2.54329
 10
121.551
 20
78.6955
 30
0
 10
120.047
 20
78.2068
 30
0
 10
118.591
 20
77.7335
 30
0
 10
117.18
 20
77.275
 30
0
 10
115.813
 20
76.831
 30
0
 10
114.489
 20
76.4009
 30
0
 10
113.207
 20
75.9843
 30
0
 10
111.965
 20
75.5809
 30
0
 10
110.763
 20
75.19
 30
0
 10
109.597
 20
74.8115
 30
0
 10
108.469
 20
74.4448
 30
0
 10
107.376
 20
74.0895
 30
0
 10
106.317
 20
73.7454
 30
0
 10
105.291
 20
73.4121
 30
0
 10
104.297
 20
73.0892
 30
0
  0
ARC
  5
A56
330
A02
100
AcDbEntity
  8
ProjItem001
100
AcDbCircle
 10
72.6919
 20
68.0774
 30
0
 40
50
100
AcDbArc
 50
0
 51
12.2608
  0
CIRCLE
  5
A57
330
A02
100
AcDbEntity
  8
ProjItem001
100
AcDbCircle
 10
72.6919
 20
68.0774
 40
26
  0
ARC
  5
A58
330
A02
100
AcDbEntity
  8
ProjItem001
100
AcDbCircle
 10
72.6919
 20
68.0774
 30
0
 40
50
100
AcDbArc
 50
-12.2608
 51
-1.62844e-14
  0
SPLINE
  5
A59
330
A02
100
AcDbEntity
  8
ProjItem001
100
AcDbSpline
210
0
220
0
230
1
 70
8
 71
1
 72
17
 73
15
 74
0
 40
2.54329
 40
2.54329
 40
2.57542
 40
2.60756
 40
2.6397
 40
2.67184
 40
2.70398
 40
2.73612
 40
2.76825
 40
2.80039
 40
2.83253
 40
2.86467
 40
2.89681
 40
2.92895
 40
2.96108
 40
2.99322
 40
2.99322
 10
104.297
 20
63.0656
 30
0
 10
105.291
 20
62.7427
 30
0
 10
106.317
 20
62.4094
 30
0
 10
107.376
 20
62.0653
 30
0
 10
108.469
 20
61.7101
 30
0
 10
109.597
 20
61.3434
 30
0
 10
110.763
 20
60.9648
 30
0
 10
111.965
 20
60.574
 30
0
 10
113.207
 20
60.1705
 30
0
 10
114.489
 20
59.7539
 30
0
 10
115.813
 20
59.3238
 30
0
 10
117.18
 20
58.8798
 30
0
 10
118.591
 20
58.4213
 30
0
 10
120.047
 20
57.948
 30
0
 10
121.551
 20
57.4593
 30
0
  0
ARC
  5
A5A
330
A02
100
AcDbEntity
  8
ProjItem001
100
AcDbCircle
 10
72.6919
 20
68.0774
 30
0
 40
32
100
AcDbArc
 50
-26.9893
 51
-9.0107
  0
LINE
  5
A5B
330
A02
100
AcDbEntity
  8
ProjItem001
100
AcDbLine
 10
56.1919
 20
56.0774
 30
0
 11
56.1919
 21
54.0774
 31
0
  0
LINE
  5
A5C
330
A02
100
AcDbEntity
  8
ProjItem001
100
AcDbLine
 10
89.1919
 20
56.0774
 30
0
 11
89.1919
 21
54.0774
 31
0
  0
LINE
  5
A5D
330
A02
100
AcDbEntity
  8
ProjItem001
100
AcDbLine
 10
89.1919
 20
80.0774
 30
0
 11
89.1919
 21
82.0774
 31
0
  0
LINE
  5
A5E
330
A02
100
AcDbEntity
  8
ProjItem001
100
AcDbLine
 10
56.1919
 20
80.0774
 30
0
 11
56.1919
 21
82.0774
 31
0
  0
SPLINE
  5
A5F
330
A02
100
AcDbEntity
  8
ProjItem001
100
AcDbSpline
210
0
220
0
230
1
 70
8
 71
1
 72
17
 73
15
 74
0
 40
1.5708
 40
1.5708
 40
1.683
 40
1.7952
 40
1.9074
 40
2.0196
 40
2.1318
 40
2.24399
 40
2.35619
 40
2.46839
 40
2.58059
 40
2.69279
 40
2.80499
 40
2.91719
 40
3.02939
 40
3.14159
 40
3.14159
 10
60.1919
 20
56.0774
 30
0
 10
59.7441
 20
56.0774
 30
0
 10
59.3018
 20
56.0774
 30
0
 10
58.8708
 20
56.0774
 30
0
 10
58.4564
 20
56.0774
 30
0
 10
58.0638
 20
56.0774
 30
0
 10
57.698
 20
56.0774
 30
0
 10
57.3635
 20
56.0774
 30
0
 10
57.0646
 20
56.0774
 30
0
 10
56.805
 20
56.0774
 30
0
 10
56.588
 20
56.0774
 30
0
 10
56.4164
 20
56.0774
 30
0
 10
56.2922
 20
56.0774
 30
0
 10
56.2171
 20
56.0774
 30
0
 10
56.1919
 20
56.0774
 30
0
  0
LINE
  5
A60
330
A02
100
AcDbEntity
  8
ProjItem001
100
AcDbLine
 10
60.1919
 20
56.0774
 30
0
 11
85.1919
 21
56.0774
 31
0
  0
SPLINE
  5
A61
330
A02
100
AcDbEntity
  8
ProjItem001
100
AcDbSpline
210
0
220
0
230
1
 70
8
 71
2
 72
30
 73
27
 74
0
 40
2.7e-14
 40
2.7e-14
 40
2.7e-14
 40
0.1122
 40
0.1122
 40
0.224399
 40
0.224399
 40
0.336599
 40
0.336599
 40
0.448799
 40
0.448799
 40
0.560999
 40
0.560999
 40
0.673198
 40
0.673198
 40
0.785398
 40
0.785398
 40
0.897598
 40
0.897598
 40
1.0098
 40
1.0098
 40
1.122
 40
1.122
 40
1.2342
 40
1.2342
 40
1.3464
 40
1.3464
 40
1.5708
 40
1.5708
 40
1.5708
 10
89.1919
 20
56.0774
 30
0
 10
89.1793
 20
56.0774
 30
0
 10
89.1668
 20
56.0774
 30
0
 10
89.1292
 20
56.0774
 30
0
 10
89.0916
 20
56.0774
 30
0
 10
89.0295
 20
56.0774
 30
0
 10
88.9675
 20
56.0774
 30
0
 10
88.8816
 20
56.0774
 30
0
 10
88.7958
 20
56.0774
 30
0
 10
88.6873
 20
56.0774
 30
0
 10
88.5788
 20
56.0774
 30
0
 10
88.449
 20
56.0774
 30
0
 10
88.3192
 20
56.0774
 30
0
 10
88.1698
 20
56.0774
 30
0
 10
88.0203
 20
56.0774
 30
0
 10
87.8531
 20
56.0774
 30
0
 10
87.6859
 20
56.0774
 30
0
 10
87.503
 20
56.0774
 30
0
 10
87.3201
 20
56.0774
 30
0
 10
87.1238
 20
56.0774
 30
0
 10
86.9275
 20
56.0774
 30
0
 10
86.7202
 20
56.0774
 30
0
 10
86.513
 20
56.0774
 30
0
 10
86.2975
 20
56.0774
 30
0
 10
86.082
 20
56.0774
 30
0
 10
85.6414
 20
56.0774
 30
0
 10
85.1919
 20
56.0774
 30
0
  0
LINE
  5
A62
330
A02
100
AcDbEntity
  8
ProjItem001
100
AcDbLine
 10
56.1919
 20
56.0774
 30
0
 11
56.1919
 21
54.0774
 31
0
  0
SPLINE
  5
A63
330
A02
100
AcDbEntity
  8
ProjItem001
100
AcDbSpline
210
0
220
0
230
1
 70
8
 71
1
 72
17
 73
15
 74
0
 40
1.5708
 40
1.5708
 40
1.683
 40
1.7952
 40
1.9074
 40
2.0196
 40
2.1318
 40
2.24399
 40
2.35619
 40
2.46839
 40
2.58059
 40
2.69279
 40
2.80499
 40
2.91719
 40
3.02939
 40
3.14159
 40
3.14159
 10
60.1919
 20
54.0774
 30
0
 10
59.7441
 20
54.0774
 30
0
 10
59.3018
 20
54.0774
 30
0
 10
58.8708
 20
54.0774
 30
0
 10
58.4564
 20
54.0774
 30
0
 10
58.0638
 20
54.0774
 30
0
 10
57.698
 20
54.0774
 30
0
 10
57.3635
 20
54.0774
 30
0
 10
57.0646
 20
54.0774
 30
0
 10
56.805
 20
54.0774
 30
0
 10
56.588
 20
54.0774
 30
0
 10
56.4164
 20
54.0774
 30
0
 10
56.2922
 20
54.0774
 30
0
 10
56.2171
 20
54.0774
 30
0
 10
56.1919
 20
54.0774
 30
0
  0
LINE
  5
A64
330
A02
100
AcDbEntity
  8
ProjItem001
100
AcDbLine
 10
60.1919
 20
54.0774
 30
0
 11
85.1919
 21
54.0774
 31
0
  0
SPLINE
  5
A65
330
A02
100
AcDbEntity
  8
ProjItem001
100
AcDbSpline
210
0
220
0
230
1
 70
8
 71
2
 72
30
 73
27
 74
0
 40
2.7e-14
 40
2.7e-14
 40
2.7e-14
 40
0.1122
 40
0.1122
 40
0.224399
 40
0.224399
 40
0.336599
 40
0.336599
 40
0.448799
 40
0.448799
 40
0.560999
 40
0.560999
 40
0.673198
 40
0.673198
 40
0.785398
 40
0.785398
 40
0.897598
 40
0.897598
 40
1.0098
 40
1.0098
 40
1.122
 40
1.122
 40
1.2342
 40
1.2342
 40
1.3464
 40
1.3464
 40
1.5708
 40
1.5708
 40
1.5708
 10
89.1919
 20
54.0774
 30
0
 10
89.1793
 20
54.0774
 30
0
 10
89.1668
 20
54.0774
 30
0
 10
89.1292
 20
54.0774
 30
0
 10
89.0916
 20
54.0774
 30
0
 10
89.0295
 20
54.0774
 30
0
 10
88.9675
 20
54.0774
 30
0
 10
88.8816
 20
54.0774
 30
0
 10
88.7958
 20
54.0774
 30
0
 10
88.6873
 20
54.0774
 30
0
 10
88.5788
 20
54.0774
 30
0
 10
88.449
 20
54.0774
 30
0
 10
88.3192
 20
54.0774
 30
0
 10
88.1698
 20
54.0774
 30
0
 10
88.0203
 20
54.0774
 30
0
 10
87.8531
 20
54.0774
 30
0
 10
87.6859
 20
54.0774
 30
0
 10
87.503
 20
54.0774
 30
0
 10
87.3201
 20
54.0774
 30
0
 10
87.1238
 20
54.0774
 30
0
 10
86.9275
 20
54.0774
 30
0
 10
86.7202
 20
54.0774
 30
0
 10
86.513
 20
54.0774
 30
0
 10
86.2975
 20
54.0774
 30
0
 10
86.082
 20
54.0774
 30
0
 10
85.6414
 20
54.0774
 30
0
 10
85.1919
 20
54.0774
 30
0
  0
LINE
  5
A66
330
A02
100
AcDbEntity
  8
ProjItem001
100
AcDbLine
 10
89.1919
 20
56.0774
 30
0
 11
89.1919
 21
54.0774
 31
0
  0
LINE
  5
A67
330
A02
100
AcDbEntity
  8
ProjItem001
100
AcDbLine
 10
89.1919
 20
80.0774
 30
0
 11
89.1919
 21
82.0774
 31
0
  0
SPLINE
  5
A68
330
A02
100
AcDbEntity
  8
ProjItem001
100
AcDbSpline
210
0
220
0
230
1
 70
8
 71
1
 72
17
 73
15
 74
0
 40
1.5708
 40
1.5708
 40
1.683
 40
1.7952
 40
1.9074
 40
2.0196
 40
2.1318
 40
2.24399
 40
2.35619
 40
2.46839
 40
2.58059
 40
2.69279
 40
2.80499
 40
2.91719
 40
3.02939
 40
3.14159
 40
3.14159
 10
60.1919
 20
80.0774
 30
0
 10
59.7441
 20
80.0774
 30
0
 10
59.3018
 20
80.0774
 30
0
 10
58.8708
 20
80.0774
 30
0
 10
58.4564
 20
80.0774
 30
0
 10
58.0638
 20
80.0774
 30
0
 10
57.698
 20
80.0774
 30
0
 10
57.3635
 20
80.0774
 30
0
 10
57.0646
 20
80.0774
 30
0
 10
56.805
 20
80.0774
 30
0
 10
56.588
 20
80.0774
 30
0
 10
56.4164
 20
80.0774
 30
0
 10
56.2922
 20
80.0774
 30
0
 10
56.2171
 20
80.0774
 30
0
 10
56.1919
 20
80.0774
 30
0
  0
LINE
  5
A69
330
A02
100
AcDbEntity
  8
ProjItem001
100
AcDbLine
 10
60.1919
 20
80.0774
 30
0
 11
85.1919
 21
80.0774
 31
0
  0
SPLINE
  5
A6A
330
A02
100
AcDbEntity
  8
ProjItem001
100
AcDbSpline
210
0
220
0
230
1
 70
8
 71
2
 72
30
 73
27
 74
0
 40
2.7e-14
 40
2.7e-14
 40
2.7e-14
 40
0.1122
 40
0.1122
 40
0.224399
 40
0.224399
 40
0.336599
 40
0.336599
 40
0.448799
 40
0.448799
 40
0.560999
 40
0.560999
 40
0.673198
 40
0.673198
 40
0.785398
 40
0.785398
 40
0.897598
 40
0.897598
 40
1.0098
 40
1.0098
 40
1.122
 40
1.122
 40
1.2342
 40
1.2342
 40
1.3464
 40
1.3464
 40
1.5708
 40
1.5708
 40
1.5708
 10
89.1919
 20
80.0774
 30
0
 10
89.1793
 20
80.0774
 30
0
 10
89.1668
 20
80.0774
 30
0
 10
89.1292
 20
80.0774
 30
0
 10
89.0916
 20
80.0774
 30
0
 10
89.0295
 20
80.0774
 30
0
 10
88.9675
 20
80.0774
 30
0
 10
88.8816
 20
80.0774
 30
0
 10
88.7958
 20
80.0774
 30
0
 10
88.6873
 20
80.0774
 30
0
 10
88.5788
 20
80.0774
 30
0
 10
88.449
 20
80.0774
 30
0
 10
88.3192
 20
80.0774
 30
0
 10
88.1698
 20
80.0774
 30
0
 10
88.0203
 20
80.0774
 30
0
 10
87.8531
 20
80.0774
 30
0
 10
87.6859
 20
80.0774
 30
0
 10
87.503
 20
80.0774
 30
0
 10
87.3201
 20
80.0774
 30
0
 10
87.1238
 20
80.0774
 30
0
 10
86.9275
 20
80.0774
 30
0
 10
86.7202
 20
80.0774
 30
0
 10
86.513
 20
80.0774
 30
0
 10
86.2975
 20
80.0774
 30
0
 10
86.082
 20
80.0774
 30
0
 10
85.6414
 20
80.0774
 30
0
 10
85.1919
 20
80.0774
 30
0
  0
SPLINE
  5
A6B
330
A02
100
AcDbEntity
  8
ProjItem001
100
AcDbSpline
210
0
220
0
230
1
 70
8
 71
1
 72
17
 73
15
 74
0
 40
1.5708
 40
1.5708
 40
1.683
 40
1.7952
 40
1.9074
 40
2.0196
 40
2.1318
 40
2.24399
 40
2.35619
 40
2.46839
 40
2.58059
 40
2.69279
 40
2.80499
 40
2.91719
 40
3.02939
 40
3.14159
 40
3.14159
 10
60.1919
 20
82.0774
 30
0
 10
59.7441
 20
82.0774
 30
0
 10
59.3018
 20
82.0774
 30
0
 10
58.8708
 20
82.0774
 30
0
 10
58.4564
 20
82.0774
 30
0
 10
58.0638
 20
82.0774
 30
0
 10
57.698
 20
82.0774
 30
0
 10
57.3635
 20
82.0774
 30
0
 10
57.0646
 20
82.0774
 30
0
 10
56.805
 20
82.0774
 30
0
 10
56.588
 20
82.0774
 30
0
 10
56.4164
 20
82.0774
 30
0
 10
56.2922
 20
82.0774
 30
0
 10
56.2171
 20
82.0774
 30
0
 10
56.1919
 20
82.0774
 30
0
  0
LINE
  5
A6C
330
A02
100
AcDbEntity
  8
ProjItem001
100
AcDbLine
 10
60.1919
 20
82.0774
 30
0
 11
85.1919
 21
82.0774
 31
0
  0
SPLINE
  5
A6D
330
A02
100
AcDbEntity
  8
ProjItem001
100
AcDbSpline
210
0
220
0
230
1
 70
8
 71
2
 72
30
 73
27
 74
0
 40
2.7e-14
 40
2.7e-14
 40
2.7e-14
 40
0.1122
 40
0.1122
 40
0.224399
 40
0.224399
 40
0.336599
 40
0.336599
 40
0.448799
 40
0.448799
 40
0.560999
 40
0.560999
 40
0.673198
 40
0.673198
 40
0.785398
 40
0.785398
 40
0.897598
 40
0.897598
 40
1.0098
 40
1.0098
 40
1.122
 40
1.122
 40
1.2342
 40
1.2342
 40
1.3464
 40
1.3464
 40
1.5708
 40
1.5708
 40
1.5708
 10
89.1919
 20
82.0774
 30
0
 10
89.1793
 20
82.0774
 30
0
 10
89.1668
 20
82.0774
 30
0
 10
89.1292
 20
82.0774
 30
0
 10
89.0916
 20
82.0774
 30
0
 10
89.0295
 20
82.0774
 30
0
 10
88.9675
 20
82.0774
 30
0
 10
88.8816
 20
82.0774
 30
0
 10
88.7958
 20
82.0774
 30
0
 10
88.6873
 20
82.0774
 30
0
 10
88.5788
 20
82.0774
 30
0
 10
88.449
 20
82.0774
 30
0
 10
88.3192
 20
82.0774
 30
0
 10
88.1698
 20
82.0774
 30
0
 10
88.0203
 20
82.0774
 30
0
 10
87.8531
 20
82.0774
 30
0
 10
87.6859
 20
82.0774
 30
0
 10
87.503
 20
82.0774
 30
0
 10
87.3201
 20
82.0774
 30
0
 10
87.1238
 20
82.0774
 30
0
 10
86.9275
 20
82.0774
 30
0
 10
86.7202
 20
82.0774
 30
0
 10
86.513
 20
82.0774
 30
0
 10
86.2975
 20
82.0774
 30
0
 10
86.082
 20
82.0774
 30
0
 10
85.6414
 20
82.0774
 30
0
 10
85.1919
 20
82.0774
 30
0
  0
LINE
  5
A6E
330
A02
100
AcDbEntity
  8
ProjItem001
100
AcDbLine
 10
56.1919
 20
80.0774
 30
0
 11
56.1919
 21
82.0774
 31
0
  0
LINE
  5
A6F
330
A02
100
AcDbEntity
  8
ProjItem001
100
AcDbLine
 10
60.1919
 20
56.0774
 30
0
 11
60.1919
 21
54.0774
 31
0
  0
LINE
  5
A70
330
A02
100
AcDbEntity
  8
ProjItem001
100
AcDbLine
 10
85.1919
 20
56.0774
 30
0
 11
85.1919
 21
54.0774
 31
0
  0
LINE
  5
A71
330
A02
100
AcDbEntity
  8
ProjItem001
100
AcDbLine
 10
85.1919
 20
80.0774
 30
0
 11
85.1919
 21
82.0774
 31
0
  0
LINE
  5
A72
330
A02
100
AcDbEntity
  8
ProjItem001
100
AcDbLine
 10
60.1919
 20
80.0774
 30
0
 11
60.1919
 21
82.0774
 31
0
  0
LINE
  5
A73
330
A02
100
AcDbEntity
  8
ProjItem001
100
AcDbLine
 10
122.692
 20
68.0774
 30
0
 11
98.6919
 21
68.0774
 31
0
  0
SPLINE
  5
A74
330
A02
100
AcDbEntity
  8
ProjItem002
100
AcDbSpline
210
0
220
0
230
1
 70
8
 71
2
 72
6
 73
3
 74
0
 40
4.5555
 40
4.5555
 40
4.5555
 40
4.71239
 40
4.71239
 40
4.71239
 10
234.048
 20
161.576
 30
0
 10
234.44
 20
161.576
 30
0
 10
234.441
 20
161.576
 30
0
  0
SPLINE
  5
A75
330
A02
100
AcDbEntity
  8
ProjItem002
100
AcDbSpline
210
0
220
0
230
1
 70
8
 71
1
 72
17
 73
15
 74
0
 40
-2.99322
 40
-2.99322
 40
-2.96108
 40
-2.92895
 40
-2.89681
 40
-2.86467
 40
-2.83253
 40
-2.80039
 40
-2.76825
 40
-2.73612
 40
-2.70398
 40
-2.67184
 40
-2.6397
 40
-2.60756
 40
-2.57542
 40
-2.54329
 40
-2.54329
 10
252.191
 20
146.576
 30
0
 10
250.609
 20
147.887
 30
0
 10
249.077
 20
149.157
 30
0
 10
247.594
 20
150.386
 30
0
 10
246.157
 20
151.576
 30
0
 10
244.765
 20
152.728
 30
0
 10
243.417
 20
153.843
 30
0
 10
242.111
 20
154.923
 30
0
 10
240.847
 20
155.968
 30
0
 10
239.622
 20
156.98
 30
0
 10
238.435
 20
157.96
 30
0
 10
237.285
 20
158.909
 30
0
 10
236.172
 20
159.827
 30
0
 10
235.093
 20
160.716
 30
0
 10
234.048
 20
161.576
 30
0
  0
SPLINE
  5
A76
330
A02
100
AcDbEntity
  8
ProjItem002
100
AcDbSpline
210
0
220
0
230
1
 70
8
 71
1
 72
17
 73
15
 74
0
 40
4.18424
 40
4.18424
 40
4.21481
 40
4.24538
 40
4.27595
 40
4.30652
 40
4.33709
 40
4.36766
 40
4.39823
 40
4.4288
 40
4.45937
 40
4.48994
 40
4.52051
 40
4.55108
 40
4.58165
 40
4.61222
 40
4.61222
 10
245.628
 20
146.576
 30
0
 10
246.378
 20
146.576
 30
0
 10
247.087
 20
146.576
 30
0
 10
247.754
 20
146.576
 30
0
 10
248.379
 20
146.576
 30
0
 10
248.961
 20
146.576
 30
0
 10
249.5
 20
146.576
 30
0
 10
249.994
 20
146.576
 30
0
 10
250.444
 20
146.576
 30
0
 10
250.849
 20
146.576
 30
0
 10
251.209
 20
146.576
 30
0
 10
251.524
 20
146.576
 30
0
 10
251.792
 20
146.576
 30
0
 10
252.015
 20
146.576
 30
0
 10
252.191
 20
146.576
 30
0
  0
SPLINE
  5
A77
330
A02
100
AcDbEntity
  8
ProjItem002
100
AcDbSpline
210
0
220
0
230
1
 70
8
 71
1
 72
17
 73
15
 74
0
 40
2.54329
 40
2.54329
 40
2.57542
 40
2.60756
 40
2.6397
 40
2.67184
 40
2.70398
 40
2.73612
 40
2.76825
 40
2.80039
 40
2.83253
 40
2.86467
 40
2.89681
 40
2.92895
 40
2.96108
 40
2.99322
 40
2.99322
 10
230.951
 20
161.576
 30
0
 10
231.796
 20
160.716
 30
0
 10
232.669
 20
159.827
 30
0
 10
233.57
 20
158.909
 30
0
 10
234.5
 20
157.96
 30
0
 10
235.46
 20
156.98
 30
0
 10
236.451
 20
155.968
 30
0
 10
237.474
 20
154.923
 30
0
 10
238.53
 20
153.843
 30
0
 10
239.621
 20
152.728
 30
0
 10
240.747
 20
151.576
 30
0
 10
241.909
 20
150.386
 30
0
 10
243.11
 20
149.157
 30
0
 10
244.349
 20
147.887
 30
0
 10
245.628
 20
146.576
 30
0
  0
SPLINE
  5
A78
330
A02
100
AcDbEntity
  8
ProjItem002
100
AcDbSpline
210
0
220
0
230
1
 70
8
 71
1
 72
17
 73
15
 74
0
 40
3.92718
 40
3.92718
 40
3.94959
 40
3.972
 40
3.99442
 40
4.01683
 40
4.03924
 40
4.06166
 40
4.08407
 40
4.10648
 40
4.1289
 40
4.15131
 40
4.17372
 40
4.19614
 40
4.21855
 40
4.24096
 40
4.24096
 10
225.073
 20
161.576
 30
0
 10
225.574
 20
161.576
 30
0
 10
226.064
 20
161.576
 30
0
 10
226.542
 20
161.576
 30
0
 10
227.008
 20
161.576
 30
0
 10
227.461
 20
161.576
 30
0
 10
227.902
 20
161.576
 30
0
 10
228.33
 20
161.576
 30
0
 10
228.745
 20
161.576
 30
0
 10
229.147
 20
161.576
 30
0
 10
229.535
 20
161.576
 30
0
 10
229.91
 20
161.576
 30
0
 10
230.271
 20
161.576
 30
0
 10
230.618
 20
161.576
 30
0
 10
230.951
 20
161.576
 30
0
  0
SPLINE
  5
A79
330
A02
100
AcDbEntity
  8
ProjItem002
100
AcDbSpline
210
0
220
0
230
1
 70
8
 71
1
 72
17
 73
15
 74
0
 40
-2.99322
 40
-2.99322
 40
-2.96108
 40
-2.92895
 40
-2.89681
 40
-2.86467
 40
-2.83253
 40
-2.80039
 40
-2.76825
 40
-2.73612
 40
-2.70398
 40
-2.67184
 40
-2.6397
 40
-2.60756
 40
-2.57542
 40
-2.54329
 40
-2.54329
 10
239.75
 20
146.576
 30
0
 10
238.471
 20
147.887
 30
0
 10
237.232
 20
149.157
 30
0
 10
236.032
 20
150.386
 30
0
 10
234.869
 20
151.576
 30
0
 10
233.743
 20
152.728
 30
0
 10
232.652
 20
153.843
 30
0
 10
231.596
 20
154.923
 30
0
 10
230.573
 20
155.968
 30
0
 10
229.582
 20
156.98
 30
0
 10
228.622
 20
157.96
 30
0
 10
227.692
 20
158.909
 30
0
 10
226.791
 20
159.827
 30
0
 10
225.918
 20
160.716
 30
0
 10
225.073
 20
161.576
 30
0
  0
SPLINE
  5
A7A
330
A02
100
AcDbEntity
  8
ProjItem002
100
AcDbSpline
210
0
220
0
230
1
 70
8
 71
1
 72
17
 73
15
 74
0
 40
3.55592
 40
3.55592
 40
3.58649
 40
3.61706
 40
3.64763
 40
3.6782
 40
3.70877
 40
3.73934
 40
3.76991
 40
3.80048
 40
3.83105
 40
3.86162
 40
3.89219
 40
3.92276
 40
3.95333
 40
3.9839
 40
3.9839
 10
222.57
 20
146.576
 30
0
 10
223.96
 20
146.576
 30
0
 10
225.329
 20
146.576
 30
0
 10
226.677
 20
146.576
 30
0
 10
228.002
 20
146.576
 30
0
 10
229.304
 20
146.576
 30
0
 10
230.58
 20
146.576
 30
0
 10
231.831
 20
146.576
 30
0
 10
233.053
 20
146.576
 30
0
 10
234.247
 20
146.576
 30
0
 10
235.412
 20
146.576
 30
0
 10
236.545
 20
146.576
 30
0
 10
237.647
 20
146.576
 30
0
 10
238.716
 20
146.576
 30
0
 10
239.75
 20
146.576
 30
0
  0
SPLINE
  5
A7B
330
A02
100
AcDbEntity
  8
ProjItem002
100
AcDbSpline
210
0
220
0
230
1
 70
8
 71
1
 72
17
 73
15
 74
0
 40
2.54329
 40
2.54329
 40
2.57542
 40
2.60756
 40
2.6397
 40
2.67184
 40
2.70398
 40
2.73612
 40
2.76825
 40
2.80039
 40
2.83253
 40
2.86467
 40
2.89681
 40
2.92895
 40
2.96108
 40
2.99322
 40
2.99322
 10
216.964
 20
161.576
 30
0
 10
217.287
 20
160.716
 30
0
 10
217.62
 20
159.827
 30
0
 10
217.964
 20
158.909
 30
0
 10
218.319
 20
157.96
 30
0
 10
218.686
 20
156.98
 30
0
 10
219.064
 20
155.968
 30
0
 10
219.455
 20
154.923
 30
0
 10
219.859
 20
153.843
 30
0
 10
220.275
 20
152.728
 30
0
 10
220.705
 20
151.576
 30
0
 10
221.149
 20
150.386
 30
0
 10
221.608
 20
149.157
 30
0
 10
222.081
 20
147.887
 30
0
 10
222.57
 20
146.576
 30
0
  0
SPLINE
  5
A7C
330
A02
100
AcDbEntity
  8
ProjItem002
100
AcDbSpline
210
0
220
0
230
1
 70
8
 71
3
 72
8
 73
4
 74
0
 40
3.29886
 40
3.29886
 40
3.29886
 40
3.29886
 40
3.61264
 40
3.61264
 40
3.61264
 40
3.61264
 10
207.453
 20
161.576
 30
0
 10
210.759
 20
161.576
 30
0
 10
213.98
 20
161.576
 30
0
 10
216.964
 20
161.576
 30
0
  0
SPLINE
  5
A7D
330
A02
100
AcDbEntity
  8
ProjItem002
100
AcDbSpline
210
0
220
0
230
1
 70
8
 71
1
 72
17
 73
15
 74
0
 40
-2.99322
 40
-2.99322
 40
-2.96108
 40
-2.92895
 40
-2.89681
 40
-2.86467
 40
-2.83253
 40
-2.80039
 40
-2.76825
 40
-2.73612
 40
-2.70398
 40
-2.67184
 40
-2.6397
 40
-2.60756
 40
-2.57542
 40
-2.54329
 40
-2.54329
 10
213.059
 20
146.576
 30
0
 10
212.571
 20
147.887
 30
0
 10
212.097
 20
149.157
 30
0
 10
211.639
 20
150.386
 30
0
 10
211.195
 20
151.576
 30
0
 10
210.765
 20
152.728
 30
0
 10
210.348
 20
153.843
 30
0
 10
209.945
 20
154.923
 30
0
 10
209.554
 20
155.968
 30
0
 10
209.175
 20
156.98
 30
0
 10
208.809
 20
157.96
 30
0
 10
208.453
 20
158.909
 30
0
 10
208.109
 20
159.827
 30
0
 10
207.776
 20
160.716
 30
0
 10
207.453
 20
161.576
 30
0
  0
SPLINE
  5
A7E
330
A02
100
AcDbEntity
  8
ProjItem002
100
AcDbSpline
210
0
220
0
230
1
 70
8
 71
3
 72
8
 73
4
 74
0
 40
2.9276
 40
2.9276
 40
2.9276
 40
2.9276
 40
3.35558
 40
3.35558
 40
3.35558
 40
3.35558
 10
191.823
 20
146.576
 30
0
 10
198.795
 20
146.576
 30
0
 10
206.087
 20
146.576
 30
0
 10
213.059
 20
146.576
 30
0
  0
SPLINE
  5
A7F
330
A02
100
AcDbEntity
  8
ProjItem002
100
AcDbSpline
210
0
220
0
230
1
 70
8
 71
1
 72
17
 73
15
 74
0
 40
2.54329
 40
2.54329
 40
2.57542
 40
2.60756
 40
2.6397
 40
2.67184
 40
2.70398
 40
2.73612
 40
2.76825
 40
2.80039
 40
2.83253
 40
2.86467
 40
2.89681
 40
2.92895
 40
2.96108
 40
2.99322
 40
2.99322
 10
197.429
 20
161.576
 30
0
 10
197.107
 20
160.716
 30
0
 10
196.773
 20
159.827
 30
0
 10
196.429
 20
158.909
 30
0
 10
196.074
 20
157.96
 30
0
 10
195.707
 20
156.98
 30
0
 10
195.329
 20
155.968
 30
0
 10
194.938
 20
154.923
 30
0
 10
194.534
 20
153.843
 30
0
 10
194.118
 20
152.728
 30
0
 10
193.688
 20
151.576
 30
0
 10
193.244
 20
150.386
 30
0
 10
192.785
 20
149.157
 30
0
 10
192.312
 20
147.887
 30
0
 10
191.823
 20
146.576
 30
0
  0
SPLINE
  5
A80
330
A02
100
AcDbEntity
  8
ProjItem002
100
AcDbSpline
210
0
220
0
230
1
 70
8
 71
3
 72
8
 73
4
 74
0
 40
2.67054
 40
2.67054
 40
2.67054
 40
2.67054
 40
2.98433
 40
2.98433
 40
2.98433
 40
2.98433
 10
187.919
 20
161.576
 30
0
 10
190.902
 20
161.576
 30
0
 10
194.124
 20
161.576
 30
0
 10
197.429
 20
161.576
 30
0
  0
SPLINE
  5
A81
330
A02
100
AcDbEntity
  8
ProjItem002
100
AcDbSpline
210
0
220
0
230
1
 70
8
 71
1
 72
17
 73
15
 74
0
 40
-2.99322
 40
-2.99322
 40
-2.96108
 40
-2.92895
 40
-2.89681
 40
-2.86467
 40
-2.83253
 40
-2.80039
 40
-2.76825
 40
-2.73612
 40
-2.70398
 40
-2.67184
 40
-2.6397
 40
-2.60756
 40
-2.57542
 40
-2.54329
 40
-2.54329
 10
182.313
 20
146.576
 30
0
 10
182.801
 20
147.887
 30
0
 10
183.275
 20
149.157
 30
0
 10
183.733
 20
150.386
 30
0
 10
184.177
 20
151.576
 30
0
 10
184.607
 20
152.728
 30
0
 10
185.024
 20
153.843
 30
0
 10
185.427
 20
154.923
 30
0
 10
185.818
 20
155.968
 30
0
 10
186.197
 20
156.98
 30
0
 10
186.563
 20
157.96
 30
0
 10
186.919
 20
158.909
 30
0
 10
187.263
 20
159.827
 30
0
 10
187.596
 20
160.716
 30
0
 10
187.919
 20
161.576
 30
0
  0
SPLINE
  5
A82
330
A02
100
AcDbEntity
  8
ProjItem002
100
AcDbSpline
210
0
220
0
230
1
 70
8
 71
1
 72
17
 73
15
 74
0
 40
2.29928
 40
2.29928
 40
2.32985
 40
2.36042
 40
2.39099
 40
2.42156
 40
2.45213
 40
2.4827
 40
2.51327
 40
2.54384
 40
2.57441
 40
2.60498
 40
2.63556
 40
2.66613
 40
2.6967
 40
2.72727
 40
2.72727
 10
165.132
 20
146.576
 30
0
 10
166.167
 20
146.576
 30
0
 10
167.236
 20
146.576
 30
0
 10
168.337
 20
146.576
 30
0
 10
169.471
 20
146.576
 30
0
 10
170.635
 20
146.576
 30
0
 10
171.829
 20
146.576
 30
0
 10
173.052
 20
146.576
 30
0
 10
174.302
 20
146.576
 30
0
 10
175.579
 20
146.576
 30
0
 10
176.88
 20
146.576
 30
0
 10
178.206
 20
146.576
 30
0
 10
179.554
 20
146.576
 30
0
 10
180.923
 20
146.576
 30
0
 10
182.313
 20
146.576
 30
0
  0
SPLINE
  5
A83
330
A02
100
AcDbEntity
  8
ProjItem002
100
AcDbSpline
210
0
220
0
230
1
 70
8
 71
1
 72
17
 73
15
 74
0
 40
2.54329
 40
2.54329
 40
2.57542
 40
2.60756
 40
2.6397
 40
2.67184
 40
2.70398
 40
2.73612
 40
2.76825
 40
2.80039
 40
2.83253
 40
2.86467
 40
2.89681
 40
2.92895
 40
2.96108
 40
2.99322
 40
2.99322
 10
179.81
 20
161.576
 30
0
 10
178.964
 20
160.716
 30
0
 10
178.092
 20
159.827
 30
0
 10
177.191
 20
158.909
 30
0
 10
176.261
 20
157.96
 30
0
 10
175.301
 20
156.98
 30
0
 10
174.31
 20
155.968
 30
0
 10
173.286
 20
154.923
 30
0
 10
172.23
 20
153.843
 30
0
 10
171.14
 20
152.728
 30
0
 10
170.014
 20
151.576
 30
0
 10
168.851
 20
150.386
 30
0
 10
167.651
 20
149.157
 30
0
 10
166.412
 20
147.887
 30
0
 10
165.132
 20
146.576
 30
0
  0
SPLINE
  5
A84
330
A02
100
AcDbEntity
  8
ProjItem002
100
AcDbSpline
210
0
220
0
230
1
 70
8
 71
1
 72
17
 73
15
 74
0
 40
2.04222
 40
2.04222
 40
2.06464
 40
2.08705
 40
2.10946
 40
2.13188
 40
2.15429
 40
2.1767
 40
2.19911
 40
2.22153
 40
2.24394
 40
2.26635
 40
2.28877
 40
2.31118
 40
2.33359
 40
2.35601
 40
2.35601
 10
173.932
 20
161.576
 30
0
 10
174.265
 20
161.576
 30
0
 10
174.612
 20
161.576
 30
0
 10
174.973
 20
161.576
 30
0
 10
175.347
 20
161.576
 30
0
 10
175.736
 20
161.576
 30
0
 10
176.138
 20
161.576
 30
0
 10
176.553
 20
161.576
 30
0
 10
176.981
 20
161.576
 30
0
 10
177.422
 20
161.576
 30
0
 10
177.875
 20
161.576
 30
0
 10
178.341
 20
161.576
 30
0
 10
178.819
 20
161.576
 30
0
 10
179.308
 20
161.576
 30
0
 10
179.81
 20
161.576
 30
0
  0
SPLINE
  5
A85
330
A02
100
AcDbEntity
  8
ProjItem002
100
AcDbSpline
210
0
220
0
230
1
 70
8
 71
1
 72
17
 73
15
 74
0
 40
-2.99322
 40
-2.99322
 40
-2.96108
 40
-2.92895
 40
-2.89681
 40
-2.86467
 40
-2.83253
 40
-2.80039
 40
-2.76825
 40
-2.73612
 40
-2.70398
 40
-2.67184
 40
-2.6397
 40
-2.60756
 40
-2.57542
 40
-2.54329
 40
-2.54329
 10
159.254
 20
146.576
 30
0
 10
160.534
 20
147.887
 30
0
 10
161.773
 20
149.157
 30
0
 10
162.973
 20
150.386
 30
0
 10
164.136
 20
151.576
 30
0
 10
165.262
 20
152.728
 30
0
 10
166.352
 20
153.843
 30
0
 10
167.409
 20
154.923
 30
0
 10
168.432
 20
155.968
 30
0
 10
169.423
 20
156.98
 30
0
 10
170.383
 20
157.96
 30
0
 10
171.313
 20
158.909
 30
0
 10
172.214
 20
159.827
 30
0
 10
173.086
 20
160.716
 30
0
 10
173.932
 20
161.576
 30
0
  0
SPLINE
  5
A86
330
A02
100
AcDbEntity
  8
ProjItem002
100
AcDbSpline
210
0
220
0
230
1
 70
8
 71
1
 72
17
 73
15
 74
0
 40
1.67096
 40
1.67096
 40
1.70153
 40
1.7321
 40
1.76267
 40
1.79324
 40
1.82382
 40
1.85439
 40
1.88496
 40
1.91553
 40
1.9461
 40
1.97667
 40
2.00724
 40
2.03781
 40
2.06838
 40
2.09895
 40
2.09895
 10
152.692
 20
146.576
 30
0
 10
152.868
 20
146.576
 30
0
 10
153.09
 20
146.576
 30
0
 10
153.359
 20
146.576
 30
0
 10
153.673
 20
146.576
 30
0
 10
154.033
 20
146.576
 30
0
 10
154.438
 20
146.576
 30
0
 10
154.888
 20
146.576
 30
0
 10
155.383
 20
146.576
 30
0
 10
155.921
 20
146.576
 30
0
 10
156.503
 20
146.576
 30
0
 10
157.128
 20
146.576
 30
0
 10
157.795
 20
146.576
 30
0
 10
158.504
 20
146.576
 30
0
 10
159.254
 20
146.576
 30
0
  0
SPLINE
  5
A87
330
A02
100
AcDbEntity
  8
ProjItem002
100
AcDbSpline
210
0
220
0
230
1
 70
8
 71
1
 72
17
 73
15
 74
0
 40
2.54329
 40
2.54329
 40
2.57542
 40
2.60756
 40
2.6397
 40
2.67184
 40
2.70398
 40
2.73612
 40
2.76825
 40
2.80039
 40
2.83253
 40
2.86467
 40
2.89681
 40
2.92895
 40
2.96108
 40
2.99322
 40
2.99322
 10
170.834
 20
161.576
 30
0
 10
169.789
 20
160.716
 30
0
 10
168.711
 20
159.827
 30
0
 10
167.597
 20
158.909
 30
0
 10
166.448
 20
157.96
 30
0
 10
165.261
 20
156.98
 30
0
 10
164.036
 20
155.968
 30
0
 10
162.771
 20
154.923
 30
0
 10
161.466
 20
153.843
 30
0
 10
160.117
 20
152.728
 30
0
 10
158.726
 20
151.576
 30
0
 10
157.289
 20
150.386
 30
0
 10
155.805
 20
149.157
 30
0
 10
154.273
 20
147.887
 30
0
 10
152.692
 20
146.576
 30
0
  0
SPLINE
  5
A88
330
A02
100
AcDbEntity
  8
ProjItem002
100
AcDbSpline
210
0
220
0
230
1
 70
8
 71
2
 72
6
 73
3
 74
0
 40
1.5708
 40
1.5708
 40
1.5708
 40
1.72769
 40
1.72769
 40
1.72769
 10
170.441
 20
161.576
 30
0
 10
170.442
 20
161.576
 30
0
 10
170.834
 20
161.576
 30
0
  0
SPLINE
  5
A89
330
A02
100
AcDbEntity
  8
ProjItem002
100
AcDbSpline
210
0
220
0
230
1
 70
8
 71
1
 72
17
 73
15
 74
0
 40
1.5708
 40
1.5708
 40
1.7952
 40
2.0196
 40
2.24399
 40
2.46839
 40
2.69279
 40
2.91719
 40
3.14159
 40
3.36599
 40
3.59039
 40
3.81479
 40
4.03919
 40
4.26359
 40
4.48799
 40
4.71239
 40
4.71239
 10
176.441
 20
166.576
 30
0
 10
177.093
 20
166.576
 30
0
 10
179.016
 20
166.576
 30
0
 10
182.114
 20
166.576
 30
0
 10
186.231
 20
166.576
 30
0
 10
191.16
 20
166.576
 30
0
 10
196.656
 20
166.576
 30
0
 10
202.441
 20
166.576
 30
0
 10
208.227
 20
166.576
 30
0
 10
213.722
 20
166.576
 30
0
 10
218.652
 20
166.576
 30
0
 10
222.769
 20
166.576
 30
0
 10
225.866
 20
166.576
 30
0
 10
227.789
 20
166.576
 30
0
 10
228.441
 20
166.576
 30
0
  0
LINE
  5
A8A
330
A02
100
AcDbEntity
  8
ProjItem002
100
AcDbLine
 10
225.073
 20
161.576
 30
0
 11
230.951
 21
161.576
 31
0
  0
LINE
  5
A8B
330
A02
100
AcDbEntity
  8
ProjItem002
100
AcDbLine
 10
173.932
 20
161.576
 30
0
 11
179.81
 21
161.576
 31
0
  0
LINE
  5
A8C
330
A02
100
AcDbEntity
  8
ProjItem002
100
AcDbLine
 10
239.75
 20
146.576
 30
0
 11
245.628
 21
146.576
 31
0
  0
LINE
  5
A8D
330
A02
100
AcDbEntity
  8
ProjItem002
100
AcDbLine
 10
211.952
 20
149.547
 30
0
 11
211.952
 21
161.576
 31
0
  0
LINE
  5
A8E
330
A02
100
AcDbEntity
  8
ProjItem002
100
AcDbLine
 10
222.57
 20
146.576
 30
0
 11
213.059
 21
146.576
 31
0
  0
LINE
  5
A8F
330
A02
100
AcDbEntity
  8
ProjItem002
100
AcDbLine
 10
192.931
 20
149.547
 30
0
 11
192.931
 21
161.576
 31
0
  0
LINE
  5
A90
330
A02
100
AcDbEntity
  8
ProjItem002
100
AcDbLine
 10
191.823
 20
146.576
 30
0
 11
182.313
 21
146.576
 31
0
  0
LINE
  5
A91
330
A02
100
AcDbEntity
  8
ProjItem002
100
AcDbLine
 10
159.254
 20
146.576
 30
0
 11
165.132
 21
146.576
 31
0
  0
LINE
  5
A92
330
A02
100
AcDbEntity
  8
ProjItem002
100
AcDbLine
 10
214.441
 20
166.576
 30
0
 11
214.441
 21
186.576
 31
0
  0
SPLINE
  5
A93
330
A02
100
AcDbEntity
  8
ProjItem002
100
AcDbSpline
210
0
220
0
230
1
 70
8
 71
2
 72
30
 73
27
 74
0
 40
1.5708
 40
1.5708
 40
1.5708
 40
1.683
 40
1.683
 40
1.7952
 40
1.7952
 40
1.9074
 40
1.9074
 40
2.0196
 40
2.0196
 40
2.1318
 40
2.1318
 40
2.24399
 40
2.24399
 40
2.35619
 40
2.35619
 40
2.46839
 40
2.46839
 40
2.58059
 40
2.58059
 40
2.69279
 40
2.69279
 40
2.80499
 40
2.80499
 40
2.91719
 40
2.91719
 40
3.14159
 40
3.14159
 40
3.14159
 10
214.441
 20
190.576
 30
0
 10
214.441
 20
190.564
 30
0
 10
214.441
 20
190.551
 30
0
 10
214.441
 20
190.513
 30
0
 10
214.441
 20
190.476
 30
0
 10
214.441
 20
190.414
 30
0
 10
214.441
 20
190.352
 30
0
 10
214.441
 20
190.266
 30
0
 10
214.441
 20
190.18
 30
0
 10
214.441
 20
190.072
 30
0
 10
214.441
 20
189.963
 30
0
 10
214.441
 20
189.833
 30
0
 10
214.441
 20
189.703
 30
0
 10
214.441
 20
189.554
 30
0
 10
214.441
 20
189.405
 30
0
 10
214.441
 20
189.237
 30
0
 10
214.441
 20
189.07
 30
0
 10
214.441
 20
188.887
 30
0
 10
214.441
 20
188.704
 30
0
 10
214.441
 20
188.508
 30
0
 10
214.441
 20
188.312
 30
0
 10
214.441
 20
188.104
 30
0
 10
214.441
 20
187.897
 30
0
 10
214.441
 20
187.682
 30
0
 10
214.441
 20
187.466
 30
0
 10
214.441
 20
187.026
 30
0
 10
214.441
 20
186.576
 30
0
  0
LINE
  5
A94
330
A02
100
AcDbEntity
  8
ProjItem002
100
AcDbLine
 10
216.441
 20
166.576
 30
0
 11
216.441
 21
186.576
 31
0
  0
SPLINE
  5
A95
330
A02
100
AcDbEntity
  8
ProjItem002
100
AcDbSpline
210
0
220
0
230
1
 70
8
 71
2
 72
30
 73
27
 74
0
 40
1.5708
 40
1.5708
 40
1.5708
 40
1.683
 40
1.683
 40
1.7952
 40
1.7952
 40
1.9074
 40
1.9074
 40
2.0196
 40
2.0196
 40
2.1318
 40
2.1318
 40
2.24399
 40
2.24399
 40
2.35619
 40
2.35619
 40
2.46839
 40
2.46839
 40
2.58059
 40
2.58059
 40
2.69279
 40
2.69279
 40
2.80499
 40
2.80499
 40
2.91719
 40
2.91719
 40
3.14159
 40
3.14159
 40
3.14159
 10
216.441
 20
190.576
 30
0
 10
216.441
 20
190.564
 30
0
 10
216.441
 20
190.551
 30
0
 10
216.441
 20
190.513
 30
0
 10
216.441
 20
190.476
 30
0
 10
216.441
 20
190.414
 30
0
 10
216.441
 20
190.352
 30
0
 10
216.441
 20
190.266
 30
0
 10
216.441
 20
190.18
 30
0
 10
216.441
 20
190.072
 30
0
 10
216.441
 20
189.963
 30
0
 10
216.441
 20
189.833
 30
0
 10
216.441
 20
189.703
 30
0
 10
216.441
 20
189.554
 30
0
 10
216.441
 20
189.405
 30
0
 10
216.441
 20
189.237
 30
0
 10
216.441
 20
189.07
 30
0
 10
216.441
 20
188.887
 30
0
 10
216.441
 20
188.704
 30
0
 10
216.441
 20
188.508
 30
0
 10
216.441
 20
188.312
 30
0
 10
216.441
 20
188.104
 30
0
 10
216.441
 20
187.897
 30
0
 10
216.441
 20
187.682
 30
0
 10
216.441
 20
187.466
 30
0
 10
216.441
 20
187.026
 30
0
 10
216.441
 20
186.576
 30
0
  0
LINE
  5
A96
330
A02
100
AcDbEntity
  8
ProjItem002
100
AcDbLine
 10
190.441
 20
166.576
 30
0
 11
190.441
 21
186.576
 31
0
  0
SPLINE
  5
A97
330
A02
100
AcDbEntity
  8
ProjItem002
100
AcDbSpline
210
0
220
0
230
1
 70
8
 71
2
 72
30
 73
27
 74
0
 40
1.5708
 40
1.5708
 40
1.5708
 40
1.683
 40
1.683
 40
1.7952
 40
1.7952
 40
1.9074
 40
1.9074
 40
2.0196
 40
2.0196
 40
2.1318
 40
2.1318
 40
2.24399
 40
2.24399
 40
2.35619
 40
2.35619
 40
2.46839
 40
2.46839
 40
2.58059
 40
2.58059
 40
2.69279
 40
2.69279
 40
2.80499
 40
2.80499
 40
2.91719
 40
2.91719
 40
3.14159
 40
3.14159
 40
3.14159
 10
190.441
 20
190.576
 30
0
 10
190.441
 20
190.564
 30
0
 10
190.441
 20
190.551
 30
0
 10
190.441
 20
190.513
 30
0
 10
190.441
 20
190.476
 30
0
 10
190.441
 20
190.414
 30
0
 10
190.441
 20
190.352
 30
0
 10
190.441
 20
190.266
 30
0
 10
190.441
 20
190.18
 30
0
 10
190.441
 20
190.072
 30
0
 10
190.441
 20
189.963
 30
0
 10
190.441
 20
189.833
 30
0
 10
190.441
 20
189.703
 30
0
 10
190.441
 20
189.554
 30
0
 10
190.441
 20
189.405
 30
0
 10
190.441
 20
189.237
 30
0
 10
190.441
 20
189.07
 30
0
 10
190.441
 20
188.887
 30
0
 10
190.441
 20
188.704
 30
0
 10
190.441
 20
188.508
 30
0
 10
190.441
 20
188.312
 30
0
 10
190.441
 20
188.104
 30
0
 10
190.441
 20
187.897
 30
0
 10
190.441
 20
187.682
 30
0
 10
190.441
 20
187.466
 30
0
 10
190.441
 20
187.026
 30
0
 10
190.441
 20
186.576
 30
0
  0
LINE
  5
A98
330
A02
100
AcDbEntity
  8
ProjItem002
100
AcDbLine
 10
188.441
 20
166.576
 30
0
 11
188.441
 21
186.576
 31
0
  0
SPLINE
  5
A99
330
A02
100
AcDbEntity
  8
ProjItem002
100
AcDbSpline
210
0
220
0
230
1
 70
8
 71
2
 72
30
 73
27
 74
0
 40
1.5708
 40
1.5708
 40
1.5708
 40
1.683
 40
1.683
 40
1.7952
 40
1.7952
 40
1.9074
 40
1.9074
 40
2.0196
 40
2.0196
 40
2.1318
 40
2.1318
 40
2.24399
 40
2.24399
 40
2.35619
 40
2.35619
 40
2.46839
 40
2.46839
 40
2.58059
 40
2.58059
 40
2.69279
 40
2.69279
 40
2.80499
 40
2.80499
 40
2.91719
 40
2.91719
 40
3.14159
 40
3.14159
 40
3.14159
 10
188.441
 20
190.576
 30
0
 10
188.441
 20
190.564
 30
0
 10
188.441
 20
190.551
 30
0
 10
188.441
 20
190.513
 30
0
 10
188.441
 20
190.476
 30
0
 10
188.441
 20
190.414
 30
0
 10
188.441
 20
190.352
 30
0
 10
188.441
 20
190.266
 30
0
 10
188.441
 20
190.18
 30
0
 10
188.441
 20
190.072
 30
0
 10
188.441
 20
189.963
 30
0
 10
188.441
 20
189.833
 30
0
 10
188.441
 20
189.703
 30
0
 10
188.441
 20
189.554
 30
0
 10
188.441
 20
189.405
 30
0
 10
188.441
 20
189.237
 30
0
 10
188.441
 20
189.07
 30
0
 10
188.441
 20
188.887
 30
0
 10
188.441
 20
188.704
 30
0
 10
188.441
 20
188.508
 30
0
 10
188.441
 20
188.312
 30
0
 10
188.441
 20
188.104
 30
0
 10
188.441
 20
187.897
 30
0
 10
188.441
 20
187.682
 30
0
 10
188.441
 20
187.466
 30
0
 10
188.441
 20
187.026
 30
0
 10
188.441
 20
186.576
 30
0
  0
LINE
  5
A9A
330
A02
100
AcDbEntity
  8
ProjItem002
100
AcDbLine
 10
214.441
 20
190.576
 30
0
 11
216.441
 21
190.576
 31
0
  0
LINE
  5
A9B
330
A02
100
AcDbEntity
  8
ProjItem002
100
AcDbLine
 10
214.441
 20
190.576
 30
0
 11
216.441
 21
190.576
 31
0
  0
LINE
  5
A9C
330
A02
100
AcDbEntity
  8
ProjItem002
100
AcDbLine
 10
190.441
 20
190.576
 30
0
 11
188.441
 21
190.576
 31
0
  0
LINE
  5
A9D
330
A02
100
AcDbEntity
  8
ProjItem002
100
AcDbLine
 10
190.441
 20
190.576
 30
0
 11
188.441
 21
190.576
 31
0
  0
LINE
  5
A9E
330
A02
100
AcDbEntity
  8
ProjItem002
100
AcDbLine
 10
228.441
 20
166.576
 30
0
 11
234.441
 21
161.576
 31
0
  0
LINE
  5
A9F
330
A02
100
AcDbEntity
  8
ProjItem002
100
AcDbLine
 10
176.441
 20
166.576
 30
0
 11
170.441
 21
161.576
 31
0
  0
LINE
  5
AA0
330
A02
100
AcDbEntity
  8
ProjItem002
100
AcDbLine
 10
214.441
 20
186.576
 30
0
 11
216.441
 21
186.576
 31
0
  0
LINE
  5
AA1
330
A02
100
AcDbEntity
  8
ProjItem002
100
AcDbLine
 10
190.441
 20
186.576
 30
0
 11
188.441
 21
186.576
 31
0
  0
LINE
  5
AA2
330
A02
100
AcDbEntity
  8
View
100
AcDbLine
 10
196.083
 20
79.9816
 30
0
 11
190.708
 21
60.3875
 31
0
  0
ELLIPSE
  5
AA3
330
A02
100
AcDbEntity
  8
View
100
AcDbEllipse
 10
203.429
 20
88.3051
 30
0
 11
50
 21
3.06162e-15
 31
0
 40
0.57735
 41
4.02716
 42
4.45514
  0
SPLINE
  5
AA4
330
A02
100
AcDbEntity
  8
View
100
AcDbSpline
210
0
220
0
230
1
 70
8
 71
1
 72
17
 73
15
 74
0
 40
2.54329
 40
2.54329
 40
2.57542
 40
2.60756
 40
2.6397
 40
2.67184
 40
2.70398
 40
2.73612
 40
2.76825
 40
2.80039
 40
2.83253
 40
2.86467
 40
2.89681
 40
2.92895
 40
2.96108
 40
2.99322
 40
2.99322
 10
184.615
 20
85.6079
 30
0
 10
183.876
 20
84.4788
 30
0
 10
183.113
 20
83.3126
 30
0
 10
182.326
 20
82.1083
 30
0
 10
181.513
 20
80.8646
 30
0
 10
180.674
 20
79.5802
 30
0
 10
179.808
 20
78.2537
 30
0
 10
178.913
 20
76.8838
 30
0
 10
177.99
 20
75.469
 30
0
 10
177.037
 20
74.008
 30
0
 10
176.053
 20
72.4991
 30
0
 10
175.037
 20
70.9409
 30
0
 10
173.988
 20
69.3318
 30
0
 10
172.905
 20
67.67
 30
0
 10
171.786
 20
65.9538
 30
0
  0
LINE
  5
AA5
330
A02
100
AcDbEntity
  8
View
100
AcDbLine
 10
196.083
 20
82.5708
 30
0
 11
196.083
 21
79.9816
 31
0
  0
SPLINE
  5
AA6
330
A02
100
AcDbEntity
  8
View
100
AcDbSpline
210
0
220
0
230
1
 70
8
 71
1
 72
17
 73
15
 74
0
 40
-2.99322
 40
-2.99322
 40
-2.96108
 40
-2.92895
 40
-2.89681
 40
-2.86467
 40
-2.83253
 40
-2.80039
 40
-2.76825
 40
-2.73612
 40
-2.70398
 40
-2.67184
 40
-2.6397
 40
-2.60756
 40
-2.57542
 40
-2.54329
 40
-2.54329
 10
190.708
 20
60.3875
 30
0
 10
190.955
 20
62.3599
 30
0
 10
191.195
 20
64.2698
 30
0
 10
191.427
 20
66.1193
 30
0
 10
191.652
 20
67.9103
 30
0
 10
191.87
 20
69.6446
 30
0
 10
192.08
 20
71.324
 30
0
 10
192.285
 20
72.9503
 30
0
 10
192.483
 20
74.5251
 30
0
 10
192.674
 20
76.05
 30
0
 10
192.86
 20
77.5267
 30
0
 10
193.04
 20
78.9567
 30
0
 10
193.214
 20
80.3413
 30
0
 10
193.383
 20
81.6822
 30
0
 10
193.546
 20
82.9806
 30
0
  0
SPLINE
  5
AA7
330
A02
100
AcDbEntity
  8
View
100
AcDbSpline
210
0
220
0
230
1
 70
8
 71
1
 72
17
 73
15
 74
0
 40
-2.99322
 40
-2.99322
 40
-2.96108
 40
-2.92895
 40
-2.89681
 40
-2.86467
 40
-2.83253
 40
-2.80039
 40
-2.76825
 40
-2.73612
 40
-2.70398
 40
-2.67184
 40
-2.6397
 40
-2.60756
 40
-2.57542
 40
-2.54329
 40
-2.54329
 10
221.56
 20
61.4024
 30
0
 10
220.842
 20
63.2864
 30
0
 10
220.146
 20
65.1109
 30
0
 10
219.473
 20
66.8776
 30
0
 10
218.82
 20
68.5883
 30
0
 10
218.188
 20
70.2449
 30
0
 10
217.576
 20
71.8491
 30
0
 10
216.984
 20
73.4025
 30
0
 10
216.409
 20
74.9067
 30
0
 10
215.853
 20
76.3633
 30
0
 10
215.315
 20
77.7737
 30
0
 10
214.793
 20
79.1395
 30
0
 10
214.287
 20
80.462
 30
0
 10
213.797
 20
81.7426
 30
0
 10
213.323
 20
82.9827
 30
0
  0
ELLIPSE
  5
AA8
330
A02
100
AcDbEntity
  8
View
100
AcDbEllipse
 10
203.429
 20
88.3051
 30
0
 11
50
 21
3.06162e-15
 31
0
 40
0.57735
 41
4.65548
 42
5.08346
  0
SPLINE
  5
AA9
330
A02
100
AcDbEntity
  8
View
100
AcDbSpline
210
0
220
0
230
1
 70
8
 71
1
 72
17
 73
15
 74
0
 40
2.54329
 40
2.54329
 40
2.57542
 40
2.60756
 40
2.6397
 40
2.67184
 40
2.70398
 40
2.73612
 40
2.76825
 40
2.80039
 40
2.83253
 40
2.86467
 40
2.89681
 40
2.92895
 40
2.96108
 40
2.99322
 40
2.99322
 10
203.423
 20
82.0774
 30
0
 10
203.259
 20
80.779
 30
0
 10
203.091
 20
79.4382
 30
0
 10
202.916
 20
78.0535
 30
0
 10
202.737
 20
76.6235
 30
0
 10
202.551
 20
75.1469
 30
0
 10
202.359
 20
73.6219
 30
0
 10
202.162
 20
72.0471
 30
0
 10
201.957
 20
70.4208
 30
0
 10
201.746
 20
68.7414
 30
0
 10
201.529
 20
67.0071
 30
0
 10
201.304
 20
65.2162
 30
0
 10
201.072
 20
63.3667
 30
0
 10
200.832
 20
61.4567
 30
0
 10
200.585
 20
59.4844
 30
0
  0
ELLIPSE
  5
AAA
330
A02
100
AcDbEntity
  8
View
100
AcDbEllipse
 10
203.429
 20
100.553
 30
0
 11
32
 21
1.95943e-15
 31
0
 40
0.57735
 41
4.39842
 42
4.7122
  0
ELLIPSE
  5
AAB
330
A02
100
AcDbEntity
  8
View
100
AcDbEllipse
 10
203.429
 20
100.553
 30
0
 11
32
 21
1.95943e-15
 31
0
 40
0.57735
 41
3.7701
 42
4.08388
  0
SPLINE
  5
AAC
330
A02
100
AcDbEntity
  8
View
100
AcDbSpline
210
0
220
0
230
1
 70
8
 71
1
 72
17
 73
15
 74
0
 40
-2.99322
 40
-2.99322
 40
-2.96108
 40
-2.92895
 40
-2.89681
 40
-2.86467
 40
-2.83253
 40
-2.80039
 40
-2.76825
 40
-2.73612
 40
-2.70398
 40
-2.67184
 40
-2.6397
 40
-2.60756
 40
-2.57542
 40
-2.54329
 40
-2.54329
 10
164.715
 20
70.0363
 30
0
 10
165.833
 20
71.7524
 30
0
 10
166.917
 20
73.4143
 30
0
 10
167.966
 20
75.0234
 30
0
 10
168.982
 20
76.5816
 30
0
 10
169.966
 20
78.0905
 30
0
 10
170.919
 20
79.5515
 30
0
 10
171.842
 20
80.9662
 30
0
 10
172.737
 20
82.3362
 30
0
 10
173.603
 20
83.6627
 30
0
 10
174.442
 20
84.9471
 30
0
 10
175.255
 20
86.1908
 30
0
 10
176.042
 20
87.3951
 30
0
 10
176.805
 20
88.5612
 30
0
 10
177.544
 20
89.6904
 30
0
  0
ELLIPSE
  5
AAD
330
A02
100
AcDbEntity
  8
View
100
AcDbEllipse
 10
203.429
 20
88.3051
 30
0
 11
50
 21
3.06162e-15
 31
0
 40
0.57735
 41
3.39884
 42
3.82682
  0
SPLINE
  5
AAE
330
A02
100
AcDbEntity
  8
View
100
AcDbSpline
210
0
220
0
230
1
 70
8
 71
1
 72
17
 73
15
 74
0
 40
2.54329
 40
2.54329
 40
2.57542
 40
2.60756
 40
2.6397
 40
2.67184
 40
2.70398
 40
2.73612
 40
2.76825
 40
2.80039
 40
2.83253
 40
2.86467
 40
2.89681
 40
2.92895
 40
2.96108
 40
2.99322
 40
2.99322
 10
172.993
 20
94.8467
 30
0
 10
171.961
 20
94.0498
 30
0
 10
170.896
 20
93.2267
 30
0
 10
169.796
 20
92.3764
 30
0
 10
168.661
 20
91.4981
 30
0
 10
167.489
 20
90.5909
 30
0
 10
166.279
 20
89.6539
 30
0
 10
165.029
 20
88.6861
 30
0
 10
163.74
 20
87.6865
 30
0
 10
162.408
 20
86.6541
 30
0
 10
161.034
 20
85.5877
 30
0
 10
159.614
 20
84.4864
 30
0
 10
158.149
 20
83.3489
 30
0
 10
156.636
 20
82.174
 30
0
 10
155.074
 20
80.9607
 30
0
  0
ELLIPSE
  5
AAF
330
A02
100
AcDbEntity
  8
View
100
AcDbEllipse
 10
203.429
 20
100.553
 30
0
 11
32
 21
1.95943e-15
 31
0
 40
0.57735
 41
3.14178
 42
3.45557
  0
SPLINE
  5
AB0
330
A02
100
AcDbEntity
  8
View
100
AcDbSpline
210
0
220
0
230
1
 70
8
 71
1
 72
17
 73
15
 74
0
 40
-2.99322
 40
-2.99322
 40
-2.96108
 40
-2.92895
 40
-2.89681
 40
-2.86467
 40
-2.83253
 40
-2.80039
 40
-2.76825
 40
-2.73612
 40
-2.70398
 40
-2.67184
 40
-2.6397
 40
-2.60756
 40
-2.57542
 40
-2.54329
 40
-2.54329
 10
153.51
 20
86.6631
 30
0
 10
155.072
 20
87.8765
 30
0
 10
156.585
 20
89.0513
 30
0
 10
158.05
 20
90.1888
 30
0
 10
159.469
 20
91.2901
 30
0
 10
160.844
 20
92.3565
 30
0
 10
162.175
 20
93.3889
 30
0
 10
163.465
 20
94.3885
 30
0
 10
164.714
 20
95.3564
 30
0
 10
165.924
 20
96.2934
 30
0
 10
167.096
 20
97.2005
 30
0
 10
168.232
 20
98.0788
 30
0
 10
169.331
 20
98.9291
 30
0
 10
170.397
 20
99.7522
 30
0
 10
171.429
 20
100.549
 30
0
  0
ELLIPSE
  5
AB1
330
A02
100
AcDbEntity
  8
View
100
AcDbEllipse
 10
203.429
 20
88.3051
 30
0
 11
50
 21
3.06162e-15
 31
0
 40
0.57735
 41
2.77052
 42
3.1985
  0
SPLINE
  5
AB2
330
A02
100
AcDbEntity
  8
View
100
AcDbSpline
210
0
220
0
230
1
 70
8
 71
1
 72
17
 73
15
 74
0
 40
2.54329
 40
2.54329
 40
2.57542
 40
2.60756
 40
2.6397
 40
2.67184
 40
2.70398
 40
2.73612
 40
2.76825
 40
2.80039
 40
2.83253
 40
2.86467
 40
2.89681
 40
2.92895
 40
2.96108
 40
2.99322
 40
2.99322
 10
172.997
 20
106.265
 30
0
 10
172.066
 20
105.836
 30
0
 10
171.105
 20
105.393
 30
0
 10
170.113
 20
104.936
 30
0
 10
169.088
 20
104.462
 30
0
 10
168.031
 20
103.973
 30
0
 10
166.94
 20
103.468
 30
0
 10
165.813
 20
102.946
 30
0
 10
164.649
 20
102.407
 30
0
 10
163.448
 20
101.849
 30
0
 10
162.208
 20
101.273
 30
0
 10
160.928
 20
100.679
 30
0
 10
159.606
 20
100.064
 30
0
 10
158.241
 20
99.4289
 30
0
 10
156.832
 20
98.7729
 30
0
  0
ELLIPSE
  5
AB3
330
A02
100
AcDbEntity
  8
View
100
AcDbEllipse
 10
203.429
 20
100.553
 30
0
 11
32
 21
1.95943e-15
 31
0
 40
0.57735
 41
2.51346
 42
2.82725
  0
SPLINE
  5
AB4
330
A02
100
AcDbEntity
  8
View
100
AcDbSpline
210
0
220
0
230
1
 70
8
 71
1
 72
17
 73
15
 74
0
 40
-2.99322
 40
-2.99322
 40
-2.96108
 40
-2.92895
 40
-2.89681
 40
-2.86467
 40
-2.83253
 40
-2.80039
 40
-2.76825
 40
-2.73612
 40
-2.70398
 40
-2.67184
 40
-2.6397
 40
-2.60756
 40
-2.57542
 40
-2.54329
 40
-2.54329
 10
161.372
 20
103.917
 30
0
 10
162.781
 20
104.573
 30
0
 10
164.146
 20
105.208
 30
0
 10
165.468
 20
105.823
 30
0
 10
166.748
 20
106.418
 30
0
 10
167.988
 20
106.994
 30
0
 10
169.189
 20
107.551
 30
0
 10
170.353
 20
108.09
 30
0
 10
171.479
 20
108.612
 30
0
 10
172.571
 20
109.118
 30
0
 10
173.628
 20
109.607
 30
0
 10
174.653
 20
110.08
 30
0
 10
175.645
 20
110.538
 30
0
 10
176.606
 20
110.981
 30
0
 10
177.537
 20
111.409
 30
0
  0
ELLIPSE
  5
AB5
330
A02
100
AcDbEntity
  8
View
100
AcDbEllipse
 10
203.429
 20
88.3051
 30
0
 11
50
 21
3.06162e-15
 31
0
 40
0.57735
 41
2.1422
 42
2.57019
  0
SPLINE
  5
AB6
330
A02
100
AcDbEntity
  8
View
100
AcDbSpline
210
0
220
0
230
1
 70
8
 71
2
 72
26
 73
23
 74
0
 40
2.71752
 40
2.71752
 40
2.71752
 40
2.73722
 40
2.73722
 40
2.7766
 40
2.7766
 40
2.81599
 40
2.81599
 40
2.85537
 40
2.85537
 40
2.87507
 40
2.87507
 40
2.89476
 40
2.89476
 40
2.91445
 40
2.91445
 40
2.93414
 40
2.93414
 40
2.95384
 40
2.95384
 40
2.97353
 40
2.97353
 40
2.99322
 40
2.99322
 40
2.99322
 10
181.862
 20
114.534
 30
0
 10
181.69
 20
114.474
 30
0
 10
181.519
 20
114.413
 30
0
 10
181.171
 20
114.29
 30
0
 10
180.812
 20
114.163
 30
0
 10
180.45
 20
114.035
 30
0
 10
180.077
 20
113.902
 30
0
 10
179.7
 20
113.769
 30
0
 10
179.312
 20
113.631
 30
0
 10
179.115
 20
113.561
 30
0
 10
178.919
 20
113.491
 30
0
 10
178.718
 20
113.419
 30
0
 10
178.517
 20
113.348
 30
0
 10
178.313
 20
113.275
 30
0
 10
178.108
 20
113.202
 30
0
 10
177.899
 20
113.127
 30
0
 10
177.69
 20
113.053
 30
0
 10
177.478
 20
112.977
 30
0
 10
177.265
 20
112.901
 30
0
 10
177.048
 20
112.823
 30
0
 10
176.831
 20
112.745
 30
0
 10
176.609
 20
112.666
 30
0
 10
176.388
 20
112.587
 30
0
  0
ELLIPSE
  5
AB7
330
A02
100
AcDbEntity
  8
View
100
AcDbEllipse
 10
203.429
 20
88.3051
 30
0
 11
50
 21
3.06162e-15
 31
0
 40
0.57735
 41
0.885566
 42
1.0132
  0
SPLINE
  5
AB8
330
A02
100
AcDbEntity
  8
View
100
AcDbSpline
210
0
220
0
230
1
 70
8
 71
1
 72
17
 73
15
 74
0
 40
2.65816
 40
2.65816
 40
2.6821
 40
2.70603
 40
2.72996
 40
2.7539
 40
2.77783
 40
2.80176
 40
2.82569
 40
2.84963
 40
2.87356
 40
2.89749
 40
2.92142
 40
2.94536
 40
2.96929
 40
2.99322
 40
2.99322
 10
224.996
 20
114.467
 30
0
 10
225.61
 20
114.236
 30
0
 10
226.238
 20
114
 30
0
 10
226.882
 20
113.757
 30
0
 10
227.541
 20
113.509
 30
0
 10
228.216
 20
113.254
 30
0
 10
228.908
 20
112.993
 30
0
 10
229.615
 20
112.725
 30
0
 10
230.34
 20
112.451
 30
0
 10
231.083
 20
112.17
 30
0
 10
231.843
 20
111.882
 30
0
 10
232.622
 20
111.587
 30
0
 10
233.419
 20
111.284
 30
0
 10
234.235
 20
110.974
 30
0
 10
235.071
 20
110.656
 30
0
  0
ELLIPSE
  5
AB9
330
A02
100
AcDbEntity
  8
View
100
AcDbEllipse
 10
203.429
 20
100.553
 30
0
 11
32
 21
1.95943e-15
 31
0
 40
0.57735
 41
0.628505
 42
0.831239
  0
SPLINE
  5
ABA
330
A02
100
AcDbEntity
  8
View
100
AcDbSpline
210
0
220
0
230
1
 70
8
 71
1
 72
17
 73
15
 74
0
 40
-2.99322
 40
-2.99322
 40
-2.96108
 40
-2.92895
 40
-2.89681
 40
-2.86467
 40
-2.83253
 40
-2.80039
 40
-2.76825
 40
-2.73612
 40
-2.70398
 40
-2.67184
 40
-2.6397
 40
-2.60756
 40
-2.57542
 40
-2.54329
 40
-2.54329
 10
242.143
 20
106.574
 30
0
 10
241.024
 20
106.999
 30
0
 10
239.941
 20
107.41
 30
0
 10
238.892
 20
107.808
 30
0
 10
237.876
 20
108.193
 30
0
 10
236.892
 20
108.565
 30
0
 10
235.939
 20
108.926
 30
0
 10
235.015
 20
109.274
 30
0
 10
234.121
 20
109.611
 30
0
 10
233.255
 20
109.938
 30
0
 10
232.416
 20
110.253
 30
0
 10
231.603
 20
110.558
 30
0
 10
230.815
 20
110.854
 30
0
 10
230.053
 20
111.139
 30
0
 10
229.314
 20
111.415
 30
0
  0
ELLIPSE
  5
ABB
330
A02
100
AcDbEntity
  8
View
100
AcDbEllipse
 10
203.429
 20
88.3051
 30
0
 11
50
 21
3.06162e-15
 31
0
 40
0.57735
 41
0.257247
 42
0.685231
  0
SPLINE
  5
ABC
330
A02
100
AcDbEntity
  8
View
100
AcDbSpline
210
0
220
0
230
1
 70
8
 71
1
 72
17
 73
15
 74
0
 40
2.54329
 40
2.54329
 40
2.57542
 40
2.60756
 40
2.6397
 40
2.67184
 40
2.70398
 40
2.73612
 40
2.76825
 40
2.80039
 40
2.83253
 40
2.86467
 40
2.89681
 40
2.92895
 40
2.96108
 40
2.99322
 40
2.99322
 10
233.865
 20
106.258
 30
0
 10
234.897
 20
105.65
 30
0
 10
235.962
 20
105.022
 30
0
 10
237.062
 20
104.373
 30
0
 10
238.197
 20
103.702
 30
0
 10
239.369
 20
103.009
 30
0
 10
240.579
 20
102.294
 30
0
 10
241.828
 20
101.554
 30
0
 10
243.118
 20
100.791
 30
0
 10
244.449
 20
100.002
 30
0
 10
245.824
 20
99.1867
 30
0
 10
247.243
 20
98.3449
 30
0
 10
248.709
 20
97.4754
 30
0
 10
250.222
 20
96.5773
 30
0
 10
251.784
 20
95.6496
 30
0
  0
ELLIPSE
  5
ABD
330
A02
100
AcDbEntity
  8
View
100
AcDbEllipse
 10
203.429
 20
100.553
 30
0
 11
32
 21
1.95943e-15
 31
0
 40
0.57735
 41
0.000186762
 42
0.313973
  0
SPLINE
  5
ABE
330
A02
100
AcDbEntity
  8
View
100
AcDbSpline
210
0
220
0
230
1
 70
8
 71
1
 72
17
 73
15
 74
0
 40
-2.99322
 40
-2.99322
 40
-2.96108
 40
-2.92895
 40
-2.89681
 40
-2.86467
 40
-2.83253
 40
-2.80039
 40
-2.76825
 40
-2.73612
 40
-2.70398
 40
-2.67184
 40
-2.6397
 40
-2.60756
 40
-2.57542
 40
-2.54329
 40
-2.54329
 10
253.348
 20
89.9472
 30
0
 10
251.786
 20
90.8748
 30
0
 10
250.273
 20
91.773
 30
0
 10
248.808
 20
92.6425
 30
0
 10
247.388
 20
93.4843
 30
0
 10
246.014
 20
94.2992
 30
0
 10
244.682
 20
95.0882
 30
0
 10
243.393
 20
95.8519
 30
0
 10
242.143
 20
96.5913
 30
0
 10
240.934
 20
97.307
 30
0
 10
239.761
 20
97.9998
 30
0
 10
238.626
 20
98.6704
 30
0
 10
237.526
 20
99.3196
 30
0
 10
236.461
 20
99.9479
 30
0
 10
235.429
 20
100.556
 30
0
  0
ELLIPSE
  5
ABF
330
A02
100
AcDbEntity
  8
View
100
AcDbEllipse
 10
203.429
 20
88.3051
 30
0
 11
50
 21
3.06162e-15
 31
0
 40
0.57735
 41
5.91211
 42
0.0569122
  0
SPLINE
  5
AC0
330
A02
100
AcDbEntity
  8
View
100
AcDbSpline
210
0
220
0
230
1
 70
8
 71
1
 72
17
 73
15
 74
0
 40
2.54329
 40
2.54329
 40
2.57542
 40
2.60756
 40
2.6397
 40
2.67184
 40
2.70398
 40
2.73612
 40
2.76825
 40
2.80039
 40
2.83253
 40
2.86467
 40
2.89681
 40
2.92895
 40
2.96108
 40
2.99322
 40
2.99322
 10
233.861
 20
94.8402
 30
0
 10
234.792
 20
93.8637
 30
0
 10
235.753
 20
92.8553
 30
0
 10
236.745
 20
91.8137
 30
0
 10
237.769
 20
90.738
 30
0
 10
238.827
 20
89.6269
 30
0
 10
239.918
 20
88.4795
 30
0
 10
241.045
 20
87.2944
 30
0
 10
242.209
 20
86.0704
 30
0
 10
243.41
 20
84.8064
 30
0
 10
244.65
 20
83.501
 30
0
 10
245.93
 20
82.1527
 30
0
 10
247.252
 20
80.7604
 30
0
 10
248.617
 20
79.3224
 30
0
 10
250.026
 20
77.8374
 30
0
  0
ELLIPSE
  5
AC1
330
A02
100
AcDbEntity
  8
View
100
AcDbEllipse
 10
203.429
 20
100.553
 30
0
 11
32
 21
1.95943e-15
 31
0
 40
0.57735
 41
5.65505
 42
5.96884
  0
SPLINE
  5
AC2
330
A02
100
AcDbEntity
  8
View
100
AcDbSpline
210
0
220
0
230
1
 70
8
 71
1
 72
17
 73
15
 74
0
 40
-2.99322
 40
-2.99322
 40
-2.96108
 40
-2.92895
 40
-2.89681
 40
-2.86467
 40
-2.83253
 40
-2.80039
 40
-2.76825
 40
-2.73612
 40
-2.70398
 40
-2.67184
 40
-2.6397
 40
-2.60756
 40
-2.57542
 40
-2.54329
 40
-2.54329
 10
245.486
 20
72.6932
 30
0
 10
244.077
 20
74.1782
 30
0
 10
242.712
 20
75.6161
 30
0
 10
241.39
 20
77.0085
 30
0
 10
240.11
 20
78.3567
 30
0
 10
238.87
 20
79.6622
 30
0
 10
237.669
 20
80.9262
 30
0
 10
236.505
 20
82.1501
 30
0
 10
235.378
 20
83.3352
 30
0
 10
234.287
 20
84.4827
 30
0
 10
233.229
 20
85.5937
 30
0
 10
232.205
 20
86.6695
 30
0
 10
231.213
 20
87.711
 30
0
 10
230.252
 20
88.7195
 30
0
 10
229.321
 20
89.6959
 30
0
  0
ELLIPSE
  5
AC3
330
A02
100
AcDbEntity
  8
View
100
AcDbEllipse
 10
203.429
 20
88.3051
 30
0
 11
50
 21
3.06162e-15
 31
0
 40
0.57735
 41
5.49779
 42
5.71178
  0
ELLIPSE
  5
AC4
330
A02
100
AcDbEntity
  8
View
100
AcDbEllipse
 10
203.429
 20
104.635
 30
0
 11
26
 21
1.59204e-15
 31
0
 40
0.57735
 41
5.49779
 42
0.592601
  0
ELLIPSE
  5
AC5
330
A02
100
AcDbEntity
  8
View
100
AcDbEllipse
 10
203.429
 20
104.635
 30
0
 11
26
 21
1.59204e-15
 31
0
 40
0.57735
 41
0.929338
 42
0.961565
  0
ELLIPSE
  5
AC6
330
A02
100
AcDbEntity
  8
View
100
AcDbEllipse
 10
203.429
 20
104.635
 30
0
 11
26
 21
1.59204e-15
 31
0
 40
0.57735
 41
1.48018
 42
1.48891
  0
ELLIPSE
  5
AC7
330
A02
100
AcDbEntity
  8
View
100
AcDbEllipse
 10
203.429
 20
104.635
 30
0
 11
26
 21
1.59204e-15
 31
0
 40
0.57735
 41
1.69349
 42
1.87647
  0
ELLIPSE
  5
AC8
330
A02
100
AcDbEntity
  8
View
100
AcDbEllipse
 10
203.429
 20
104.635
 30
0
 11
26
 21
1.59204e-15
 31
0
 40
0.57735
 41
2.18105
 42
2.19829
  0
ELLIPSE
  5
AC9
330
A02
100
AcDbEntity
  8
View
100
AcDbEllipse
 10
203.429
 20
104.635
 30
0
 11
26
 21
1.59204e-15
 31
0
 40
0.57735
 41
2.54899
 42
5.49779
  0
ELLIPSE
  5
ACA
330
A02
100
AcDbEntity
  8
View
100
AcDbEllipse
 10
203.429
 20
88.3051
 30
0
 11
50
 21
3.06162e-15
 31
0
 40
0.57735
 41
5.2838
 42
5.49779
  0
SPLINE
  5
ACB
330
A02
100
AcDbEntity
  8
View
100
AcDbSpline
210
0
220
0
230
1
 70
8
 71
1
 72
17
 73
15
 74
0
 40
2.54329
 40
2.54329
 40
2.57542
 40
2.60756
 40
2.6397
 40
2.67184
 40
2.70398
 40
2.73612
 40
2.76825
 40
2.80039
 40
2.83253
 40
2.86467
 40
2.89681
 40
2.92895
 40
2.96108
 40
2.99322
 40
2.99322
 10
222.233
 20
85.6038
 30
0
 10
222.708
 20
84.3637
 30
0
 10
223.197
 20
83.0831
 30
0
 10
223.703
 20
81.7606
 30
0
 10
224.225
 20
80.3948
 30
0
 10
224.763
 20
78.9844
 30
0
 10
225.32
 20
77.5278
 30
0
 10
225.894
 20
76.0236
 30
0
 10
226.487
 20
74.4702
 30
0
 10
227.099
 20
72.8661
 30
0
 10
227.73
 20
71.2095
 30
0
 10
228.383
 20
69.4987
 30
0
 10
229.056
 20
67.732
 30
0
 10
229.752
 20
65.9076
 30
0
 10
230.47
 20
64.0235
 30
0
  0
ELLIPSE
  5
ACC
330
A02
100
AcDbEntity
  8
View
100
AcDbEllipse
 10
203.429
 20
100.553
 30
0
 11
32
 21
1.95943e-15
 31
0
 40
0.57735
 41
5.02674
 42
5.34052
  0
LINE
  5
ACD
330
A02
100
AcDbEntity
  8
View
100
AcDbLine
 10
164.715
 20
70.0363
 30
0
 11
180.328
 21
79.0503
 31
0
  0
LINE
  5
ACE
330
A02
100
AcDbEntity
  8
View
100
AcDbLine
 10
163.611
 20
87.5868
 30
0
 11
153.51
 21
86.6631
 31
0
  0
LINE
  5
ACF
330
A02
100
AcDbEntity
  8
View
100
AcDbLine
 10
161.372
 20
103.917
 30
0
 11
165.37
 21
102.741
 31
0
  0
LINE
  5
AD0
330
A02
100
AcDbEntity
  8
View
100
AcDbLine
 10
233.601
 20
109.807
 30
0
 11
235.071
 21
110.656
 31
0
  0
LINE
  5
AD1
330
A02
100
AcDbEntity
  8
View
100
AcDbLine
 10
251.784
 20
95.6496
 30
0
 11
244.811
 21
95.012
 31
0
  0
LINE
  5
AD2
330
A02
100
AcDbEntity
  8
View
100
AcDbLine
 10
236.948
 20
81.6846
 30
0
 11
250.026
 21
77.8374
 31
0
  0
LINE
  5
AD3
330
A02
100
AcDbEntity
  8
View
100
AcDbLine
 10
214.87
 20
83.2986
 30
0
 11
214.87
 21
81.6996
 31
0
  0
LINE
  5
AD4
330
A02
100
AcDbEntity
  8
View
100
AcDbLine
 10
230.47
 20
64.0235
 30
0
 11
214.87
 21
81.6996
 31
0
  0
LINE
  5
AD5
330
A02
100
AcDbEntity
  8
View
100
AcDbLine
 10
205.197
 20
92.1835
 30
0
 11
181.862
 21
105.656
 31
0
  0
LINE
  5
AD6
330
A02
100
AcDbEntity
  8
View
100
AcDbLine
 10
206.611
 20
93
 30
0
 11
205.197
 21
92.1835
 31
0
  0
LINE
  5
AD7
330
A02
100
AcDbEntity
  8
View
100
AcDbLine
 10
223.581
 20
102.798
 30
0
 11
224.996
 21
103.614
 31
0
  0
LINE
  5
AD8
330
A02
100
AcDbEntity
  8
View
100
AcDbLine
 10
223.581
 20
102.798
 30
0
 11
203.782
 21
114.229
 31
0
  0
LINE
  5
AD9
330
A02
100
AcDbEntity
  8
View
100
AcDbLine
 10
206.611
 20
109.33
 30
0
 11
206.611
 21
93
 31
0
  0
ELLIPSE
  5
ADA
330
A02
100
AcDbEntity
  8
View
100
AcDbEllipse
 10
186.105
 20
121.169
 30
0
 11
-2
 21
3.4641
 31
0
 40
0.57735
 41
5.49779
 42
0
  0
LINE
  5
ADB
330
A02
100
AcDbEntity
  8
View
100
AcDbLine
 10
186.105
 20
124.435
 30
0
 11
203.782
 21
114.229
 31
0
  0
ELLIPSE
  5
ADC
330
A02
100
AcDbEntity
  8
View
100
AcDbEllipse
 10
203.782
 20
110.963
 30
0
 11
-2
 21
3.4641
 31
0
 40
0.57735
 41
3.92699
 42
5.49779
  0
ELLIPSE
  5
ADD
330
A02
100
AcDbEntity
  8
View
100
AcDbEllipse
 10
201.308
 20
105.86
 30
0
 11
-1
 21
1.73205
 31
0
 40
0.57735
 41
0.785398
 42
2.35619
  0
ELLIPSE
  5
ADE
330
A02
100
AcDbEntity
  8
View
100
AcDbEllipse
 10
201.308
 20
110.759
 30
0
 11
-1
 21
1.73205
 31
0
 40
0.57735
 41
0.785398
 42
2.35619
  0
ELLIPSE
  5
ADF
330
A02
100
AcDbEntity
  8
View
100
AcDbEllipse
 10
201.308
 20
100.961
 30
0
 11
-1
 21
1.73205
 31
0
 40
0.57735
 41
0.785398
 42
2.35619
  0
ELLIPSE
  5
AE0
330
A02
100
AcDbEntity
  8
View
100
AcDbEllipse
 10
188.58
 20
113.208
 30
0
 11
-1
 21
1.73205
 31
0
 40
0.57735
 41
0.785398
 42
2.35619
  0
ELLIPSE
  5
AE1
330
A02
100
AcDbEntity
  8
View
100
AcDbEllipse
 10
188.58
 20
118.107
 30
0
 11
-1
 21
1.73205
 31
0
 40
0.57735
 41
0.785398
 42
2.35619
  0
ELLIPSE
  5
AE2
330
A02
100
AcDbEntity
  8
View
100
AcDbEllipse
 10
188.58
 20
108.309
 30
0
 11
-1
 21
1.73205
 31
0
 40
0.57735
 41
0.785398
 42
2.35619
  0
LINE
  5
AE3
330
A02
100
AcDbEntity
  8
View
100
AcDbLine
 10
181.862
 20
105.656
 30
0
 11
181.862
 21
121.986
 31
0
  0
LINE
  5
AE4
330
A02
100
AcDbEntity
  8
View
100
AcDbLine
 10
205.197
 20
108.513
 30
0
 11
205.197
 21
92.1835
 31
0
  0
ELLIPSE
  5
AE5
330
A02
100
AcDbEntity
  8
View
100
AcDbEllipse
 10
184.691
 20
120.353
 30
0
 11
-2
 21
3.4641
 31
0
 40
0.57735
 41
5.49779
 42
0
  0
ELLIPSE
  5
AE6
330
A02
100
AcDbEntity
  8
View
100
AcDbEllipse
 10
184.691
 20
120.353
 30
0
 11
-2
 21
3.4641
 31
0
 40
0.57735
 41
0
 42
0.785398
  0
LINE
  5
AE7
330
A02
100
AcDbEntity
  8
View
100
AcDbLine
 10
184.691
 20
123.619
 30
0
 11
202.368
 21
113.412
 31
0
  0
ELLIPSE
  5
AE8
330
A02
100
AcDbEntity
  8
View
100
AcDbEllipse
 10
202.368
 20
110.146
 30
0
 11
-2
 21
3.4641
 31
0
 40
0.57735
 41
3.92699
 42
5.49779
  0
ELLIPSE
  5
AE9
330
A02
100
AcDbEntity
  8
View
100
AcDbEllipse
 10
199.893
 20
105.043
 30
0
 11
-1
 21
1.73205
 31
0
 40
0.57735
 41
3.92699
 42
0
  0
ELLIPSE
  5
AEA
330
A02
100
AcDbEntity
  8
View
100
AcDbEllipse
 10
199.893
 20
105.043
 30
0
 11
-1
 21
1.73205
 31
0
 40
0.57735
 41
0
 42
3.14159
  0
ELLIPSE
  5
AEB
330
A02
100
AcDbEntity
  8
View
100
AcDbEllipse
 10
199.893
 20
105.043
 30
0
 11
-1
 21
1.73205
 31
0
 40
0.57735
 41
3.14159
 42
3.92699
  0
ELLIPSE
  5
AEC
330
A02
100
AcDbEntity
  8
View
100
AcDbEllipse
 10
199.893
 20
109.942
 30
0
 11
-1
 21
1.73205
 31
0
 40
0.57735
 41
3.92699
 42
0
  0
ELLIPSE
  5
AED
330
A02
100
AcDbEntity
  8
View
100
AcDbEllipse
 10
199.893
 20
109.942
 30
0
 11
-1
 21
1.73205
 31
0
 40
0.57735
 41
0
 42
3.14159
  0
ELLIPSE
  5
AEE
330
A02
100
AcDbEntity
  8
View
100
AcDbEllipse
 10
199.893
 20
109.942
 30
0
 11
-1
 21
1.73205
 31
0
 40
0.57735
 41
3.14159
 42
3.92699
  0
ELLIPSE
  5
AEF
330
A02
100
AcDbEntity
  8
View
100
AcDbEllipse
 10
199.893
 20
100.144
 30
0
 11
-1
 21
1.73205
 31
0
 40
0.57735
 41
3.92699
 42
0
  0
ELLIPSE
  5
AF0
330
A02
100
AcDbEntity
  8
View
100
AcDbEllipse
 10
199.893
 20
100.144
 30
0
 11
-1
 21
1.73205
 31
0
 40
0.57735
 41
0
 42
3.14159
  0
ELLIPSE
  5
AF1
330
A02
100
AcDbEntity
  8
View
100
AcDbEllipse
 10
199.893
 20
100.144
 30
0
 11
-1
 21
1.73205
 31
0
 40
0.57735
 41
3.14159
 42
3.92699
  0
ELLIPSE
  5
AF2
330
A02
100
AcDbEntity
  8
View
100
AcDbEllipse
 10
187.165
 20
112.392
 30
0
 11
-1
 21
1.73205
 31
0
 40
0.57735
 41
3.92699
 42
0
  0
ELLIPSE
  5
AF3
330
A02
100
AcDbEntity
  8
View
100
AcDbEllipse
 10
187.165
 20
112.392
 30
0
 11
-1
 21
1.73205
 31
0
 40
0.57735
 41
0
 42
3.14159
  0
ELLIPSE
  5
AF4
330
A02
100
AcDbEntity
  8
View
100
AcDbEllipse
 10
187.165
 20
112.392
 30
0
 11
-1
 21
1.73205
 31
0
 40
0.57735
 41
3.14159
 42
3.92699
  0
ELLIPSE
  5
AF5
330
A02
100
AcDbEntity
  8
View
100
AcDbEllipse
 10
187.165
 20
117.291
 30
0
 11
-1
 21
1.73205
 31
0
 40
0.57735
 41
3.92699
 42
0
  0
ELLIPSE
  5
AF6
330
A02
100
AcDbEntity
  8
View
100
AcDbEllipse
 10
187.165
 20
117.291
 30
0
 11
-1
 21
1.73205
 31
0
 40
0.57735
 41
0
 42
3.14159
  0
ELLIPSE
  5
AF7
330
A02
100
AcDbEntity
  8
View
100
AcDbEllipse
 10
187.165
 20
117.291
 30
0
 11
-1
 21
1.73205
 31
0
 40
0.57735
 41
3.14159
 42
3.92699
  0
ELLIPSE
  5
AF8
330
A02
100
AcDbEntity
  8
View
100
AcDbEllipse
 10
187.165
 20
107.493
 30
0
 11
-1
 21
1.73205
 31
0
 40
0.57735
 41
3.92699
 42
0
  0
ELLIPSE
  5
AF9
330
A02
100
AcDbEntity
  8
View
100
AcDbEllipse
 10
187.165
 20
107.493
 30
0
 11
-1
 21
1.73205
 31
0
 40
0.57735
 41
0
 42
3.14159
  0
ELLIPSE
  5
AFA
330
A02
100
AcDbEntity
  8
View
100
AcDbEllipse
 10
187.165
 20
107.493
 30
0
 11
-1
 21
1.73205
 31
0
 40
0.57735
 41
3.14159
 42
3.92699
  0
LINE
  5
AFB
330
A02
100
AcDbEntity
  8
View
100
AcDbLine
 10
223.581
 20
119.128
 30
0
 11
223.581
 21
102.798
 31
0
  0
LINE
  5
AFC
330
A02
100
AcDbEntity
  8
View
100
AcDbLine
 10
224.996
 20
119.944
 30
0
 11
224.996
 21
103.614
 31
0
  0
LINE
  5
AFD
330
A02
100
AcDbEntity
  8
View
100
AcDbLine
 10
200.247
 20
116.27
 30
0
 11
200.247
 21
132.6
 31
0
  0
ELLIPSE
  5
AFE
330
A02
100
AcDbEntity
  8
View
100
AcDbEllipse
 10
203.075
 20
130.967
 30
0
 11
-2
 21
3.4641
 31
0
 40
0.57735
 41
5.49779
 42
0
  0
ELLIPSE
  5
AFF
330
A02
100
AcDbEntity
  8
View
100
AcDbEllipse
 10
203.075
 20
130.967
 30
0
 11
-2
 21
3.4641
 31
0
 40
0.57735
 41
0
 42
0.785398
  0
LINE
  5
B00
330
A02
100
AcDbEntity
  8
View
100
AcDbLine
 10
203.075
 20
134.233
 30
0
 11
220.753
 21
124.027
 31
0
  0
ELLIPSE
  5
B01
330
A02
100
AcDbEntity
  8
View
100
AcDbEllipse
 10
220.753
 20
120.761
 30
0
 11
-2
 21
3.4641
 31
0
 40
0.57735
 41
3.92699
 42
5.49779
  0
ELLIPSE
  5
B02
330
A02
100
AcDbEntity
  8
View
100
AcDbEllipse
 10
218.278
 20
115.658
 30
0
 11
-1
 21
1.73205
 31
0
 40
0.57735
 41
3.92699
 42
0
  0
ELLIPSE
  5
B03
330
A02
100
AcDbEntity
  8
View
100
AcDbEllipse
 10
218.278
 20
115.658
 30
0
 11
-1
 21
1.73205
 31
0
 40
0.57735
 41
0
 42
3.14159
  0
ELLIPSE
  5
B04
330
A02
100
AcDbEntity
  8
View
100
AcDbEllipse
 10
218.278
 20
115.658
 30
0
 11
-1
 21
1.73205
 31
0
 40
0.57735
 41
3.14159
 42
3.92699
  0
ELLIPSE
  5
B05
330
A02
100
AcDbEntity
  8
View
100
AcDbEllipse
 10
218.278
 20
120.557
 30
0
 11
-1
 21
1.73205
 31
0
 40
0.57735
 41
3.92699
 42
0
  0
ELLIPSE
  5
B06
330
A02
100
AcDbEntity
  8
View
100
AcDbEllipse
 10
218.278
 20
120.557
 30
0
 11
-1
 21
1.73205
 31
0
 40
0.57735
 41
0
 42
3.14159
  0
ELLIPSE
  5
B07
330
A02
100
AcDbEntity
  8
View
100
AcDbEllipse
 10
218.278
 20
120.557
 30
0
 11
-1
 21
1.73205
 31
0
 40
0.57735
 41
3.14159
 42
3.92699
  0
ELLIPSE
  5
B08
330
A02
100
AcDbEntity
  8
View
100
AcDbEllipse
 10
218.278
 20
110.759
 30
0
 11
-1
 21
1.73205
 31
0
 40
0.57735
 41
3.92699
 42
0
  0
ELLIPSE
  5
B09
330
A02
100
AcDbEntity
  8
View
100
AcDbEllipse
 10
218.278
 20
110.759
 30
0
 11
-1
 21
1.73205
 31
0
 40
0.57735
 41
0
 42
3.14159
  0
ELLIPSE
  5
B0A
330
A02
100
AcDbEntity
  8
View
100
AcDbEllipse
 10
218.278
 20
110.759
 30
0
 11
-1
 21
1.73205
 31
0
 40
0.57735
 41
3.14159
 42
3.92699
  0
ELLIPSE
  5
B0B
330
A02
100
AcDbEntity
  8
View
100
AcDbEllipse
 10
205.55
 20
123.006
 30
0
 11
-1
 21
1.73205
 31
0
 40
0.57735
 41
3.92699
 42
0
  0
ELLIPSE
  5
B0C
330
A02
100
AcDbEntity
  8
View
100
AcDbEllipse
 10
205.55
 20
123.006
 30
0
 11
-1
 21
1.73205
 31
0
 40
0.57735
 41
0
 42
3.14159
  0
ELLIPSE
  5
B0D
330
A02
100
AcDbEntity
  8
View
100
AcDbEllipse
 10
205.55
 20
123.006
 30
0
 11
-1
 21
1.73205
 31
0
 40
0.57735
 41
3.14159
 42
3.92699
  0
ELLIPSE
  5
B0E
330
A02
100
AcDbEntity
  8
View
100
AcDbEllipse
 10
205.55
 20
127.905
 30
0
 11
-1
 21
1.73205
 31
0
 40
0.57735
 41
3.92699
 42
0
  0
ELLIPSE
  5
B0F
330
A02
100
AcDbEntity
  8
View
100
AcDbEllipse
 10
205.55
 20
127.905
 30
0
 11
-1
 21
1.73205
 31
0
 40
0.57735
 41
0
 42
3.14159
  0
ELLIPSE
  5
B10
330
A02
100
AcDbEntity
  8
View
100
AcDbEllipse
 10
205.55
 20
127.905
 30
0
 11
-1
 21
1.73205
 31
0
 40
0.57735
 41
3.14159
 42
3.92699
  0
ELLIPSE
  5
B11
330
A02
100
AcDbEntity
  8
View
100
AcDbEllipse
 10
205.55
 20
118.107
 30
0
 11
-1
 21
1.73205
 31
0
 40
0.57735
 41
3.92699
 42
0
  0
ELLIPSE
  5
B12
330
A02
100
AcDbEntity
  8
View
100
AcDbEllipse
 10
205.55
 20
118.107
 30
0
 11
-1
 21
1.73205
 31
0
 40
0.57735
 41
0
 42
3.14159
  0
ELLIPSE
  5
B13
330
A02
100
AcDbEntity
  8
View
100
AcDbEllipse
 10
205.55
 20
118.107
 30
0
 11
-1
 21
1.73205
 31
0
 40
0.57735
 41
3.14159
 42
3.92699
  0
ELLIPSE
  5
B14
330
A02
100
AcDbEntity
  8
View
100
AcDbEllipse
 10
204.49
 20
131.784
 30
0
 11
-2
 21
3.4641
 31
0
 40
0.57735
 41
5.49779
 42
0
  0
LINE
  5
B15
330
A02
100
AcDbEntity
  8
View
100
AcDbLine
 10
204.49
 20
135.05
 30
0
 11
222.167
 21
124.843
 31
0
  0
ELLIPSE
  5
B16
330
A02
100
AcDbEntity
  8
View
100
AcDbEllipse
 10
222.167
 20
121.577
 30
0
 11
-2
 21
3.4641
 31
0
 40
0.57735
 41
3.92699
 42
5.49779
  0
ELLIPSE
  5
B17
330
A02
100
AcDbEntity
  8
View
100
AcDbEllipse
 10
219.692
 20
116.474
 30
0
 11
-1
 21
1.73205
 31
0
 40
0.57735
 41
0.785398
 42
2.35619
  0
ELLIPSE
  5
B18
330
A02
100
AcDbEntity
  8
View
100
AcDbEllipse
 10
219.692
 20
121.373
 30
0
 11
-1
 21
1.73205
 31
0
 40
0.57735
 41
0.785398
 42
2.35619
  0
ELLIPSE
  5
B19
330
A02
100
AcDbEntity
  8
View
100
AcDbEllipse
 10
219.692
 20
111.575
 30
0
 11
-1
 21
1.73205
 31
0
 40
0.57735
 41
0.785398
 42
2.35619
  0
ELLIPSE
  5
B1A
330
A02
100
AcDbEntity
  8
View
100
AcDbEllipse
 10
206.964
 20
123.823
 30
0
 11
-1
 21
1.73205
 31
0
 40
0.57735
 41
0.785398
 42
2.35619
  0
ELLIPSE
  5
B1B
330
A02
100
AcDbEntity
  8
View
100
AcDbEllipse
 10
206.964
 20
128.722
 30
0
 11
-1
 21
1.73205
 31
0
 40
0.57735
 41
0.785398
 42
2.35619
  0
ELLIPSE
  5
B1C
330
A02
100
AcDbEntity
  8
View
100
AcDbEllipse
 10
206.964
 20
118.924
 30
0
 11
-1
 21
1.73205
 31
0
 40
0.57735
 41
0.785398
 42
2.35619
  0
LINE
  5
B1D
330
A02
100
AcDbEntity
  8
View
100
AcDbLine
 10
218.303
 20
116.97
 30
0
 11
218.912
 21
116.751
 31
0
  0
LINE
  5
B1E
330
A02
100
AcDbEntity
  8
View
100
AcDbLine
 10
224.996
 20
114.561
 30
0
 11
229.886
 21
112.8
 31
0
  0
LINE
  5
B1F
330
A02
100
AcDbEntity
  8
View
100
AcDbLine
 10
188.524
 20
116.96
 30
0
 11
188.131
 21
116.818
 31
0
  0
LINE
  5
B20
330
A02
100
AcDbEntity
  8
View
100
AcDbLine
 10
182.691
 20
123.817
 30
0
 11
184.105
 21
124.633
 31
0
  0
LINE
  5
B21
330
A02
100
AcDbEntity
  8
View
100
AcDbLine
 10
202.49
 20
135.248
 30
0
 11
201.075
 21
134.431
 31
0
  0
LINE
  5
B22
330
A02
100
AcDbEntity
  8
View
100
AcDbLine
 10
206.611
 20
109.33
 30
0
 11
205.197
 21
108.513
 31
0
  0
LINE
  5
B23
330
A02
100
AcDbEntity
  8
View
100
AcDbLine
 10
223.581
 20
119.128
 30
0
 11
224.996
 21
119.944
 31
0
  0
LINE
  5
B24
330
A02
100
AcDbEntity
  8
View
100
AcDbLine
 10
186.105
 20
124.435
 30
0
 11
184.691
 21
123.619
 31
0
  0
LINE
  5
B25
330
A02
100
AcDbEntity
  8
View
100
AcDbLine
 10
203.782
 20
114.229
 30
0
 11
202.368
 21
113.412
 31
0
  0
LINE
  5
B26
330
A02
100
AcDbEntity
  8
View
100
AcDbLine
 10
220.753
 20
124.027
 30
0
 11
222.167
 21
124.843
 31
0
  0
LINE
  5
B27
330
A02
100
AcDbEntity
  8
View
100
AcDbLine
 10
203.075
 20
134.233
 30
0
 11
204.49
 21
135.05
 31
0
  0
LINE
  5
B28
330
A02
100
AcDbEntity
  8
View
100
AcDbLine
 10
238.784
 20
67.8927
 30
0
 11
221.814
 21
94.0206
 31
0
  0
DIMENSION
  5
B29
330
A02
100
AcDbEntity
  8
Dimension
100
AcDbDimension
  2
*Dimension
 10
73.2981
 20
140.829
 30
0
 11
73.2981
 21
135.829
 31
0
 70
32
  1
 mm
  3
STANDARD
100
AcDbAlignedDimension
 13
122.692
 23
146.576
 33
0
 14
22.6919
 24
146.576
 34
0
100
AcDbRotatedDimension
  0
DIMENSION
  5
B33
330
A02
100
AcDbEntity
  8
Dimension001
100
AcDbDimension
  2
*Dimension001
 10
72.7511
 20
139.026
 30
0
 11
72.7511
 21
144.026
 31
0
 70
32
  1
 mm
  3
STANDARD
100
AcDbAlignedDimension
 13
56.1919
 23
166.576
 33
0
 14
89.1919
 24
166.576
 34
0
100
AcDbRotatedDimension
  0
DIMENSION
  5
B3D
330
A02
100
AcDbEntity
  8
Dimension002
100
AcDbDimension
  2
*Dimension002
 10
72.6919
 20
193.854
 30
0
 11
72.6919
 21
198.854
 31
0
 70
1
  1
 mm
  3
STANDARD
100
AcDbAlignedDimension
 13
60.1919
 23
190.576
 33
0
 14
85.1919
 24
190.576
 34
0
  0
DIMENSION
  5
B47
330
A02
100
AcDbEntity
  8
Dimension003
100
AcDbDimension
  2
*Dimension003
 10
268.522
 20
177.848
 30
0
 11
263.522
 21
177.848
 31
0
 70
32
  1
 mm
  3
STANDARD
100
AcDbAlignedDimension
 13
216.441
 23
190.576
 33
0
 14
216.441
 24
166.576
 34
0
 50
90
100
AcDbRotatedDimension
  0
DIMENSION
  5
B51
330
A02
100
AcDbEntity
  8
Dimension004
100
AcDbDimension
  2
*Dimension004
 10
266.835
 20
151.781
 30
0
 11
263.614
 21
155.605
 31
0
 70
32
  1
 mm
  3
STANDARD
100
AcDbAlignedDimension
 13
228.441
 23
166.576
 33
0
 14
252.191
 24
146.576
 34
0
 50
90
100
AcDbRotatedDimension
  0
DIMENSION
  5
B5B
330
A02
100
AcDbEntity
  8
Dimension005
100
AcDbDimension
  2
*Dimension005
 10
98.6919
 20
68.0774
 30
0
 11
32.8913
 21
70.5043
 31
0
 70
3
  1
⌀ mm
  3
STANDARD
100
AcDbDiametricDimension
 15
46.6919
 25
68.0774
 35
0
 40
0
  0
DIMENSION
  5
B63
330
A02
100
AcDbEntity
  8
Dimension007
100
AcDbDimension
  2
*Dimension007
 10
141.06
 20
72.6727
 30
0
 11
137.14
 21
75.7762
 31
0
 70
32
  1
 mm
  3
STANDARD
100
AcDbAlignedDimension
 13
89.1919
 23
80.0774
 33
0
 14
98.6919
 24
68.0774
 34
0
 50
90
100
AcDbRotatedDimension
  0
DIMENSION
  5
B6D
330
A02
100
AcDbEntity
  8
Dimension008
100
AcDbDimension
  2
*Dimension008
 10
103.126
 20
58.1889
 30
0
 11
34.5901
 21
84.0947
 31
0
 70
3
  1
⌀ mm
  3
STANDARD
100
AcDbDiametricDimension
 15
72.6919
 25
68.0774
 35
0
 40
0
  0
DIMENSION
  5
B75
330
A02
100
AcDbEntity
  8
Dimension009
100
AcDbDimension
  2
*Dimension009
 10
57.2411
 20
115.63
 30
0
 11
128.267
 21
109.82
 31
0
 70
3
  1
⌀ mm
  3
STANDARD
100
AcDbDiametricDimension
 15
72.6919
 25
68.0774
 35
0
 40
0
  0
DIMENSION
  5
B7D
330
A02
100
AcDbEntity
  8
Dimension010
100
AcDbDimension
  2
*Dimension010
 10
73.2484
 20
126.082
 30
0
 11
73.2484
 21
131.082
 31
0
 70
32
  1
 mm
  3
STANDARD
100
AcDbAlignedDimension
 13
67.6919
 23
117.827
 33
0
 14
77.6919
 24
117.827
 34
0
100
AcDbRotatedDimension
  0
DIMENSION
  5
B87
330
A02
100
AcDbEntity
  8
Dimension011
100
AcDbDimension
  2
*Dimension011
 10
67.6919
 20
117.827
 30
0
 11
35.4644
 21
112.319
 31
0
 70
2
  1
 °
  3
STANDARD
100
AcDb2LineAngularDimension
 13
67.6919
 23
83.4658
 33
0
 14
47.4951
 24
111.264
 34
0
 15
67.6919
 25
83.4658
 35
0
 16
33.9193
 26
117.074
 36
0
  0
DIMENSION
  5
B8F
330
A02
100
AcDbEntity
  8
Dimension012
100
AcDbDimension
  2
*Dimension012
 10
158.975
 20
203.469
 30
0
 11
158.975
 21
198.469
 31
0
 70
32
  1
 mm
  3
STANDARD
100
AcDbAlignedDimension
 13
190.441
 23
190.576
 33
0
 14
188.441
 24
190.576
 34
0
100
AcDbRotatedDimension
  0
DIMENSION
  5
B99
330
A02
100
AcDbEntity
  8
Dimension013
100
AcDbDimension
  2
*Dimension013
 10
230.473
 20
194.307
 30
0
 11
230.473
 21
199.307
 31
0
 70
32
  1
 mm
  3
STANDARD
100
AcDbAlignedDimension
 13
188.441
 23
190.576
 33
0
 14
216.441
 24
190.576
 34
0
100
AcDbRotatedDimension
  0
DIMENSION
  5
BA3
330
A02
100
AcDbEntity
  8
Dimension014
100
AcDbDimension
  2
*Dimension014
 10
83.6919
 20
184.576
 30
0
 11
102.769
 21
192.849
 31
0
 70
3
  1
14x ⌀ mm
  3
STANDARD
100
AcDbDiametricDimension
 15
79.6919
 25
184.576
 35
0
 40
0
  0
ENDSEC
  0
SECTION
  2
OBJECTS
  0
DICTIONARY
  5
F000
330
0
100
AcDbDictionary
  3
ACAD_GROUP
350
F001
  0
DICTIONARY
  5
F001
330
F000
100
AcDbDictionary
  0
ENDSEC
  0
EOF